<svg width="169" height="80" viewBox="0 0 169 80" fill="none" xmlns="http://www.w3.org/2000/svg">
<path d="M1.81172 0.238629C56.8728 0.238629 111.934 0.241279 166.995 0.237305C167.004 6.22368 166.998 12.2087 166.999 18.1938C111.937 18.1951 56.8741 18.1951 1.81039 18.1938C1.81039 12.2087 1.80906 6.22368 1.81172 0.238629Z" fill="#BDBDBD"/>
<path d="M21.6998 26.3423C23.5902 26.0284 25.5137 26.0814 27.4226 26.0853C29.126 26.0867 30.8306 26.0946 32.534 26.0959C32.3323 26.7543 32.1294 27.414 31.9277 28.0724C30.832 28.0737 29.7349 28.0751 28.6391 28.0724C27.1335 33.4388 25.6278 38.8066 24.1619 44.1849C23.955 45.0433 23.7122 45.9322 23.8422 46.8211C23.89 47.2821 24.3198 47.5788 24.7589 47.6C25.5336 47.7629 26.2725 47.3788 26.8668 46.9191C28.07 45.9878 28.9681 44.7241 29.703 43.406C30.9447 41.1751 31.6438 38.694 32.0922 36.1942C31.0628 36.1916 30.0347 36.1942 29.0053 36.1929C29.1618 35.5411 29.3236 34.8907 29.4802 34.239C30.8797 34.2363 32.3575 34.125 33.5727 33.362C35.203 32.3221 36.1927 30.6026 37.2858 29.0646C37.9278 28.9719 38.6071 29.054 39.2637 29.0275C38.8485 30.7205 38.4293 32.4122 38.0141 34.1038C39.2093 34.1065 40.4046 34.1025 41.5998 34.1065C41.4274 34.802 41.2576 35.4974 41.0838 36.1929C39.8766 36.1929 38.6707 36.1942 37.4649 36.1929C36.8759 38.592 36.2762 40.9884 35.7124 43.394C35.5307 44.2631 35.3052 45.1519 35.414 46.0448C35.4564 46.474 35.727 46.9257 36.1874 46.9946C37.0404 47.143 37.8947 46.7919 38.5898 46.319C39.7665 45.5017 40.6181 44.3041 41.296 43.0615C42.2472 41.297 42.8468 39.3682 43.3138 37.4262C44.0049 34.6642 44.6974 31.9048 45.3872 29.1428C44.2928 29.1309 43.1983 29.164 42.1052 29.1256C42.283 28.4539 42.4157 27.7704 42.5735 27.0934C45.484 27.0921 48.3959 27.0934 51.3064 27.0934C50.0024 32.4135 48.7076 37.7375 47.3758 43.0509C47.1184 44.1147 46.7483 45.1917 46.8584 46.3005C46.8876 46.625 47.0547 47.0463 47.4474 47.0317C48.2208 46.9933 48.7886 46.3746 49.2714 45.8355C50.8262 43.9637 51.8397 41.7302 52.966 39.5934C53.949 37.8369 55.2477 36.2128 56.9218 35.0695C58.3413 34.08 60.16 33.623 61.862 34.0429C62.7575 34.2204 63.511 34.7755 64.088 35.4617C64.2114 35.0205 64.3308 34.5794 64.4555 34.1396C66.1588 34.1422 67.8635 34.1383 69.5668 34.1422C68.6435 37.862 67.7189 41.5818 66.7863 45.3003C66.6735 45.7799 66.5953 46.3296 66.8579 46.776C67.0649 47.1324 67.5371 47.2715 67.9179 47.1311C68.6554 46.8754 69.2935 46.3601 69.7472 45.7295C69.7724 45.1784 69.7645 44.5889 70.0802 44.1028C70.6639 43.1106 72.1006 42.9874 73.0332 43.5358C73.979 44.0776 74.1501 45.4911 73.4988 46.3243C73.2534 46.6595 72.8939 46.8807 72.5344 47.0767C72.6882 47.7259 73.2308 48.212 73.8636 48.3842C74.897 48.677 76.1042 48.632 76.997 47.9815C77.5329 47.6013 77.8659 46.9496 77.8142 46.2899C77.7969 45.6143 77.3246 45.0685 76.8259 44.6631C75.8468 43.8683 74.7245 43.247 73.857 42.3184C72.8952 41.3421 72.1218 40.0107 72.3009 38.5946C72.4999 37.2699 73.2826 36.0578 74.3518 35.263C75.8362 34.1634 77.7505 33.8482 79.5599 33.8985C80.8958 33.9541 82.3166 34.3118 83.2863 35.2868C84.2229 36.2088 84.4961 37.7627 83.8607 38.9245C83.2133 40.0862 81.3123 40.1684 80.5801 39.0516C79.9831 38.2104 80.198 37.0129 80.9276 36.3214C80.0879 35.6484 78.7627 35.6405 77.9322 36.3294C77.245 36.9149 77.1973 38.0184 77.6908 38.7417C78.1896 39.4875 78.9842 39.9458 79.682 40.4836C80.6557 41.2242 81.713 41.8878 82.5156 42.8244C83.09 43.4841 83.3752 44.381 83.2531 45.25C83.1483 46.5826 82.3351 47.7457 81.3442 48.5949C80.3148 49.4785 79.0505 50.0825 77.72 50.3475C76.6733 50.5647 75.5961 50.5131 74.5375 50.4283C73.5492 50.3289 72.5211 50.1156 71.7212 49.4917C71.1441 49.0479 70.7501 48.4213 70.4132 47.7894C69.2099 49.0665 67.6313 50.0203 65.9081 50.3846C64.9689 50.574 63.9116 50.5819 63.0944 50.015C62.3781 49.5328 61.9615 48.726 61.7466 47.9113C60.6774 49.1062 59.2884 50.0931 57.6886 50.3965C56.297 50.6588 54.7449 50.4442 53.6253 49.5301C52.56 48.6704 52.0002 47.3417 51.7641 46.0249C50.4959 47.9232 48.6387 49.4891 46.4498 50.2004C45.2041 50.5727 43.7316 50.7118 42.5948 49.962C41.5773 49.2797 41.1939 48.0107 41.1169 46.8462C39.7041 48.4743 37.774 49.6321 35.7045 50.2163C34.3779 50.5607 32.8815 50.6919 31.6279 50.0388C30.6025 49.4904 30.0612 48.3379 29.9737 47.2172C28.5993 49.0069 26.4529 50.0958 24.2362 50.3952C22.8844 50.57 21.4544 50.6084 20.1663 50.0997C19.3093 49.7659 18.5969 49.0506 18.3528 48.1537C18.0238 46.9986 18.2546 45.7772 18.5836 44.6485C19.0081 43.1384 19.4525 41.6335 19.8824 40.1247C18.1923 40.1233 16.5022 40.1247 14.8122 40.1233C14.2882 42.0879 13.7973 44.1266 12.6114 45.8169C11.3087 47.6782 9.49391 49.2082 7.38597 50.0746C5.39079 50.9078 3.14622 50.7475 1.07675 50.3064C1.07277 49.4162 1.07542 48.5273 1.0741 47.6371C1.58483 48.1908 2.22822 48.6929 3.00295 48.7684C4.19687 48.8399 5.43324 48.4174 6.28491 47.5669C6.83544 47.0185 7.21219 46.3177 7.44566 45.5811C8.1461 43.3093 8.74439 41.0069 9.34666 38.7072C10.4398 35.0484 12.2678 31.4345 15.3322 29.0395C17.1642 27.5915 19.4008 26.704 21.6998 26.3423ZM21.1108 28.601C19.7404 29.2249 18.719 30.4066 17.9416 31.665C16.7477 33.6216 16.0021 35.8074 15.3441 37.9905C17.0501 37.9958 18.7561 37.9813 20.4621 37.9972C21.3947 34.7053 22.2967 31.4041 23.2108 28.1055C22.4891 28.1466 21.7674 28.2923 21.1108 28.601ZM60.5235 36.3174C59.3561 36.7188 58.7379 37.9031 58.2948 38.9708C57.7191 40.4651 57.3211 42.0322 57.1606 43.6259C57.089 44.5214 57.0678 45.4553 57.3755 46.3137C57.5347 46.7482 57.8478 47.2052 58.3466 47.2662C59.1399 47.3708 59.9093 46.9535 60.4107 46.3614C61.2107 45.4328 61.6498 44.2631 62.0331 43.1159C62.5067 41.6163 62.914 40.0611 62.8543 38.4754C62.8132 37.7799 62.6818 37.0209 62.1738 36.5029C61.7426 36.0644 61.0581 36.1651 60.5235 36.3174Z" fill="#BDBDBD"/>
<path d="M95.8543 27.7132C97.4754 26.6799 99.3658 25.8785 101.326 26.0321C102.959 26.1196 104.665 26.6627 105.776 27.9198C106.069 27.5198 106.363 27.1224 106.659 26.7249C107.324 26.7263 107.99 26.7249 108.656 26.7263C107.929 29.3704 107.178 32.0092 106.46 34.6573C105.764 34.6759 105.069 34.6626 104.374 34.6653C104.52 33.1909 104.47 31.6701 104.021 30.2487C103.782 29.5506 103.383 28.7783 102.623 28.5517C101.71 28.3278 100.779 28.7451 100.06 29.2856C98.8497 30.2116 97.9728 31.4952 97.2313 32.808C95.9538 35.1461 95.061 37.6962 94.6007 40.3205C94.3367 41.9949 94.2186 43.7435 94.675 45.3955C94.9151 46.2618 95.4391 47.1626 96.3531 47.4382C97.5046 47.7614 98.7423 47.3216 99.6443 46.593C100.78 45.675 101.588 44.4337 102.343 43.2017C103.527 41.2372 104.555 39.1481 106.111 37.4379C107.531 35.8337 109.375 34.5169 111.503 34.0745C112.71 33.8347 114.034 33.7486 115.167 34.3142C116.526 34.9647 117.426 36.3106 117.83 37.728C118.317 39.4329 118.242 41.2729 117.748 42.9673C119.729 40.9471 121.555 38.65 122.447 35.9291C121.778 35.9264 121.111 35.9291 120.444 35.9277C120.583 35.3435 120.725 34.762 120.864 34.1778C123.26 34.1725 125.657 34.1765 128.054 34.1765C127.932 34.6083 127.813 35.0415 127.69 35.4747C128.98 34.3235 130.759 33.7367 132.483 33.9274C133.488 34.0506 134.426 34.5858 135.069 35.3647C135.855 36.3106 136.262 37.5174 136.399 38.7255C136.575 40.2728 136.342 41.8399 135.913 43.3289C137.273 41.9539 138.607 40.5523 139.891 39.1057C140.764 38.083 141.666 37.0763 142.717 36.2298C144.094 35.1077 145.699 34.1606 147.489 33.9195C148.709 33.7737 150.036 33.9075 151.072 34.6216C152.262 35.4243 152.815 36.9557 152.643 38.3506C152.555 39.1044 152.213 39.8635 151.584 40.3165C150.83 40.861 149.696 40.9034 148.964 40.3019C148.025 39.5204 148.005 37.83 149.024 37.1054C149.382 36.8232 149.84 36.7385 150.285 36.7053C150.029 36.1966 149.522 35.831 148.944 35.8138C148.021 35.7092 147.292 36.4311 146.779 37.1041C145.544 38.801 144.978 40.8742 144.597 42.9076C144.41 44.0641 144.247 45.2762 144.57 46.4234C144.734 47.0368 145.228 47.5985 145.893 47.6501C146.932 47.764 147.836 47.1004 148.595 46.4751C150.346 44.9384 151.722 43.0401 153.096 41.1762C154.215 39.6157 155.316 38.0261 156.698 36.6828C157.822 35.5807 159.141 34.6176 160.675 34.1844C161.884 33.8493 163.203 33.7817 164.407 34.1831C165.441 34.5235 166.336 35.2482 166.906 36.1741C167.706 37.4392 167.927 38.9852 167.837 40.4569C167.682 42.6732 166.98 44.8854 165.635 46.6725C164.295 48.4794 162.312 49.8253 160.101 50.2929C158.834 50.5552 157.474 50.6162 156.246 50.1499C155.032 49.71 154.017 48.7708 153.468 47.6051C153.06 46.7745 152.903 45.8459 152.884 44.9265C151.795 46.4234 150.467 47.7601 148.924 48.7894C147.291 49.8743 145.345 50.5565 143.37 50.489C141.991 50.4307 140.697 49.6769 139.884 48.5801C138.627 46.9308 138.517 44.6973 138.991 42.7447C136.806 45.2405 134.348 47.5547 131.465 49.2292C130.123 49.9737 128.617 50.6599 127.042 50.4665C125.988 50.3698 124.967 49.8783 124.296 49.0503C123.739 51.3739 123.162 53.6921 122.593 56.0117C120.871 56.0104 119.15 56.0117 117.428 56.0117C118.58 51.5037 119.733 46.997 120.886 42.4904C119.268 44.3675 117.529 46.1572 115.542 47.6475C113.835 48.9179 111.918 50.0081 109.798 50.3843C108.284 50.644 106.601 50.5102 105.331 49.5723C104.119 48.6887 103.487 47.2209 103.266 45.7757C102.161 47.4488 100.584 48.8026 98.7807 49.6783C97.0761 50.5049 95.0451 50.787 93.233 50.1472C91.1555 49.4517 89.5557 47.6766 88.8473 45.6339C87.9213 43.0242 88.188 40.1509 88.9348 37.532C90.0333 33.6095 92.4065 29.9572 95.8543 27.7132ZM112.252 36.047C111.858 36.1768 111.52 36.4311 111.231 36.7226C110.345 37.6578 109.846 38.8765 109.409 40.0675C108.84 41.7406 108.369 43.4587 108.15 45.2166C108.072 46.1082 107.983 47.0951 108.462 47.8978C108.88 48.5602 109.813 48.5522 110.463 48.2807C111.536 47.817 112.232 46.805 112.783 45.818C113.86 43.7687 114.457 41.4584 114.474 39.1415C114.45 38.2195 114.388 37.2207 113.841 36.4417C113.496 35.9304 112.797 35.8456 112.252 36.047ZM162.117 36.0297C161.285 36.2934 160.71 37.0153 160.27 37.7307C159.443 39.1322 158.973 40.706 158.551 42.2665C158.213 43.5832 157.904 44.9252 157.901 46.2923C157.914 46.9136 157.982 47.6011 158.419 48.082C158.824 48.5072 159.486 48.5138 160.018 48.3655C160.895 48.1045 161.549 47.4051 162.06 46.6791C162.918 45.4259 163.458 43.982 163.834 42.5182C164.19 41.0769 164.393 39.572 164.216 38.0883C164.123 37.4419 163.972 36.7451 163.494 36.2655C163.137 35.9052 162.575 35.888 162.117 36.0297ZM129.362 36.5609C128.601 36.8179 128.042 37.4472 127.599 38.0883C126.68 39.4117 126.306 41.0001 125.958 42.546C125.627 43.9356 125.286 45.3213 124.982 46.7162C125.274 47.6594 126.298 48.4052 127.309 48.1747C128.419 47.9257 129.129 46.9136 129.634 45.9691C130.506 44.2469 130.936 42.338 131.209 40.4397C131.319 39.3468 131.431 38.1559 130.908 37.1465C130.631 36.5927 129.934 36.3569 129.362 36.5609Z" fill="#BDBDBD"/>
<path d="M1.8104 61.8247C56.8741 61.8247 111.937 61.8247 166.999 61.8247C167 67.7859 166.999 73.7458 166.999 79.7057C111.937 79.707 56.8741 79.707 1.8104 79.7057C1.8104 73.7458 1.80908 67.7859 1.8104 61.8247Z" fill="#BDBDBD"/>
</svg>
