<svg width="227" height="100" viewBox="0 0 227 100" fill="none" xmlns="http://www.w3.org/2000/svg">
<path d="M130.816 27.6677C136.022 24.2723 142.906 26.0671 147.413 29.8199C146.263 31.6613 144.965 33.4173 143.582 35.1033C141.298 33.9301 138.881 31.9022 136.146 32.8268C134.779 33.1842 134.453 34.6372 133.994 35.7715C137.669 38.1879 142.308 38.7784 145.711 41.6222C149.829 45.6469 148.384 53.1525 143.675 56.105C137.537 60.2929 128.431 57.9231 124.818 51.5053C126.341 49.8037 127.965 48.1876 129.674 46.6647C131.687 48.8636 134.01 51.785 137.405 50.9537C139.915 50.977 141.461 47.2164 139.316 45.7168C135.68 43.5491 130.832 43.3548 127.996 39.8973C125.106 36.0435 126.737 30.0219 130.816 27.6677Z" fill="#BDBDBD"/>
<path d="M56.1335 26.6112C60.6866 26.347 65.2785 26.0906 69.816 26.6656C72.9861 27.0774 75.7443 29.6336 76.2494 32.8115C76.9176 35.5464 75.4569 38.1182 74.2914 40.488C76.3426 42.3994 78.8134 44.4583 78.8289 47.5196C79.3961 52.1893 75.7055 56.5869 71.1136 57.1619C66.1565 57.7913 61.1372 57.4416 56.1568 57.3872C56.0869 47.1234 56.1257 36.8673 56.1335 26.6112ZM63.709 32.6017C63.7012 34.7228 63.7323 36.844 63.8333 38.9651C65.3018 38.7398 66.8557 38.7553 68.231 38.126C69.7849 37.1703 68.9225 35.1579 69.0779 33.6817C67.353 33.0446 65.5427 32.6949 63.709 32.6017ZM63.7478 44.435C63.7012 46.7038 63.709 48.9726 63.8022 51.2336C65.6359 51.1481 67.5084 51.2491 69.2954 50.7674C71.7352 49.9982 71.8051 45.8025 69.3654 44.9867C67.555 44.3962 65.6204 44.536 63.7478 44.435Z" fill="#BDBDBD"/>
<path d="M83.9103 26.5098C88.9529 26.4321 94.0965 25.9504 99.0613 27.0071C105.829 28.8796 107.872 38.6617 103.172 43.5333C102.309 44.4812 101.361 45.3437 100.437 46.2294C102.962 50.1065 105.906 53.6962 108.533 57.5034C105.588 57.5655 102.643 57.5111 99.7062 57.3169C96.9868 53.7039 95.0133 49.5238 91.7267 46.3537C91.4781 50.0444 91.5635 53.7506 91.4858 57.449C88.9684 57.5111 86.451 57.5189 83.9336 57.4645C83.7471 47.1463 83.7782 36.828 83.9103 26.5098ZM91.7189 32.8499C91.5324 35.2508 91.5014 37.6672 91.5558 40.0758C93.4671 39.9515 95.5416 40.1846 97.2743 39.19C98.1911 37.5428 98.4165 35.0254 96.7926 33.7201C95.2075 33.0053 93.4127 33.0597 91.7189 32.8499Z" fill="#BDBDBD"/>
<path d="M112.581 26.471C115.129 26.3622 117.686 26.3622 120.234 26.4943C120.327 36.8125 120.358 47.123 120.218 57.4412C117.686 57.5112 115.153 57.5189 112.62 57.4568C112.355 47.1308 112.433 36.797 112.581 26.471Z" fill="#BDBDBD"/>
<path d="M150.093 26.5957C156.993 26.2305 163.916 26.3626 170.823 26.5024C170.846 28.6313 170.846 30.768 170.831 32.8969C168.779 32.9979 166.728 33.0756 164.685 33.1456C164.11 41.2261 164.693 49.33 164.421 57.4183C161.872 57.5115 159.324 57.5193 156.783 57.4571C156.34 49.3688 156.806 41.2727 156.581 33.1844C154.421 33.0834 152.261 32.9669 150.101 32.8115C150.085 30.7369 150.078 28.6702 150.093 26.5957Z" fill="#BDBDBD"/>
<path d="M56.0989 64.3046C94.3262 64.1259 132.561 64.2269 170.788 64.2502C171.014 67.5213 171.014 70.8001 170.788 74.0712C134.27 74.1644 97.7526 74.0479 61.2348 74.1333C59.5176 74.1178 57.8083 74.0634 56.0989 74.0012C55.9669 70.769 55.9669 67.529 56.0989 64.3046Z" fill="#BDBDBD"/>
</svg>
