<svg width="169" height="80" viewBox="0 0 169 80" fill="none" xmlns="http://www.w3.org/2000/svg">
<g clip-path="url(#clip0_27_479)">
<path d="M71.0368 11.3C72.4756 6.56666 75.7494 1.64166 81.1426 0.74166C89.827 -0.68334 97.6067 4.72499 106.145 4.99999C109.22 5.31666 112.21 4.525 115.156 3.875C112.89 6.75 108.919 7.84999 105.326 8.03333C98.1666 8.34166 91.774 4.03333 84.6146 4.44166C81.4786 4.6 78.5925 6.27499 76.7316 8.69166C73.7679 12.375 73.4922 17.35 70.6491 21.1083C66.8066 26.5417 60.0091 30.475 53.134 30.15C61.6633 26.9083 68.4867 19.8333 71.0368 11.3Z" fill="#BDBDBD"/>
<path d="M77.3174 24.1835C79.2042 20.5418 83.0208 17.7751 87.1648 16.9251C94.307 16.0585 101.234 19.9168 108.367 18.3168C110.383 17.9751 112.072 16.8085 113.993 16.2168L113.235 17.6085C109.074 20.8835 103.801 22.9668 98.3648 22.2251C93.5402 21.5751 88.6122 19.9751 83.7704 21.4751C81.4356 21.9585 79.5574 23.5085 77.3174 24.1835Z" fill="#BDBDBD"/>
<path d="M63.9033 33.7582C71.2005 33.1166 78.0928 30.1082 85.4676 30.0249C91.1796 30.0916 96.4522 33.3082 99.8208 37.6416L99.166 37.8749C95.3925 36.2249 91.4122 34.6916 87.1907 34.8249C80.3845 34.3749 74.1814 37.9999 67.3925 37.7249C61.7667 38.0249 56.3131 35.9666 51.9796 32.5832L51.4627 31.8999L51.8848 31.7499C55.6928 33.1666 59.7851 34.2582 63.9033 33.7582Z" fill="#BDBDBD"/>
<path d="M115.156 3.87513C115.484 3.65013 116.13 3.20013 116.457 2.9668C114.234 7.58346 108.996 10.4918 103.956 11.5085C97.4947 12.9835 90.835 9.3168 84.5113 11.8501C78.334 14.4168 76.5765 21.4501 71.6916 25.4585C66.6516 30.2835 59.1907 31.4668 52.4017 30.9168L51.8848 31.7501L51.4627 31.9001L51.23 31.9835C51.7987 31.3585 52.2811 30.6501 52.9617 30.1335L53.134 30.1501C60.0091 30.4751 66.8067 26.5418 70.6491 21.1085C73.4922 17.3501 73.7679 12.3751 76.7316 8.6918C78.5925 6.27513 81.4787 4.60013 84.6147 4.4418C91.774 4.03346 98.1667 8.34179 105.326 8.03346C108.919 7.85013 112.89 6.75013 115.156 3.87513Z" fill="#BDBDBD"/>
<path d="M98.3648 22.2251C103.801 22.9667 109.074 20.8834 113.235 17.6084C110.349 22.8751 104.757 27.0584 98.4165 27.0667C93.299 27.3751 88.6725 24.8334 83.6583 24.3501C81.134 24.0667 78.1186 24.0167 76.1974 25.8834C76.4559 25.3334 76.723 24.7917 77.0417 24.2751L77.3174 24.1834C79.5574 23.5084 81.4356 21.9584 83.7703 21.4751C88.6122 19.9751 93.5402 21.5751 98.3648 22.2251Z" fill="#BDBDBD"/>
<path d="M51.9796 32.5835C56.3131 35.9668 61.7667 38.0252 67.3925 37.7252C74.1814 38.0002 80.3845 34.3752 87.1907 34.8252C91.4122 34.6918 95.3925 36.2252 99.1661 37.8752L99.8208 37.6418C100.252 38.2168 100.682 38.7918 101.079 39.3918C92.7304 35.8418 84.2184 41.2502 76.0251 42.7418C66.8239 44.8085 56.5113 40.6752 51.9796 32.5835Z" fill="#BDBDBD"/>
<path d="M0.166656 53.0833C0.933426 52.3666 1.63989 51.3417 2.86327 51.5C10.6171 51.4583 18.3624 51.4916 26.1162 51.4833C26.323 53.175 26.1679 54.9 26.1937 56.6083C19.3014 56.65 12.4091 56.625 5.51681 56.6167C5.43066 62.0083 5.4565 67.4166 5.49958 72.8083C5.54266 73.9416 6.81773 74.5333 7.8602 74.375C13.9685 74.3917 20.0768 74.35 26.1851 74.3917C26.2196 76.1 26.2282 77.8083 26.1851 79.5167C19.8183 79.525 13.4516 79.5583 7.0762 79.5C3.74204 79.4083 0.976503 76.95 0.166656 73.8917V53.0833Z" fill="#BDBDBD"/>
<path d="M37.4713 51.5835C43.6399 51.3169 49.8344 51.5835 56.0116 51.4502C56.563 53.0752 56.0805 54.9002 56.227 56.6085C50.1962 56.6752 44.1654 56.5752 38.1347 56.6502C35.0417 56.8419 34.5162 61.6752 37.3076 62.7335C42.158 63.1502 47.0774 62.5085 51.9193 63.0752C55.9685 63.6002 59.1476 67.3419 58.8633 71.3085C59.139 75.5585 55.4171 79.3419 51.0577 79.4919C44.2085 79.5419 37.3507 79.5752 30.5014 79.4752C30.5273 77.7835 30.51 76.1002 30.5187 74.4169C37.342 74.3002 44.174 74.4419 51.006 74.3502C54.547 74.1169 54.435 68.2669 50.9113 68.1252C46.6553 68.0752 42.4079 68.1502 38.1605 68.0919C34.3439 67.9669 30.7427 65.0835 30.3722 61.3252C29.3125 56.8669 32.6639 51.9752 37.4713 51.5835Z" fill="#BDBDBD"/>
<path d="M91.4208 52.8669C92.4116 50.6169 96.3747 51.2919 96.435 53.7586C96.5297 62.1252 96.4264 70.5002 96.4867 78.8752C94.9445 79.5669 92.894 78.9086 91.171 79.1252C91.1623 74.1002 91.1451 69.0836 91.1796 64.0586L90.8264 63.6002C87.9747 68.4252 85.0713 73.2252 82.211 78.0419C81.5734 79.6252 79.075 80.0752 77.9377 78.7919C74.5519 73.8169 71.9156 68.3252 68.4005 63.4419C68.4091 68.6752 68.4177 73.9002 68.4005 79.1252C66.6688 79.0169 64.8424 79.3919 63.1624 78.9836C63.2227 70.5752 63.1537 62.1752 63.1968 53.7669C63.0848 51.5169 66.6171 50.6419 67.8233 52.4669C71.9931 58.8836 75.5427 65.7669 79.9279 72.0002C83.6497 65.5586 87.587 59.2419 91.4208 52.8669Z" fill="#BDBDBD"/>
<path d="M114.476 51.6751C119.128 51.2585 123.823 51.5668 128.493 51.4918C129.871 51.3751 131.052 52.3835 131.284 53.6751C131.241 62.2918 131.301 70.9085 131.258 79.5168C129.518 79.5335 127.786 79.5335 126.055 79.5251C125.986 77.2418 126.063 74.9668 126.02 72.6918C119.998 72.6585 113.976 72.6668 107.954 72.6835C107.928 74.9501 107.971 77.2085 107.936 79.4751C106.205 79.5585 104.464 79.5585 102.724 79.4835C102.526 74.5335 102.664 69.5585 102.655 64.6001C102.802 58.2835 107.919 52.4501 114.476 51.6751ZM112.184 57.8418C108.574 59.6001 107.325 63.9751 108.109 67.5751C114.002 67.4918 119.895 67.5085 125.779 67.5668C126.141 64.0251 126.313 60.0085 125.693 56.5835C121.204 56.9918 116.354 55.7251 112.184 57.8418Z" fill="#BDBDBD"/>
<path d="M138.142 51.4502C139.788 51.4919 141.433 51.4835 143.079 51.4669C143.604 60.7085 143.173 70.1835 143.294 79.5169C141.554 79.5335 139.822 79.5419 138.09 79.5169C138.099 70.1669 137.987 60.8002 138.142 51.4502Z" fill="#BDBDBD"/>
<path d="M160.714 51.4919C163.196 51.5419 165.711 51.2669 168.167 51.7086V51.8669C162.929 55.8753 158.466 60.8919 153.589 65.3586C157.854 70.2003 163.084 74.4419 167.65 79.1169C167.779 79.0919 168.037 79.0503 168.167 79.0253V79.3169C165.651 79.6003 163.092 79.5919 160.559 79.4753C156.691 75.6919 152.874 71.8586 148.954 68.1336C147.757 68.1086 146.559 68.0919 145.362 68.1003C145.31 66.3586 145.293 64.6086 145.379 62.8669C146.594 62.8753 147.809 62.8586 149.032 62.8169C153.004 59.1086 156.717 55.1586 160.714 51.4919Z" fill="#BDBDBD"/>
<path d="M7.68788 68.1251C7.32604 66.4584 7.34327 64.5251 7.67927 62.8501C13.0553 62.8668 18.4313 62.8501 23.8073 62.8584C23.8762 64.6084 23.8848 66.3584 23.8159 68.1084C18.4399 68.1168 13.0639 68.0834 7.68788 68.1251Z" fill="#BDBDBD"/>
</g>
<defs>
<clipPath id="clip0_27_479">
<rect width="168" height="80" fill="white" transform="translate(0.166656)"/>
</clipPath>
</defs>
</svg>
