<svg width="232" height="60" viewBox="0 0 232 60" fill="none" xmlns="http://www.w3.org/2000/svg">
<g clip-path="url(#clip0_27_562)">
<path d="M27.8336 0H31.7377C33.0737 0.806667 34.267 1.83333 35.3306 2.98C42.6265 10.5733 49.9938 18.08 57.2963 25.66C59.6569 27.8933 59.6894 32.08 57.3157 34.32C50.0068 41.9 42.646 49.42 35.3435 57C34.2864 58.1333 33.1191 59.1467 31.8415 60H27.8595C25.4081 58.6067 23.6376 56.34 21.679 54.3467C16.4129 48.8933 11.108 43.4733 5.82244 38.0333C4.01304 36.1333 1.97666 34.3867 0.666626 32.0533V28.0267C1.94423 25.6467 3.98062 23.88 5.81596 21.98C11.977 15.6333 18.1705 9.32667 24.2796 2.92C25.3302 1.79333 26.517 0.8 27.8336 0ZM28.1319 0.746667C27.2239 1.14 26.4522 1.78 25.7647 2.48667C18.0991 10.3867 10.414 18.26 2.76138 26.1667C0.640685 28.1333 0.614744 31.8467 2.74841 33.8133C10.3946 41.74 18.0991 49.6133 25.7647 57.5133C26.8413 58.6267 28.2162 59.66 29.831 59.5067C32.4511 59.54 34.2021 57.28 35.8688 55.5333C42.5228 48.5933 49.2869 41.76 55.9538 34.8333C58.6906 32.7267 59.3781 28.3533 56.6542 25.9333C49.1313 18.06 41.4657 10.3333 33.9427 2.46C32.4641 0.886667 30.2201 -0.00666666 28.1319 0.746667Z" fill="#BDBDBD"/>
<path d="M28.0411 1.99316C29.2344 1.99316 30.4276 1.99983 31.6145 1.99983C34.7533 5.17983 37.8274 8.41316 40.9792 11.5665L40.8755 11.6398C39.7146 12.3665 38.5602 13.0998 37.4058 13.8332C34.5782 12.0332 31.1216 11.0465 27.853 12.1198C22.3988 13.4265 18.9422 18.7465 17.5673 24.0132C16.7696 26.6798 16.8604 29.5465 17.6775 32.1998C14.4608 34.2798 12.5995 37.7998 12.0224 41.5998C8.85104 38.3798 5.61488 35.2065 2.61218 31.8132C2.61218 30.6065 2.61218 29.3932 2.61218 28.1865C8.59812 21.6198 15.0056 15.4665 21.0694 8.97316C23.3846 6.63983 25.5831 4.1665 28.0411 1.99316Z" fill="#BDBDBD"/>
<path d="M38.3332 17.2935C37.983 15.3802 40.428 15.1935 41.6667 14.6802C41.096 16.7068 39.3968 18.4135 39.5914 20.6268C39.8054 22.7735 42.6654 23.2135 44.0468 21.9535C45.4541 20.9868 45.5903 18.7868 47.1922 18.1002C50.5451 21.4402 53.8461 24.8468 57.0887 28.3002C56.9655 29.7268 57.5816 31.5002 56.317 32.5468C48.0806 41.0268 39.8832 49.5535 31.6145 58.0002C30.4276 58.0002 29.2408 58.0002 28.0475 58.0068C27.4639 57.4735 26.8802 56.9535 26.303 56.4135C28.6247 55.3935 31.0308 54.2802 32.6586 52.2135C34.9025 49.4135 36.1282 45.6202 35.6289 42.0068C35.3176 40.1402 33.56 38.9468 31.822 38.7735C27.4963 38.3068 23.1252 39.1068 18.7995 38.4735C19.0135 37.4468 19.3897 36.4668 19.889 35.5535C24.0591 37.5468 29.0268 36.2935 32.4122 33.2935C36.8286 29.4268 38.9558 23.1668 38.3332 17.2935Z" fill="#BDBDBD"/>
<path d="M28.0346 17.4532C28.4627 16.4999 29.5003 16.2932 30.3953 16.0532C31.2384 18.6999 30.2461 21.4199 29.63 24.0066C28.9231 26.4266 28.3784 28.9799 26.984 31.1066C26.5365 31.8466 25.7129 32.1732 24.9476 31.7266C24.1759 29.8732 24.805 27.8266 25.1876 25.9532C25.9658 23.0732 26.543 20.0599 28.0346 17.4532Z" fill="#BDBDBD"/>
<path d="M70.3058 19.5868C73.1529 19.0735 76.4539 18.8935 78.847 20.8801C80.5332 22.2668 81.9405 24.4935 81.6032 26.8001C80.2932 25.5335 80.2802 23.4268 78.8859 22.2201C75.6627 19.0201 70.014 19.4335 67.1215 22.8868C64.0994 26.7401 63.9891 32.6601 66.6741 36.7268C69.7092 41.1001 77.0051 41.2135 79.9041 36.6335C81.0195 35.1001 81.2271 33.1935 81.1557 31.3335C78.4579 31.3001 75.76 31.4201 73.0686 31.2401C73.2826 31.1068 73.7171 30.8468 73.9311 30.7135C76.6809 30.5735 79.4306 30.6935 82.1804 30.6935C82.0767 33.8735 82.3685 37.0801 82.0442 40.2468C81.8497 40.3868 81.4605 40.6668 81.266 40.8001C81.1363 39.4001 81.0909 37.9935 81.0779 36.5935C77.9909 42.4001 68.678 42.3668 65.5197 36.6601C62.2511 31.0335 63.6973 21.8468 70.3058 19.5868Z" fill="#BDBDBD"/>
<path d="M84.5605 19.5867C88.4841 19.6934 92.5374 19.0401 96.3638 20.2134C100.534 22.0267 99.9437 29.2801 95.4364 30.2934C96.8437 30.6801 98.2575 31.5734 98.5039 33.1667C98.6855 35.7201 99.0292 38.2667 99.1006 40.8334C97.4663 40.0867 98.0953 38.0801 97.9527 36.6267C97.9981 34.8067 97.8748 32.2401 95.9552 31.4401C92.6153 30.2934 89.0289 30.9601 85.5787 30.7867C85.4814 33.8934 85.7603 37.0134 85.4425 40.1067L84.8653 40.8934C84.2816 39.1001 84.5086 37.2001 84.4827 35.3467C84.5346 30.0934 84.3919 24.8401 84.5605 19.5867ZM85.5722 20.6334C85.5722 23.7534 85.5722 26.8801 85.5722 30.0001C89.2559 29.6467 93.4778 31.0201 96.701 28.6001C98.5104 27.2801 98.0953 24.8067 97.9721 22.8467C97.0642 21.9267 96.1173 20.8467 94.7749 20.7001C91.7138 20.5334 88.6398 20.6801 85.5722 20.6334Z" fill="#BDBDBD"/>
<path d="M108.063 19.5132C109.049 19.2932 109.133 20.7799 109.561 21.3999C111.864 27.8732 114.737 34.1532 116.728 40.7332C114.51 39.3799 114.49 36.0932 113.342 33.8866C109.989 33.7932 106.643 33.8466 103.296 33.8399C102.064 36.0999 101.999 39.2866 99.8074 40.8132C100.819 36.6066 102.875 32.7332 104.315 28.6599C105.592 25.6199 106.591 22.4532 108.063 19.5132ZM103.679 32.7266C106.753 32.7199 109.827 32.7066 112.908 32.7332C111.267 28.9399 110.067 24.9666 108.407 21.1799C106.546 24.8932 105.398 28.9399 103.679 32.7266Z" fill="#BDBDBD"/>
<path d="M117.493 19.5333C121.423 19.8266 125.561 18.86 129.329 20.3533C131.851 21.42 132.208 24.6733 131.495 27.0533C130.84 28.3 129.653 29.0933 128.557 29.88C133.194 30.04 133.784 37.58 129.958 39.4733C126.073 41.3933 121.611 40.2533 117.467 40.5266C117.396 33.5333 117.35 26.5266 117.493 19.5333ZM118.297 20.7466C118.394 23.56 118.349 26.3866 118.355 29.2C121.968 28.9 125.95 30.04 129.296 28.22C132.228 26.3466 131.177 21.3266 127.805 20.74C124.64 20.5266 121.462 20.6 118.297 20.7466ZM118.33 30.04C118.401 33.1866 118.284 36.34 118.42 39.4866C121.689 39.3333 124.983 39.6666 128.246 39.2533C131.573 38.4933 132.947 33.6533 130.185 31.4066C126.728 28.9466 122.247 30.3466 118.33 30.04Z" fill="#BDBDBD"/>
<path d="M140.315 19.58C142.909 19.1466 145.905 18.88 148.194 20.4933C150.931 22.1866 152.436 25.5133 152.546 28.72C152.838 32.0133 152.215 35.58 149.997 38.0933C147.513 40.98 143.246 41.5533 139.841 40.3133C131.806 36.9266 132.033 22.52 140.315 19.58ZM142.156 20.08C133.933 21.3666 132.5 34.0666 138.745 38.6466C141.962 40.8866 146.683 40.4133 149.297 37.4266C152.345 33.6333 152.604 27.8533 150.049 23.72C148.441 21.0466 145.133 19.66 142.156 20.08Z" fill="#BDBDBD"/>
<path d="M154.68 19.6134C158.435 19.6534 162.313 19.0801 165.977 20.1668C169.953 21.6001 170.309 28.0534 166.684 30.1334C163.273 31.9668 159.31 31.0268 155.633 31.2534C155.555 34.2268 155.789 37.2134 155.523 40.1734L154.887 40.8068C154.349 33.7668 154.751 26.6734 154.68 19.6134ZM155.633 20.6334C155.633 23.7934 155.633 26.9534 155.639 30.1134C158.798 30.0201 161.995 30.3668 165.127 29.8734C169.096 28.7734 169.265 21.9468 165.218 20.8401C162.06 20.3801 158.824 20.7468 155.633 20.6334Z" fill="#BDBDBD"/>
<path d="M203.157 20.7735C205.038 18.9735 207.768 19.2735 210.129 19.3335C212.392 19.3602 214.604 20.9335 215.252 23.2002C215.35 24.1135 216.167 25.5269 214.986 26.0735C214.656 24.4935 214.422 22.7335 213.216 21.5669C210.518 19.5002 206.543 19.4869 203.806 21.4735C201.867 22.9469 201.802 26.3602 203.942 27.6669C206.997 29.4002 210.687 29.2935 213.787 30.9269C216.802 32.5469 216.783 37.5269 214.059 39.4202C211.497 41.2602 208.106 41.1469 205.2 40.4269C202.347 39.4535 200.544 36.3869 201.024 33.3269L201.581 33.3335C201.951 35.3402 202.327 37.6735 204.182 38.8335C207.094 40.5802 211.082 40.5269 213.806 38.4002C215.505 36.8135 215.635 33.6869 213.832 32.1269C210.434 29.7335 205.641 30.6735 202.522 27.7535C201.069 25.7869 201.127 22.3402 203.157 20.7735Z" fill="#BDBDBD"/>
<path d="M216.711 19.5269C221.634 19.5602 226.563 19.5602 231.491 19.5269C231.511 19.8069 231.55 20.3602 231.563 20.6335C229.176 20.6335 226.796 20.6335 224.41 20.6335C224.345 27.4002 224.533 34.1735 224.319 40.9402C223.605 40.1135 223.767 38.9935 223.742 37.9802C223.78 32.1935 223.754 26.4135 223.761 20.6335C221.374 20.6335 218.988 20.6402 216.601 20.6202C216.627 20.3469 216.679 19.8002 216.711 19.5269Z" fill="#BDBDBD"/>
<path d="M170.718 19.92L171.405 19.2866C172.021 25.9733 171.496 32.7333 171.671 39.4533C175.433 39.5 179.194 39.36 182.956 39.5066L183.26 40.0533L182.891 40.4866C178.824 40.6333 174.745 40.5333 170.679 40.5133C170.608 33.6533 170.504 26.7733 170.718 19.92Z" fill="#BDBDBD"/>
<path d="M183.578 40.6869C186.218 33.4535 188.974 26.2269 192.093 19.2002C192.716 19.9269 193.254 20.7402 193.54 21.6802C195.634 27.2869 197.8 32.8669 199.954 38.4535C200.252 39.2469 200.427 40.0669 200.479 40.9269C198.507 39.0869 198.326 36.1135 197.048 33.8135C193.715 33.8935 190.381 33.7469 187.048 33.9135C186.308 36.0669 185.556 38.2269 184.557 40.2669L183.578 40.6869ZM187.638 32.7269C190.647 32.7135 193.65 32.7335 196.659 32.7135C195.317 28.7269 193.52 24.9069 192.418 20.8469C190.53 24.6735 189.207 28.7602 187.638 32.7269Z" fill="#BDBDBD"/>
<path d="M17.6516 47.48C21.011 48.7066 24.8957 46.7866 28.1319 48.6866C29.0074 52.0266 24.539 52.0066 22.4248 52.4266C20.8424 50.7666 19.2794 49.0933 17.6516 47.48Z" fill="#BDBDBD"/>
<path d="M17.5673 24.0135C18.9422 18.7468 22.3989 13.4268 27.853 12.1201C31.1216 11.0468 34.5783 12.0335 37.4059 13.8335C38.5603 13.1001 39.7146 12.3668 40.8755 11.6401C43.0935 13.6668 45.0456 15.9868 47.1922 18.1001C45.5903 18.7868 45.4541 20.9868 44.0468 21.9535C42.6655 23.2135 39.8054 22.7735 39.5914 20.6268C39.3969 18.4135 41.096 16.7068 41.6667 14.6801C40.428 15.1935 37.9831 15.3801 38.3333 17.2935C38.9559 23.1668 36.8287 29.4268 32.4122 33.2935C29.0269 36.2935 24.0591 37.5468 19.8891 35.5535C19.3897 36.4668 19.0136 37.4468 18.7995 38.4735C23.1252 39.1068 27.4963 38.3068 31.822 38.7735C33.5601 38.9468 35.3176 40.1401 35.6289 42.0068C36.1283 45.6201 34.9025 49.4135 32.6586 52.2135C31.0308 54.2801 28.6248 55.3935 26.303 56.4135C25.0254 55.0668 23.7154 53.7601 22.4248 52.4268C24.539 52.0068 29.0074 52.0268 28.1319 48.6868C24.8957 46.7868 21.011 48.7068 17.6516 47.4801C15.7839 45.5135 13.8642 43.5935 12.0224 41.6001C12.5996 37.8001 14.4609 34.2801 17.6776 32.2001C16.8604 29.5468 16.7696 26.6801 17.5673 24.0135ZM28.0346 17.4535C26.543 20.0601 25.9658 23.0735 25.1876 25.9535C24.8049 27.8268 24.1759 29.8735 24.9476 31.7268C25.7129 32.1735 26.5365 31.8468 26.984 31.1068C28.3783 28.9801 28.9231 26.4268 29.63 24.0068C30.2461 21.4201 31.2384 18.7001 30.3953 16.0535C29.5003 16.2935 28.4626 16.5001 28.0346 17.4535Z" fill="#F2F2F2"/>
</g>
<defs>
<clipPath id="clip0_27_562">
<rect width="231" height="60" fill="white" transform="translate(0.666626)"/>
</clipPath>
</defs>
</svg>
