<svg width="80" height="100" viewBox="0 0 80 100" fill="none" xmlns="http://www.w3.org/2000/svg">
<path d="M25.6736 7.3955C32.4576 2.69132 41.5744 1.67524 49.2128 4.80386C46.08 6.83601 42.8 8.62379 39.6064 10.5563C37.9392 11.6077 36.0576 12.3698 34.6816 13.836C33.3984 14.6367 31.9264 15.0868 30.6144 15.8489C28.9728 13.0257 27.3088 10.2186 25.6736 7.3955Z" fill="white"/>
<path d="M24.592 26.3312C34.8128 20.3248 45.0208 14.2894 55.232 8.26366C56.6144 9.38264 57.9072 10.6109 59.088 11.9453C52.2784 16.4437 45.456 20.926 38.4576 25.1286C31.1936 29.3891 23.7216 33.2765 16.2816 37.2187C14.24 31.7042 14.1152 25.4887 16.0928 19.9421C17.376 16.1029 19.728 12.7138 22.544 9.84887C22.64 10.9968 22.9088 12.1286 22.8928 13.283C22.7008 14.4244 22.5408 15.5756 22.5664 16.7363C22.6304 20.299 22.544 23.8585 22.6176 27.418C23.2768 27.0611 23.9392 26.701 24.592 26.3312Z" fill="white"/>
<path d="M41.8752 31.074C48.944 26.9646 56.192 23.1769 63.4208 19.3601C65.3952 24.6752 65.5808 30.6527 63.808 36.0482C62.5664 39.9904 60.2816 43.5595 57.3728 46.4695C56.9664 43.5402 57.1456 40.5788 57.1168 37.6302C57.104 34.8103 57.1424 31.9871 57.0912 29.164C56.4256 29.5209 55.76 29.8746 55.1008 30.2412C44.8864 36.2605 34.6752 42.2797 24.4704 48.3119C23.0976 47.1801 21.7856 45.9711 20.6176 44.6206C27.6384 40.0032 34.6528 35.3698 41.8752 31.074Z" fill="white"/>
<path d="M44.992 42.7524C46.288 41.9453 47.7664 41.4887 49.088 40.7203C50.736 43.5402 52.3904 46.3569 54.0352 49.1801C47.2448 53.8746 38.1344 54.9003 30.496 51.7685C33.6192 49.7396 36.8928 47.9582 40.0768 46.0289C41.744 44.9807 43.616 44.209 44.992 42.7524Z" fill="white"/>
<path d="M5.18721 60.8296C7.30881 59.0514 10.6464 59.4469 12.4416 61.5048C12.1408 61.8424 11.84 62.1801 11.5424 62.5177C10.288 60.8875 7.77601 60.508 6.12481 61.7363C3.89121 63.4759 4.26561 67.7653 7.07201 68.7074C9.23201 69.5563 11.9456 68.1254 12.1632 65.7267C10.432 65.6785 8.69761 65.7138 6.96641 65.7042C6.96641 65.2605 6.96641 64.8135 6.96641 64.3698C8.70401 64.373 10.4384 64.3762 12.176 64.3698C12.6112 64.8071 13.0528 65.2444 13.4976 65.6752C13.2672 69.1125 9.15521 71.3601 6.14721 69.7331C2.79361 68.2251 2.32001 63.0547 5.18721 60.8296Z" fill="white"/>
<path d="M33.312 59.8199C36.08 59.1125 39.152 61.0932 39.6384 63.9228C40.3584 66.91 37.9136 70.1286 34.864 70.2347C32.1536 70.5145 29.5392 68.3151 29.2544 65.6109C28.88 63.0064 30.768 60.3698 33.312 59.8199ZM33.8976 61.045C31.4016 61.2733 29.9712 64.1736 30.848 66.418C31.5392 68.7685 34.656 69.6206 36.6176 68.3376C38.8512 66.9614 38.9152 63.2637 36.8128 61.7395C35.9776 61.135 34.9088 60.9196 33.8976 61.045Z" fill="white"/>
<path d="M61.0016 59.9518C61.488 59.955 61.9744 59.9582 62.4608 59.9614C63.6032 63.3022 64.7264 66.6463 65.888 69.9807C65.4272 69.9871 64.9664 69.9936 64.5088 70C64.2016 69.1318 63.904 68.2572 63.6256 67.3794C62.3584 67.3666 61.0944 67.373 59.8304 67.3762C59.5488 68.254 59.2448 69.1254 58.9536 70C58.4928 69.9904 58.0288 69.9839 57.5712 69.9807C58.72 66.6399 59.8528 63.2926 61.0016 59.9518ZM61.7344 61.8103C61.2192 63.209 60.7744 64.6367 60.272 66.0386C61.2352 66.0482 62.1984 66.045 63.1616 66.045C62.6624 64.6399 62.224 63.2154 61.7344 61.8103Z" fill="white"/>
<path d="M19.0912 59.9518C19.5648 59.9582 20.0416 59.9614 20.5184 59.9678C20.5088 62.8682 20.5152 65.7653 20.512 68.6656C21.9072 68.6656 23.2992 68.6656 24.6912 68.6656C24.6912 68.9968 24.6912 69.6559 24.6912 69.9839C22.8256 69.9904 20.9568 69.9807 19.0912 69.9936C19.0912 66.6463 19.0912 63.299 19.0912 59.9518Z" fill="white"/>
<path d="M45.6448 59.9582C47.584 60.1447 49.8752 59.4212 51.5136 60.791C52.7744 61.8842 52.4864 63.9068 51.216 64.8682C51.9392 65.4309 52.5568 66.2283 52.4608 67.2026C52.5344 68.6174 51.2928 69.7781 49.9584 69.9293C48.5216 70.0579 47.0816 69.9518 45.6448 69.9936C45.6512 66.6463 45.648 63.3023 45.6448 59.9582ZM47.0752 61.2797C47.0656 62.2637 47.072 63.2476 47.0624 64.2347C48.1024 64.1833 49.1936 64.3987 50.1952 64.0514C51.1296 63.6077 51.0336 62.4662 50.6432 61.6785C49.5328 61.1125 48.272 61.3022 47.0752 61.2797ZM47.0784 65.5563C47.0656 66.5916 47.0688 67.627 47.0688 68.6656C48.048 68.6367 49.0464 68.7621 50.0128 68.5659C51.1968 68.2379 51.4976 66.4405 50.4192 65.8103C49.3664 65.3601 48.1856 65.6238 47.0784 65.5563Z" fill="white"/>
<path d="M71.5168 59.9518C71.984 59.955 72.448 59.9582 72.9184 59.9614C72.9056 62.8617 72.9152 65.7621 72.912 68.6624C74.304 68.6688 75.696 68.6656 77.088 68.6624C77.088 69.1061 77.088 69.5466 77.088 69.9904C75.232 69.9839 73.3728 69.9807 71.5168 69.9936C71.52 66.6463 71.52 63.299 71.5168 59.9518Z" fill="white"/>
<path d="M7.40481 73.7524C7.90721 73.7588 8.40961 73.7621 8.91201 73.7685C10.3424 76.2347 11.712 78.7331 13.1904 81.1672C13.2192 78.6977 13.2 76.2283 13.2 73.7588C13.6672 73.7556 14.1344 73.7556 14.6016 73.7556C14.5952 77.09 14.5952 80.4244 14.6016 83.7588C14.0864 83.7556 13.5712 83.7524 13.056 83.7556C11.6128 81.2283 10.2112 78.6752 8.76161 76.1543C8.72321 78.6913 8.75521 81.2283 8.74881 83.7653C8.26881 83.7556 7.78881 83.746 7.30881 83.7395C7.47841 80.4116 7.19681 77.0804 7.40481 73.7524Z" fill="white"/>
<path d="M35.696 74.1125C37.5712 72.6849 40.7712 73.8231 40.9568 76.3055C40.6112 76.3183 39.9168 76.344 39.568 76.3569C39.264 75.4437 38.4704 74.6045 37.424 74.8006C36.2336 74.8135 35.4848 76.4051 36.3936 77.2637C37.5872 78.2862 39.5296 77.8682 40.5408 79.2026C41.808 80.6463 41.0208 83.1158 39.2608 83.7331C37.2576 84.6334 34.6144 83.3183 34.2816 81.0932C34.7296 80.9003 35.1808 80.7074 35.6288 80.508C35.8144 81.4695 36.368 82.4759 37.4272 82.627C38.7776 83.0772 40.4736 81.5113 39.504 80.1865C38.576 79.2219 37.0176 79.4759 35.9584 78.6913C34.3456 77.7942 34.1216 75.1576 35.696 74.1125Z" fill="white"/>
<path d="M41.7664 73.7492C44.0864 73.7749 46.4096 73.7588 48.7296 73.7588C48.7296 74.0932 48.7264 74.7621 48.7264 75.0965C47.7888 75.09 46.8512 75.09 45.9136 75.0836C45.92 77.9775 45.9136 80.8682 45.9168 83.7621C45.456 83.7588 44.9984 83.7556 44.5408 83.7524C44.5472 80.8649 44.5408 77.9775 44.544 75.0932C43.6192 75.0868 42.6912 75.09 41.7664 75.0997C41.7664 74.6495 41.7664 74.1994 41.7664 73.7492Z" fill="white"/>
<path d="M64.9376 73.7717C65.424 73.7621 65.9136 73.7556 66.4032 73.746C67.5968 77.0675 68.672 80.4309 69.8496 83.7588C69.3824 83.7556 68.9152 83.7524 68.448 83.7524C68.1568 82.8746 67.8496 82.0064 67.5584 81.1318C66.3104 81.1351 65.0656 81.1383 63.8176 81.1254C63.5072 82.0032 63.216 82.8907 62.8992 83.7685C62.5536 83.7621 61.8624 83.7556 61.5168 83.7524C62.6912 80.4373 63.8048 77.0997 64.9376 73.7717ZM64.2496 79.8135C65.2064 79.8135 66.1632 79.8135 67.12 79.8199C66.624 78.418 66.208 76.9871 65.6608 75.6045C65.1968 77.0097 64.7168 78.4116 64.2496 79.8135Z" fill="white"/>
<path d="M3.57441 73.7621C4.03201 73.7588 4.49281 73.7556 4.95041 73.7556C4.94721 77.09 4.95041 80.4244 4.95041 83.7621C4.48961 83.7556 4.03201 83.7556 3.57121 83.7524C3.57441 80.4212 3.57121 77.0932 3.57441 73.7621Z" fill="white"/>
<path d="M16.8224 73.7588C18.72 73.7749 20.88 73.508 22.4224 74.881C24.8672 76.7781 24.7744 81.0032 22.2336 82.7781C20.6912 83.9904 18.6496 83.7363 16.8224 83.7556C16.8288 80.4244 16.832 77.09 16.8224 73.7588ZM18.2112 75.0868C18.2144 77.537 18.2112 79.9839 18.2112 82.4341C19.184 82.4276 20.2144 82.4759 21.0976 81.9904C23.1424 80.8875 23.3536 77.7331 21.8656 76.0836C20.9312 75.09 19.4848 75.0225 18.2112 75.0868Z" fill="white"/>
<path d="M25.8304 73.7524C26.304 73.7588 26.7776 73.7653 27.248 73.7749C27.296 76.3505 27.1328 78.9389 27.328 81.5048C27.92 83.418 31.1776 82.9196 31.2384 80.9357C31.2928 78.5402 31.2416 76.1415 31.2608 73.746C31.7312 73.7556 32.2048 73.7685 32.6784 73.7814C32.6176 77.1254 32.7904 80.4759 32.5792 83.8135C32.0608 83.7814 31.5168 83.7621 31.2928 83.2058C30.3264 83.8939 29.0528 84.3022 27.9008 83.8682C26.56 83.4855 25.7632 82.045 25.8304 80.701C25.8304 78.3826 25.8336 76.0675 25.8304 73.7524Z" fill="white"/>
<path d="M50.016 73.7556C51.4848 73.8103 52.9632 73.6688 54.4256 73.8457C56.0064 74.1672 57.0208 75.926 56.448 77.463C55.9744 78.6849 54.6592 79.3151 53.4176 79.3891C54.5952 80.836 55.7952 82.2669 56.96 83.7267C56.368 83.746 55.7792 83.7556 55.1904 83.7556C53.9616 82.1929 52.7616 80.6013 51.4368 79.1158C51.3152 80.6592 51.3984 82.2122 51.376 83.7588C51.0368 83.7588 50.3552 83.7588 50.016 83.7588C50.016 80.4244 50.016 77.09 50.016 73.7556ZM51.3728 75.0868C51.376 76.0643 51.376 77.0418 51.3728 78.0193C52.2784 78 53.1872 78.0675 54.0864 77.9582C55.0528 77.7588 55.6224 76.4437 54.9088 75.672C54.032 74.6559 52.5312 75.2444 51.3728 75.0868Z" fill="white"/>
<path d="M58.5024 73.7717C58.976 73.7653 59.4528 73.7588 59.9296 73.7524C59.9264 77.0868 59.9296 80.4244 59.9296 83.7621C59.4528 83.7556 58.976 83.7492 58.5024 83.746C58.5056 80.4212 58.5056 77.0965 58.5024 73.7717Z" fill="white"/>
<path d="M71.2512 73.7524C71.7312 73.7588 72.2112 73.7653 72.6944 73.7717C72.688 76.6559 72.6944 79.5402 72.688 82.4277C74.0832 82.4244 75.4784 82.4277 76.8768 82.4244C76.8736 82.865 76.8736 83.3087 76.8768 83.7556C75.0016 83.7524 73.1264 83.746 71.2512 83.7588C71.2576 80.4244 71.2576 77.09 71.2512 73.7524Z" fill="white"/>
<path d="M3.42401 87.9325C4.58561 86.0772 7.65761 86.1318 8.85761 87.9196C9.16801 88.3601 9.23201 88.9068 9.38881 89.4084C8.92161 89.4084 8.45441 89.4084 7.98721 89.4116C7.69921 88.582 7.04001 87.7396 6.06081 87.8714C5.12641 87.7653 4.51201 88.5788 4.32961 89.4051C4.86081 91.4244 7.38241 90.7588 8.6592 91.9325C10.1792 93.1672 9.72481 95.9068 7.94561 96.6752C5.89441 97.7781 3.09761 96.4695 2.67841 94.1511C3.14561 93.9646 3.60961 93.7814 4.08001 93.6077C4.18881 94.9068 5.38881 95.9936 6.71041 95.6881C7.92641 95.6495 8.74241 93.9904 7.82081 93.0965C6.90561 92.3794 5.62241 92.4791 4.63041 91.8875C3.20961 91.2219 2.57281 89.283 3.42401 87.9325Z" fill="white"/>
<path d="M14.5504 86.7299C16.0128 86.3569 17.648 86.5402 18.9088 87.4148C21.0752 88.7974 21.9296 91.8875 20.7008 94.1704C19.5296 96.7235 16.1664 97.836 13.6928 96.5563C11.4432 95.5145 10.1952 92.717 10.9472 90.3408C11.4304 88.6174 12.8416 87.2219 14.5504 86.7299ZM14.8704 88C12.3712 88.6013 11.3984 91.8521 12.6688 93.9518C13.776 95.9164 16.6688 96.3215 18.4032 94.9904C20.3584 93.4952 20.3488 90.1029 18.384 88.6206C17.3984 87.8489 16.0544 87.7267 14.8704 88Z" fill="white"/>
<path d="M53.5744 86.701C55.8048 86.1061 58.3104 87.1157 59.456 89.135C60.9696 91.5498 60.0224 95.0321 57.536 96.3891C54.9824 97.9646 51.2768 96.7653 50.128 93.9775C48.7424 91.1511 50.528 87.4148 53.5744 86.701ZM53.8816 87.9775C51.2256 88.5434 50.2272 92.1157 51.7696 94.209C53.0304 96.0482 55.9072 96.2669 57.5392 94.8199C59.2704 93.2315 59.1872 90.0675 57.3152 88.6238C56.3488 87.8778 55.0496 87.7299 53.8816 87.9775Z" fill="white"/>
<path d="M72.2528 87.1125C74.1376 85.7814 77.3216 86.9325 77.392 89.4244C76.9184 89.3955 76.448 89.3698 75.9776 89.3473C75.7376 88.418 74.8864 87.6913 73.8944 87.8778C72.7744 87.8585 71.968 89.3473 72.7648 90.2154C73.7728 91.2894 75.4976 90.9357 76.6176 91.8585C78.2016 93.0579 77.8208 95.8457 76.0256 96.6527C73.9776 97.791 71.1456 96.492 70.72 94.1608C71.1776 93.9646 71.6384 93.7717 72.096 93.5756C72.3008 94.1415 72.3968 94.8103 72.9056 95.2026C73.8176 96.0611 75.7536 95.8875 76.1568 94.5756C76.4896 93.8939 76.0224 93.0579 75.3728 92.7846C74.224 92.3408 72.8608 92.2926 71.9552 91.3633C70.7072 90.2733 70.8096 87.9936 72.2528 87.1125Z" fill="white"/>
<path d="M22.9536 86.7588C23.424 86.7878 23.8976 86.8232 24.368 86.8617C24.3616 89.7299 24.368 92.5949 24.3648 95.463C25.6672 95.4727 26.9728 95.4116 28.2752 95.4823C28.8096 95.6688 28.4448 96.4116 28.5632 96.8424C26.6912 96.8424 24.8224 96.8392 22.9504 96.8424C22.9504 93.4823 22.9472 90.119 22.9536 86.7588Z" fill="white"/>
<path d="M29.9168 86.7814C30.368 86.7814 30.816 86.7846 31.2672 86.7846C31.3088 89.2765 31.216 91.7717 31.3088 94.2604C31.5968 96.3215 34.9216 96.1897 35.2896 94.2379C35.3888 91.7556 35.2928 89.2669 35.3376 86.7781C35.7888 86.7814 36.24 86.7846 36.6944 86.7878C36.6976 90.164 36.72 93.5402 36.6816 96.9164C36.1248 96.9068 35.616 96.7717 35.3152 96.2701C33.6672 97.7267 30.5472 97.1865 30.0224 94.865C29.7696 92.1865 29.9808 89.4727 29.9168 86.7814Z" fill="white"/>
<path d="M37.9904 86.7846C40.3072 86.7846 42.6208 86.7878 44.9376 86.7846C44.9376 87.2379 44.9408 87.6978 44.9408 88.1543C44.016 88.1511 43.0944 88.1511 42.1728 88.1479C42.1696 91.045 42.176 93.9453 42.1696 96.8424C41.696 96.8424 41.2224 96.8425 40.752 96.8457C40.7456 93.9421 40.752 91.0418 40.7488 88.1415C39.8272 88.1511 38.9056 88.1511 37.984 88.1543C37.9872 87.6945 37.9904 87.2379 37.9904 86.7846Z" fill="white"/>
<path d="M46.448 86.7814C46.8992 86.7814 47.3504 86.7846 47.8048 86.7878C47.808 90.1383 47.8048 93.492 47.8048 96.8424C47.3504 96.8424 46.8992 96.8424 46.448 96.8457C46.3488 93.492 46.2976 90.1318 46.448 86.7814Z" fill="white"/>
<path d="M61.8816 86.7878C62.3872 86.7846 62.8928 86.7846 63.3984 86.7814C64.8544 89.2572 66.2208 91.7878 67.7184 94.2379C67.7664 91.7524 67.7216 89.2701 67.7408 86.7846C68.1824 86.7846 68.624 86.7846 69.0656 86.7846C69.0848 90.1415 69.0848 93.5016 69.0656 96.8585C68.4768 96.7653 67.6128 97.119 67.3408 96.3955C65.9648 94.0129 64.6656 91.5884 63.2704 89.2187C63.2352 91.7588 63.2736 94.3023 63.2512 96.8424C62.9088 96.8457 62.224 96.8457 61.8816 96.8457C61.8752 93.492 61.8752 90.1383 61.8816 86.7878Z" fill="white"/>
<path d="M49.2128 4.80386C50.112 5.22829 51.0176 5.63665 51.9008 6.09325C46.512 8.50161 41.1648 10.9968 35.792 13.4373C35.4272 13.5884 35.0592 13.7203 34.6816 13.836C36.0576 12.3698 37.9392 11.6077 39.6064 10.5563C42.8 8.62379 46.08 6.83601 49.2128 4.80386Z" fill="#D8D8D8"/>
<path d="M22.8928 13.283C23.6128 17.6077 24.0384 21.9807 24.592 26.3312C23.9392 26.701 23.2768 27.0611 22.6176 27.418C22.544 23.8585 22.6304 20.299 22.5664 16.7363C22.5408 15.5756 22.7008 14.4244 22.8928 13.283Z" fill="#D8D8D8"/>
<path d="M55.1008 30.2412C55.76 29.8746 56.4256 29.5209 57.0912 29.164C57.1424 31.9871 57.104 34.8103 57.1168 37.6302C57.1456 40.5788 56.9664 43.5402 57.3728 46.4695L57.3792 46.5402C57.3152 46.5531 57.1872 46.5788 57.1232 46.5884C56.4896 41.135 55.76 35.6945 55.1008 30.2412Z" fill="#D8D8D8"/>
<path d="M43.872 43.1511C44.2368 43 44.6112 42.865 44.992 42.7524C43.616 44.209 41.744 44.9807 40.0768 46.0289C36.8928 47.9582 33.6192 49.7395 30.496 51.7685C29.5904 51.3537 28.688 50.9325 27.7984 50.4855C33.1712 48.074 38.512 45.5916 43.872 43.1511Z" fill="#D8D8D8"/>
</svg>
