<svg width="1402" height="96" viewBox="0 0 1402 96" fill="none" xmlns="http://www.w3.org/2000/svg">
<path d="M22.4 19.1998V12.7998C13.429 12.7998 6.39999 19.2696 6.39999 28.7998V51.1998H28.8V28.7998H16C16 19.1998 22.4 19.1998 22.4 19.1998ZM44.8 28.7998C44.8 19.1998 51.2 19.1998 51.2 19.1998V12.7998C42.229 12.7998 35.2 19.2696 35.2 28.7998V51.1998H57.6V28.7998H44.8Z" fill="#E89E4A"/>
<path d="M128.976 21.912H140.112V25.336H128.976V21.912ZM129.296 31.512H141.936V35H125.136V12.6H141.488V16.088H129.296V31.512ZM153.745 35.224C151.953 35.224 150.353 34.8507 148.945 34.104C147.559 33.336 146.471 32.2907 145.681 30.968C144.892 29.6453 144.497 28.1413 144.497 26.456C144.497 24.7493 144.892 23.2453 145.681 21.944C146.471 20.6213 147.559 19.5867 148.945 18.84C150.353 18.0933 151.953 17.72 153.745 17.72C155.409 17.72 156.871 18.0613 158.129 18.744C159.409 19.4053 160.38 20.3867 161.041 21.688L157.969 23.48C157.457 22.6693 156.828 22.072 156.081 21.688C155.356 21.304 154.567 21.112 153.713 21.112C152.732 21.112 151.847 21.3253 151.057 21.752C150.268 22.1787 149.649 22.7973 149.201 23.608C148.753 24.3973 148.529 25.3467 148.529 26.456C148.529 27.5653 148.753 28.5253 149.201 29.336C149.649 30.1253 150.268 30.7333 151.057 31.16C151.847 31.5867 152.732 31.8 153.713 31.8C154.567 31.8 155.356 31.608 156.081 31.224C156.828 30.84 157.457 30.2427 157.969 29.432L161.041 31.224C160.38 32.504 159.409 33.496 158.129 34.2C156.871 34.8827 155.409 35.224 153.745 35.224ZM161.661 34.968L161.853 31.608C162.002 31.6293 162.141 31.6507 162.269 31.672C162.397 31.6933 162.514 31.704 162.621 31.704C163.282 31.704 163.794 31.5013 164.157 31.096C164.519 30.6907 164.786 30.1467 164.957 29.464C165.149 28.76 165.277 27.9813 165.341 27.128C165.426 26.2533 165.49 25.3787 165.533 24.504L165.821 17.912H179.645V35H175.645V20.216L176.573 21.304H168.445L169.309 20.184L169.085 24.696C169.021 26.2107 168.893 27.6187 168.701 28.92C168.53 30.2 168.253 31.32 167.869 32.28C167.506 33.24 166.994 33.9867 166.333 34.52C165.693 35.0533 164.871 35.32 163.869 35.32C163.549 35.32 163.197 35.288 162.813 35.224C162.45 35.16 162.066 35.0747 161.661 34.968ZM185.032 35V17.912H189.032V29.176L198.472 17.912H202.12V35H198.12V23.736L188.712 35H185.032ZM216.344 35V17.912H224.696C226.766 17.912 228.387 18.296 229.56 19.064C230.755 19.832 231.352 20.92 231.352 22.328C231.352 23.7147 230.798 24.8027 229.688 25.592C228.579 26.36 227.107 26.744 225.272 26.744L225.752 25.752C227.822 25.752 229.358 26.136 230.36 26.904C231.384 27.6507 231.896 28.7493 231.896 30.2C231.896 31.7147 231.331 32.8987 230.2 33.752C229.07 34.584 227.352 35 225.048 35H216.344ZM220.152 32.088H224.728C225.816 32.088 226.638 31.9173 227.192 31.576C227.747 31.2133 228.024 30.6693 228.024 29.944C228.024 29.176 227.768 28.6107 227.256 28.248C226.744 27.8853 225.944 27.704 224.856 27.704H220.152V32.088ZM220.152 25.048H224.344C225.368 25.048 226.136 24.8667 226.648 24.504C227.182 24.12 227.448 23.5867 227.448 22.904C227.448 22.2 227.182 21.6773 226.648 21.336C226.136 20.9947 225.368 20.824 224.344 20.824H220.152V25.048ZM253.405 35V17.912H257.405V35H253.405ZM244.477 23.544C246.674 23.544 248.338 24.0347 249.469 25.016C250.621 25.9973 251.197 27.384 251.197 29.176C251.197 31.032 250.557 32.4827 249.277 33.528C248.018 34.552 246.226 35.0533 243.901 35.032L236.157 35V17.912H240.157V23.512L244.477 23.544ZM243.549 32.088C244.722 32.1093 245.618 31.864 246.237 31.352C246.855 30.84 247.165 30.0933 247.165 29.112C247.165 28.1307 246.855 27.4267 246.237 27C245.639 26.552 244.743 26.3173 243.549 26.296L240.157 26.264V32.056L243.549 32.088ZM277.034 35.288C278.612 35.288 280.01 35.064 281.226 34.616C282.463 34.168 283.434 33.5493 284.138 32.76C284.842 31.9493 285.194 31.0213 285.194 29.976C285.194 28.6747 284.65 27.6507 283.562 26.904C282.474 26.136 280.98 25.752 279.082 25.752L278.954 26.616C280.063 26.616 281.044 26.4347 281.898 26.072C282.772 25.7093 283.455 25.208 283.946 24.568C284.458 23.9067 284.714 23.1707 284.714 22.36C284.714 21.3787 284.362 20.5253 283.658 19.8C282.954 19.0747 281.994 18.52 280.778 18.136C279.562 17.752 278.175 17.592 276.618 17.656C275.594 17.6773 274.559 17.8267 273.514 18.104C272.49 18.36 271.434 18.7333 270.346 19.224L271.37 22.168C272.308 21.7627 273.226 21.4533 274.122 21.24C275.039 21.0267 275.924 20.92 276.778 20.92C277.588 20.92 278.282 21.0053 278.858 21.176C279.434 21.3253 279.871 21.56 280.17 21.88C280.49 22.1787 280.65 22.5307 280.65 22.936C280.65 23.3413 280.522 23.6933 280.266 23.992C280.01 24.2907 279.636 24.5147 279.146 24.664C278.676 24.8133 278.1 24.888 277.418 24.888H274.442V27.576H277.738C278.826 27.576 279.658 27.7573 280.234 28.12C280.831 28.4613 281.13 28.9733 281.13 29.656C281.13 30.1253 280.948 30.5413 280.586 30.904C280.244 31.2667 279.754 31.544 279.114 31.736C278.474 31.9067 277.706 31.992 276.81 31.992C275.764 31.992 274.719 31.864 273.674 31.608C272.628 31.352 271.69 30.9893 270.858 30.52L269.738 33.496C270.762 34.072 271.903 34.52 273.161 34.84C274.442 35.1387 275.732 35.288 277.034 35.288ZM299.681 35V31.544L299.457 30.808V24.76C299.457 23.5867 299.105 22.68 298.401 22.04C297.697 21.3787 296.63 21.048 295.201 21.048C294.241 21.048 293.292 21.1973 292.353 21.496C291.436 21.7947 290.657 22.2107 290.017 22.744L288.449 19.832C289.366 19.128 290.454 18.6053 291.713 18.264C292.993 17.9013 294.316 17.72 295.681 17.72C298.156 17.72 300.065 18.3173 301.409 19.512C302.774 20.6853 303.457 22.5093 303.457 24.984V35H299.681ZM294.305 35.224C293.025 35.224 291.905 35.0107 290.945 34.584C289.985 34.136 289.238 33.528 288.705 32.76C288.193 31.9707 287.937 31.0853 287.937 30.104C287.937 29.144 288.161 28.28 288.609 27.512C289.078 26.744 289.836 26.136 290.881 25.688C291.926 25.24 293.313 25.016 295.041 25.016H300.001V27.672H295.329C293.964 27.672 293.046 27.896 292.577 28.344C292.108 28.7707 291.873 29.304 291.873 29.944C291.873 30.6693 292.161 31.2453 292.737 31.672C293.313 32.0987 294.113 32.312 295.137 32.312C296.118 32.312 296.993 32.088 297.761 31.64C298.55 31.192 299.116 30.5307 299.457 29.656L300.129 32.056C299.745 33.0587 299.052 33.8373 298.049 34.392C297.068 34.9467 295.82 35.224 294.305 35.224ZM308.407 35V17.912H312.407V29.176L321.847 17.912H325.495V35H321.495V23.736L312.087 35H308.407ZM330.876 35V17.912H334.876V24.856H343.484V17.912H347.484V35H343.484V28.248H334.876V35H330.876ZM356.396 35V20.344L357.324 21.304H350.38V17.912H366.38V21.304H359.468L360.396 20.344V35H356.396ZM376.5 35.224C374.601 35.224 372.937 34.8507 371.508 34.104C370.1 33.336 369.001 32.2907 368.212 30.968C367.444 29.6453 367.06 28.1413 367.06 26.456C367.06 24.7493 367.433 23.2453 368.18 21.944C368.948 20.6213 369.993 19.5867 371.316 18.84C372.66 18.0933 374.185 17.72 375.892 17.72C377.556 17.72 379.038 18.0827 380.34 18.808C381.641 19.5333 382.665 20.5573 383.412 21.88C384.158 23.2027 384.532 24.76 384.532 26.552C384.532 26.7227 384.521 26.9147 384.5 27.128C384.5 27.3413 384.489 27.544 384.468 27.736H370.228V25.08H382.356L380.788 25.912C380.809 24.9307 380.606 24.0667 380.18 23.32C379.753 22.5733 379.166 21.9867 378.42 21.56C377.694 21.1333 376.852 20.92 375.892 20.92C374.91 20.92 374.046 21.1333 373.3 21.56C372.574 21.9867 371.998 22.584 371.572 23.352C371.166 24.0987 370.964 24.984 370.964 26.008V26.648C370.964 27.672 371.198 28.5787 371.668 29.368C372.137 30.1573 372.798 30.7653 373.652 31.192C374.505 31.6187 375.486 31.832 376.596 31.832C377.556 31.832 378.42 31.6827 379.188 31.384C379.956 31.0853 380.638 30.616 381.236 29.976L383.38 32.44C382.612 33.336 381.641 34.0293 380.468 34.52C379.316 34.9893 377.993 35.224 376.5 35.224ZM398.379 35.224C396.992 35.224 395.723 34.904 394.571 34.264C393.44 33.624 392.533 32.664 391.851 31.384C391.189 30.0827 390.859 28.44 390.859 26.456C390.859 24.4507 391.179 22.808 391.819 21.528C392.48 20.248 393.376 19.2987 394.507 18.68C395.637 18.04 396.928 17.72 398.379 17.72C400.064 17.72 401.547 18.0827 402.827 18.808C404.128 19.5333 405.152 20.5467 405.899 21.848C406.667 23.1493 407.051 24.6853 407.051 26.456C407.051 28.2267 406.667 29.7733 405.899 31.096C405.152 32.3973 404.128 33.4107 402.827 34.136C401.547 34.8613 400.064 35.224 398.379 35.224ZM388.907 41.208V17.912H392.715V21.944L392.587 26.488L392.907 31.032V41.208H388.907ZM397.931 31.8C398.891 31.8 399.744 31.5867 400.491 31.16C401.259 30.7333 401.867 30.1147 402.315 29.304C402.763 28.4933 402.987 27.544 402.987 26.456C402.987 25.3467 402.763 24.3973 402.315 23.608C401.867 22.7973 401.259 22.1787 400.491 21.752C399.744 21.3253 398.891 21.112 397.931 21.112C396.971 21.112 396.107 21.3253 395.339 21.752C394.571 22.1787 393.963 22.7973 393.515 23.608C393.067 24.3973 392.843 25.3467 392.843 26.456C392.843 27.544 393.067 28.4933 393.515 29.304C393.963 30.1147 394.571 30.7333 395.339 31.16C396.107 31.5867 396.971 31.8 397.931 31.8ZM419 35.224C417.101 35.224 415.437 34.8507 414.008 34.104C412.6 33.336 411.501 32.2907 410.712 30.968C409.944 29.6453 409.56 28.1413 409.56 26.456C409.56 24.7493 409.933 23.2453 410.68 21.944C411.448 20.6213 412.493 19.5867 413.816 18.84C415.16 18.0933 416.685 17.72 418.392 17.72C420.056 17.72 421.538 18.0827 422.84 18.808C424.141 19.5333 425.165 20.5573 425.912 21.88C426.658 23.2027 427.032 24.76 427.032 26.552C427.032 26.7227 427.021 26.9147 427 27.128C427 27.3413 426.989 27.544 426.968 27.736H412.728V25.08H424.856L423.288 25.912C423.309 24.9307 423.106 24.0667 422.68 23.32C422.253 22.5733 421.666 21.9867 420.92 21.56C420.194 21.1333 419.352 20.92 418.392 20.92C417.41 20.92 416.546 21.1333 415.8 21.56C415.074 21.9867 414.498 22.584 414.072 23.352C413.666 24.0987 413.464 24.984 413.464 26.008V26.648C413.464 27.672 413.698 28.5787 414.168 29.368C414.637 30.1573 415.298 30.7653 416.152 31.192C417.005 31.6187 417.986 31.832 419.096 31.832C420.056 31.832 420.92 31.6827 421.688 31.384C422.456 31.0853 423.138 30.616 423.736 29.976L425.88 32.44C425.112 33.336 424.141 34.0293 422.968 34.52C421.816 34.9893 420.493 35.224 419 35.224ZM439.183 35.224C437.391 35.224 435.791 34.8507 434.383 34.104C432.996 33.336 431.908 32.2907 431.119 30.968C430.329 29.6453 429.935 28.1413 429.935 26.456C429.935 24.7493 430.329 23.2453 431.119 21.944C431.908 20.6213 432.996 19.5867 434.383 18.84C435.791 18.0933 437.391 17.72 439.183 17.72C440.847 17.72 442.308 18.0613 443.567 18.744C444.847 19.4053 445.817 20.3867 446.479 21.688L443.407 23.48C442.895 22.6693 442.265 22.072 441.519 21.688C440.793 21.304 440.004 21.112 439.151 21.112C438.169 21.112 437.284 21.3253 436.495 21.752C435.705 22.1787 435.087 22.7973 434.639 23.608C434.191 24.3973 433.967 25.3467 433.967 26.456C433.967 27.5653 434.191 28.5253 434.639 29.336C435.087 30.1253 435.705 30.7333 436.495 31.16C437.284 31.5867 438.169 31.8 439.151 31.8C440.004 31.8 440.793 31.608 441.519 31.224C442.265 30.84 442.895 30.2427 443.407 29.432L446.479 31.224C445.817 32.504 444.847 33.496 443.567 34.2C442.308 34.8827 440.847 35.224 439.183 35.224ZM457.367 35.224C455.617 35.224 454.06 34.8507 452.695 34.104C451.329 33.336 450.252 32.2907 449.463 30.968C448.673 29.6453 448.279 28.1413 448.279 26.456C448.279 24.7493 448.673 23.2453 449.463 21.944C450.252 20.6213 451.329 19.5867 452.695 18.84C454.06 18.0933 455.617 17.72 457.367 17.72C459.137 17.72 460.705 18.0933 462.071 18.84C463.457 19.5867 464.535 20.6107 465.303 21.912C466.092 23.2133 466.487 24.728 466.487 26.456C466.487 28.1413 466.092 29.6453 465.303 30.968C464.535 32.2907 463.457 33.336 462.071 34.104C460.705 34.8507 459.137 35.224 457.367 35.224ZM457.367 31.8C458.348 31.8 459.223 31.5867 459.991 31.16C460.759 30.7333 461.356 30.1147 461.783 29.304C462.231 28.4933 462.455 27.544 462.455 26.456C462.455 25.3467 462.231 24.3973 461.783 23.608C461.356 22.7973 460.759 22.1787 459.991 21.752C459.223 21.3253 458.359 21.112 457.399 21.112C456.417 21.112 455.543 21.3253 454.775 21.752C454.028 22.1787 453.431 22.7973 452.983 23.608C452.535 24.3973 452.311 25.3467 452.311 26.456C452.311 27.544 452.535 28.4933 452.983 29.304C453.431 30.1147 454.028 30.7333 454.775 31.16C455.543 31.5867 456.407 31.8 457.367 31.8ZM470.438 35V17.912H478.79C480.859 17.912 482.481 18.296 483.654 19.064C484.849 19.832 485.446 20.92 485.446 22.328C485.446 23.7147 484.891 24.8027 483.782 25.592C482.673 26.36 481.201 26.744 479.366 26.744L479.846 25.752C481.915 25.752 483.451 26.136 484.454 26.904C485.478 27.6507 485.99 28.7493 485.99 30.2C485.99 31.7147 485.425 32.8987 484.294 33.752C483.163 34.584 481.446 35 479.142 35H470.438ZM474.246 32.088H478.822C479.91 32.088 480.731 31.9173 481.286 31.576C481.841 31.2133 482.118 30.6693 482.118 29.944C482.118 29.176 481.862 28.6107 481.35 28.248C480.838 27.8853 480.038 27.704 478.95 27.704H474.246V32.088ZM474.246 25.048H478.438C479.462 25.048 480.23 24.8667 480.742 24.504C481.275 24.12 481.542 23.5867 481.542 22.904C481.542 22.2 481.275 21.6773 480.742 21.336C480.23 20.9947 479.462 20.824 478.438 20.824H474.246V25.048ZM500.619 35V31.544L500.395 30.808V24.76C500.395 23.5867 500.043 22.68 499.339 22.04C498.635 21.3787 497.568 21.048 496.139 21.048C495.179 21.048 494.229 21.1973 493.291 21.496C492.373 21.7947 491.595 22.2107 490.955 22.744L489.387 19.832C490.304 19.128 491.392 18.6053 492.651 18.264C493.931 17.9013 495.253 17.72 496.619 17.72C499.093 17.72 501.003 18.3173 502.347 19.512C503.712 20.6853 504.395 22.5093 504.395 24.984V35H500.619ZM495.243 35.224C493.963 35.224 492.843 35.0107 491.883 34.584C490.923 34.136 490.176 33.528 489.643 32.76C489.131 31.9707 488.875 31.0853 488.875 30.104C488.875 29.144 489.099 28.28 489.547 27.512C490.016 26.744 490.773 26.136 491.819 25.688C492.864 25.24 494.251 25.016 495.979 25.016H500.939V27.672H496.267C494.901 27.672 493.984 27.896 493.515 28.344C493.045 28.7707 492.811 29.304 492.811 29.944C492.811 30.6693 493.099 31.2453 493.675 31.672C494.251 32.0987 495.051 32.312 496.075 32.312C497.056 32.312 497.931 32.088 498.699 31.64C499.488 31.192 500.053 30.5307 500.395 29.656L501.067 32.056C500.683 33.0587 499.989 33.8373 498.987 34.392C498.005 34.9467 496.757 35.224 495.243 35.224ZM509.344 35V17.912H513.344V24.856H521.952V17.912H525.952V35H521.952V28.248H513.344V35H509.344ZM548.561 35V17.912H552.561V35H548.561ZM539.633 23.544C541.83 23.544 543.494 24.0347 544.625 25.016C545.777 25.9973 546.353 27.384 546.353 29.176C546.353 31.032 545.713 32.4827 544.433 33.528C543.174 34.552 541.382 35.0533 539.057 35.032L531.313 35V17.912H535.313V23.512L539.633 23.544ZM538.705 32.088C539.878 32.1093 540.774 31.864 541.393 31.352C542.012 30.84 542.321 30.0933 542.321 29.112C542.321 28.1307 542.012 27.4267 541.393 27C540.796 26.552 539.9 26.3173 538.705 26.296L535.313 26.264V32.056L538.705 32.088ZM566.782 35V17.912H575.134C577.203 17.912 578.824 18.296 579.998 19.064C581.192 19.832 581.79 20.92 581.79 22.328C581.79 23.7147 581.235 24.8027 580.126 25.592C579.016 26.36 577.544 26.744 575.71 26.744L576.19 25.752C578.259 25.752 579.795 26.136 580.798 26.904C581.822 27.6507 582.334 28.7493 582.334 30.2C582.334 31.7147 581.768 32.8987 580.638 33.752C579.507 34.584 577.79 35 575.486 35H566.782ZM570.59 32.088H575.166C576.254 32.088 577.075 31.9173 577.63 31.576C578.184 31.2133 578.462 30.6693 578.462 29.944C578.462 29.176 578.206 28.6107 577.694 28.248C577.182 27.8853 576.382 27.704 575.294 27.704H570.59V32.088ZM570.59 25.048H574.782C575.806 25.048 576.574 24.8667 577.086 24.504C577.619 24.12 577.886 23.5867 577.886 22.904C577.886 22.2 577.619 21.6773 577.086 21.336C576.574 20.9947 575.806 20.824 574.782 20.824H570.59V25.048ZM595.438 35V17.912H599.438V24.856H608.046V17.912H612.046V35H608.046V28.248H599.438V35H595.438ZM627.775 35V31.544L627.551 30.808V24.76C627.551 23.5867 627.199 22.68 626.495 22.04C625.791 21.3787 624.724 21.048 623.295 21.048C622.335 21.048 621.385 21.1973 620.447 21.496C619.529 21.7947 618.751 22.2107 618.111 22.744L616.543 19.832C617.46 19.128 618.548 18.6053 619.807 18.264C621.087 17.9013 622.409 17.72 623.775 17.72C626.249 17.72 628.159 18.3173 629.503 19.512C630.868 20.6853 631.551 22.5093 631.551 24.984V35H627.775ZM622.399 35.224C621.119 35.224 619.999 35.0107 619.039 34.584C618.079 34.136 617.332 33.528 616.799 32.76C616.287 31.9707 616.031 31.0853 616.031 30.104C616.031 29.144 616.255 28.28 616.703 27.512C617.172 26.744 617.929 26.136 618.975 25.688C620.02 25.24 621.407 25.016 623.135 25.016H628.095V27.672H623.423C622.057 27.672 621.14 27.896 620.671 28.344C620.201 28.7707 619.967 29.304 619.967 29.944C619.967 30.6693 620.255 31.2453 620.831 31.672C621.407 32.0987 622.207 32.312 623.231 32.312C624.212 32.312 625.087 32.088 625.855 31.64C626.644 31.192 627.209 30.5307 627.551 29.656L628.223 32.056C627.839 33.0587 627.145 33.8373 626.143 34.392C625.161 34.9467 623.913 35.224 622.399 35.224ZM648.213 33.144V21.304H641.653L641.557 24.056C641.514 25.0373 641.45 25.9867 641.365 26.904C641.279 27.8 641.141 28.632 640.949 29.4C640.757 30.1467 640.479 30.7653 640.117 31.256C639.754 31.7467 639.274 32.0667 638.677 32.216L634.709 31.608C635.349 31.608 635.861 31.4053 636.245 31C636.65 30.5733 636.959 29.9973 637.173 29.272C637.407 28.5253 637.578 27.6827 637.685 26.744C637.791 25.784 637.866 24.792 637.909 23.768L638.133 17.912H652.213V33.144H648.213ZM634.101 38.808V31.608H654.741V38.808H650.997V35H637.812V38.808H634.101ZM666.281 35.224C664.382 35.224 662.718 34.8507 661.289 34.104C659.881 33.336 658.782 32.2907 657.993 30.968C657.225 29.6453 656.841 28.1413 656.841 26.456C656.841 24.7493 657.214 23.2453 657.961 21.944C658.729 20.6213 659.774 19.5867 661.097 18.84C662.441 18.0933 663.966 17.72 665.673 17.72C667.337 17.72 668.82 18.0827 670.121 18.808C671.422 19.5333 672.446 20.5573 673.193 21.88C673.94 23.2027 674.313 24.76 674.313 26.552C674.313 26.7227 674.302 26.9147 674.281 27.128C674.281 27.3413 674.27 27.544 674.249 27.736H660.009V25.08H672.137L670.569 25.912C670.59 24.9307 670.388 24.0667 669.961 23.32C669.534 22.5733 668.948 21.9867 668.201 21.56C667.476 21.1333 666.633 20.92 665.673 20.92C664.692 20.92 663.828 21.1333 663.081 21.56C662.356 21.9867 661.78 22.584 661.353 23.352C660.948 24.0987 660.745 24.984 660.745 26.008V26.648C660.745 27.672 660.98 28.5787 661.449 29.368C661.918 30.1573 662.58 30.7653 663.433 31.192C664.286 31.6187 665.268 31.832 666.377 31.832C667.337 31.832 668.201 31.6827 668.969 31.384C669.737 31.0853 670.42 30.616 671.017 29.976L673.161 32.44C672.393 33.336 671.422 34.0293 670.249 34.52C669.097 34.9893 667.774 35.224 666.281 35.224ZM698.603 35L693.611 26.808L696.875 24.792L703.371 35H698.603ZM690.379 28.152V24.824H696.107V28.152H690.379ZM697.259 26.936L693.483 26.488L698.667 17.912H702.923L697.259 26.936ZM680.555 35H675.819L682.283 24.792L685.547 26.808L680.555 35ZM691.563 35H687.595V17.912H691.563V35ZM688.779 28.152H683.083V24.824H688.779V28.152ZM681.899 26.936L676.235 17.912H680.491L685.643 26.488L681.899 26.936ZM706.344 35V17.912H710.344V24.856H718.952V17.912H722.952V35H718.952V28.248H710.344V35H706.344ZM735.929 35.224C734.18 35.224 732.622 34.8507 731.257 34.104C729.892 33.336 728.814 32.2907 728.025 30.968C727.236 29.6453 726.841 28.1413 726.841 26.456C726.841 24.7493 727.236 23.2453 728.025 21.944C728.814 20.6213 729.892 19.5867 731.257 18.84C732.622 18.0933 734.18 17.72 735.929 17.72C737.7 17.72 739.268 18.0933 740.633 18.84C742.02 19.5867 743.097 20.6107 743.865 21.912C744.654 23.2133 745.049 24.728 745.049 26.456C745.049 28.1413 744.654 29.6453 743.865 30.968C743.097 32.2907 742.02 33.336 740.633 34.104C739.268 34.8507 737.7 35.224 735.929 35.224ZM735.929 31.8C736.91 31.8 737.785 31.5867 738.553 31.16C739.321 30.7333 739.918 30.1147 740.345 29.304C740.793 28.4933 741.017 27.544 741.017 26.456C741.017 25.3467 740.793 24.3973 740.345 23.608C739.918 22.7973 739.321 22.1787 738.553 21.752C737.785 21.3253 736.921 21.112 735.961 21.112C734.98 21.112 734.105 21.3253 733.337 21.752C732.59 22.1787 731.993 22.7973 731.545 23.608C731.097 24.3973 730.873 25.3467 730.873 26.456C730.873 27.544 731.097 28.4933 731.545 29.304C731.993 30.1147 732.59 30.7333 733.337 31.16C734.105 31.5867 734.969 31.8 735.929 31.8ZM749.001 35V17.912H753.193L760.073 30.04H758.409L765.641 17.912H769.385L769.417 35H765.801V22.2L766.441 22.616L760.041 33.208H758.313L751.881 22.328L752.649 22.136V35H749.001ZM795.882 35L789.706 26.808L792.97 24.792L800.586 35H795.882ZM783.626 35V17.912H787.626V35H783.626ZM786.442 28.152V24.824H792.234V28.152H786.442ZM793.354 26.936L789.61 26.488L795.882 17.912H800.17L793.354 26.936ZM810.46 35.224C808.711 35.224 807.154 34.8507 805.788 34.104C804.423 33.336 803.346 32.2907 802.556 30.968C801.767 29.6453 801.372 28.1413 801.372 26.456C801.372 24.7493 801.767 23.2453 802.556 21.944C803.346 20.6213 804.423 19.5867 805.788 18.84C807.154 18.0933 808.711 17.72 810.46 17.72C812.231 17.72 813.799 18.0933 815.164 18.84C816.551 19.5867 817.628 20.6107 818.396 21.912C819.186 23.2133 819.58 24.728 819.58 26.456C819.58 28.1413 819.186 29.6453 818.396 30.968C817.628 32.2907 816.551 33.336 815.164 34.104C813.799 34.8507 812.231 35.224 810.46 35.224ZM810.46 31.8C811.442 31.8 812.316 31.5867 813.084 31.16C813.852 30.7333 814.45 30.1147 814.876 29.304C815.324 28.4933 815.548 27.544 815.548 26.456C815.548 25.3467 815.324 24.3973 814.876 23.608C814.45 22.7973 813.852 22.1787 813.084 21.752C812.316 21.3253 811.452 21.112 810.492 21.112C809.511 21.112 808.636 21.3253 807.868 21.752C807.122 22.1787 806.524 22.7973 806.076 23.608C805.628 24.3973 805.404 25.3467 805.404 26.456C805.404 27.544 805.628 28.4933 806.076 29.304C806.524 30.1147 807.122 30.7333 807.868 31.16C808.636 31.5867 809.5 31.8 810.46 31.8ZM823.532 35V17.912H827.724L834.604 30.04H832.94L840.172 17.912H843.916L843.948 35H840.332V22.2L840.972 22.616L834.572 33.208H832.844L826.412 22.328L827.18 22.136V35H823.532ZM849.313 35V17.912H865.697V35H861.729V20.376L862.657 21.304H852.385L853.313 20.376V35H849.313ZM879.062 35.224C877.164 35.224 875.5 34.8507 874.07 34.104C872.662 33.336 871.564 32.2907 870.774 30.968C870.006 29.6453 869.622 28.1413 869.622 26.456C869.622 24.7493 869.996 23.2453 870.742 21.944C871.51 20.6213 872.556 19.5867 873.878 18.84C875.222 18.0933 876.748 17.72 878.454 17.72C880.118 17.72 881.601 18.0827 882.902 18.808C884.204 19.5333 885.228 20.5573 885.974 21.88C886.721 23.2027 887.094 24.76 887.094 26.552C887.094 26.7227 887.084 26.9147 887.062 27.128C887.062 27.3413 887.052 27.544 887.03 27.736H872.79V25.08H884.918L883.35 25.912C883.372 24.9307 883.169 24.0667 882.742 23.32C882.316 22.5733 881.729 21.9867 880.982 21.56C880.257 21.1333 879.414 20.92 878.454 20.92C877.473 20.92 876.609 21.1333 875.862 21.56C875.137 21.9867 874.561 22.584 874.134 23.352C873.729 24.0987 873.526 24.984 873.526 26.008V26.648C873.526 27.672 873.761 28.5787 874.23 29.368C874.7 30.1573 875.361 30.7653 876.214 31.192C877.068 31.6187 878.049 31.832 879.158 31.832C880.118 31.832 880.982 31.6827 881.75 31.384C882.518 31.0853 883.201 30.616 883.798 29.976L885.942 32.44C885.174 33.336 884.204 34.0293 883.03 34.52C881.878 34.9893 880.556 35.224 879.062 35.224ZM894.365 35V20.344L895.293 21.304H888.349V17.912H904.349V21.304H897.437L898.365 20.344V35H894.365ZM914.469 35.224C912.57 35.224 910.906 34.8507 909.477 34.104C908.069 33.336 906.97 32.2907 906.181 30.968C905.413 29.6453 905.029 28.1413 905.029 26.456C905.029 24.7493 905.402 23.2453 906.149 21.944C906.917 20.6213 907.962 19.5867 909.285 18.84C910.629 18.0933 912.154 17.72 913.861 17.72C915.525 17.72 917.007 18.0827 918.309 18.808C919.61 19.5333 920.634 20.5573 921.381 21.88C922.127 23.2027 922.501 24.76 922.501 26.552C922.501 26.7227 922.49 26.9147 922.469 27.128C922.469 27.3413 922.458 27.544 922.437 27.736H908.197V25.08H920.325L918.757 25.912C918.778 24.9307 918.575 24.0667 918.149 23.32C917.722 22.5733 917.135 21.9867 916.389 21.56C915.663 21.1333 914.821 20.92 913.861 20.92C912.879 20.92 912.015 21.1333 911.269 21.56C910.543 21.9867 909.967 22.584 909.541 23.352C909.135 24.0987 908.933 24.984 908.933 26.008V26.648C908.933 27.672 909.167 28.5787 909.637 29.368C910.106 30.1573 910.767 30.7653 911.621 31.192C912.474 31.6187 913.455 31.832 914.565 31.832C915.525 31.832 916.389 31.6827 917.157 31.384C917.925 31.0853 918.607 30.616 919.205 29.976L921.349 32.44C920.581 33.336 919.61 34.0293 918.437 34.52C917.285 34.9893 915.962 35.224 914.469 35.224ZM926.876 35V17.912H930.876V24.856H939.484V17.912H943.484V35H939.484V28.248H930.876V35H926.876ZM952.396 35V20.344L953.324 21.304H946.38V17.912H962.38V21.304H955.468L956.396 20.344V35H952.396ZM965.282 35V17.912H969.282V24.856H977.89V17.912H981.89V35H977.89V28.248H969.282V35H965.282ZM994.867 35.224C993.117 35.224 991.56 34.8507 990.195 34.104C988.829 33.336 987.752 32.2907 986.963 30.968C986.173 29.6453 985.779 28.1413 985.779 26.456C985.779 24.7493 986.173 23.2453 986.963 21.944C987.752 20.6213 988.829 19.5867 990.195 18.84C991.56 18.0933 993.117 17.72 994.867 17.72C996.637 17.72 998.205 18.0933 999.571 18.84C1000.96 19.5867 1002.03 20.6107 1002.8 21.912C1003.59 23.2133 1003.99 24.728 1003.99 26.456C1003.99 28.1413 1003.59 29.6453 1002.8 30.968C1002.03 32.2907 1000.96 33.336 999.571 34.104C998.205 34.8507 996.637 35.224 994.867 35.224ZM994.867 31.8C995.848 31.8 996.723 31.5867 997.491 31.16C998.259 30.7333 998.856 30.1147 999.283 29.304C999.731 28.4933 999.955 27.544 999.955 26.456C999.955 25.3467 999.731 24.3973 999.283 23.608C998.856 22.7973 998.259 22.1787 997.491 21.752C996.723 21.3253 995.859 21.112 994.899 21.112C993.917 21.112 993.043 21.3253 992.275 21.752C991.528 22.1787 990.931 22.7973 990.483 23.608C990.035 24.3973 989.811 25.3467 989.811 26.456C989.811 27.544 990.035 28.4933 990.483 29.304C990.931 30.1147 991.528 30.7333 992.275 31.16C993.043 31.5867 993.907 31.8 994.867 31.8ZM1007.94 35V17.912H1012.13L1019.01 30.04H1017.35L1024.58 17.912H1028.32L1028.35 35H1024.74V22.2L1025.38 22.616L1018.98 33.208H1017.25L1010.82 22.328L1011.59 22.136V35H1007.94ZM1042.56 35V17.912H1058.95V35H1054.98V20.376L1055.91 21.304H1045.64L1046.56 20.376V35H1042.56ZM1074.71 35V31.544L1074.49 30.808V24.76C1074.49 23.5867 1074.14 22.68 1073.43 22.04C1072.73 21.3787 1071.66 21.048 1070.23 21.048C1069.27 21.048 1068.32 21.1973 1067.38 21.496C1066.47 21.7947 1065.69 22.2107 1065.05 22.744L1063.48 19.832C1064.4 19.128 1065.49 18.6053 1066.74 18.264C1068.02 17.9013 1069.35 17.72 1070.71 17.72C1073.19 17.72 1075.1 18.3173 1076.44 19.512C1077.81 20.6853 1078.49 22.5093 1078.49 24.984V35H1074.71ZM1069.34 35.224C1068.06 35.224 1066.94 35.0107 1065.98 34.584C1065.02 34.136 1064.27 33.528 1063.74 32.76C1063.22 31.9707 1062.97 31.0853 1062.97 30.104C1062.97 29.144 1063.19 28.28 1063.64 27.512C1064.11 26.744 1064.87 26.136 1065.91 25.688C1066.96 25.24 1068.34 25.016 1070.07 25.016H1075.03V27.672H1070.36C1068.99 27.672 1068.08 27.896 1067.61 28.344C1067.14 28.7707 1066.9 29.304 1066.9 29.944C1066.9 30.6693 1067.19 31.2453 1067.77 31.672C1068.34 32.0987 1069.14 32.312 1070.17 32.312C1071.15 32.312 1072.02 32.088 1072.79 31.64C1073.58 31.192 1074.15 30.5307 1074.49 29.656L1075.16 32.056C1074.78 33.0587 1074.08 33.8373 1073.08 34.392C1072.1 34.9467 1070.85 35.224 1069.34 35.224ZM1092.91 35.224C1091.52 35.224 1090.25 34.904 1089.1 34.264C1087.97 33.624 1087.06 32.664 1086.38 31.384C1085.72 30.0827 1085.39 28.44 1085.39 26.456C1085.39 24.4507 1085.71 22.808 1086.35 21.528C1087.01 20.248 1087.91 19.2987 1089.04 18.68C1090.17 18.04 1091.46 17.72 1092.91 17.72C1094.6 17.72 1096.08 18.0827 1097.36 18.808C1098.66 19.5333 1099.68 20.5467 1100.43 21.848C1101.2 23.1493 1101.58 24.6853 1101.58 26.456C1101.58 28.2267 1101.2 29.7733 1100.43 31.096C1099.68 32.3973 1098.66 33.4107 1097.36 34.136C1096.08 34.8613 1094.6 35.224 1092.91 35.224ZM1083.44 41.208V17.912H1087.25V21.944L1087.12 26.488L1087.44 31.032V41.208H1083.44ZM1092.46 31.8C1093.42 31.8 1094.28 31.5867 1095.02 31.16C1095.79 30.7333 1096.4 30.1147 1096.85 29.304C1097.29 28.4933 1097.52 27.544 1097.52 26.456C1097.52 25.3467 1097.29 24.3973 1096.85 23.608C1096.4 22.7973 1095.79 22.1787 1095.02 21.752C1094.28 21.3253 1093.42 21.112 1092.46 21.112C1091.5 21.112 1090.64 21.3253 1089.87 21.752C1089.1 22.1787 1088.49 22.7973 1088.05 23.608C1087.6 24.3973 1087.37 25.3467 1087.37 26.456C1087.37 27.544 1087.6 28.4933 1088.05 29.304C1088.49 30.1147 1089.1 30.7333 1089.87 31.16C1090.64 31.5867 1091.5 31.8 1092.46 31.8ZM1108.49 35V20.344L1109.42 21.304H1102.47V17.912H1118.47V21.304H1111.56L1112.49 20.344V35H1108.49ZM1121.38 35V17.912H1125.38V24.856H1133.98V17.912H1137.98V35H1133.98V28.248H1125.38V35H1121.38ZM1151.31 35.224C1149.41 35.224 1147.75 34.8507 1146.32 34.104C1144.91 33.336 1143.81 32.2907 1143.02 30.968C1142.26 29.6453 1141.87 28.1413 1141.87 26.456C1141.87 24.7493 1142.25 23.2453 1142.99 21.944C1143.76 20.6213 1144.81 19.5867 1146.13 18.84C1147.47 18.0933 1149 17.72 1150.7 17.72C1152.37 17.72 1153.85 18.0827 1155.15 18.808C1156.45 19.5333 1157.48 20.5573 1158.22 21.88C1158.97 23.2027 1159.34 24.76 1159.34 26.552C1159.34 26.7227 1159.33 26.9147 1159.31 27.128C1159.31 27.3413 1159.3 27.544 1159.28 27.736H1145.04V25.08H1157.17L1155.6 25.912C1155.62 24.9307 1155.42 24.0667 1154.99 23.32C1154.57 22.5733 1153.98 21.9867 1153.23 21.56C1152.51 21.1333 1151.66 20.92 1150.7 20.92C1149.72 20.92 1148.86 21.1333 1148.11 21.56C1147.39 21.9867 1146.81 22.584 1146.38 23.352C1145.98 24.0987 1145.78 24.984 1145.78 26.008V26.648C1145.78 27.672 1146.01 28.5787 1146.48 29.368C1146.95 30.1573 1147.61 30.7653 1148.46 31.192C1149.32 31.6187 1150.3 31.832 1151.41 31.832C1152.37 31.832 1153.23 31.6827 1154 31.384C1154.77 31.0853 1155.45 30.616 1156.05 29.976L1158.19 32.44C1157.42 33.336 1156.45 34.0293 1155.28 34.52C1154.13 34.9893 1152.81 35.224 1151.31 35.224ZM1173.19 35.224C1171.8 35.224 1170.54 34.904 1169.38 34.264C1168.25 33.624 1167.35 32.664 1166.66 31.384C1166 30.0827 1165.67 28.44 1165.67 26.456C1165.67 24.4507 1165.99 22.808 1166.63 21.528C1167.29 20.248 1168.19 19.2987 1169.32 18.68C1170.45 18.04 1171.74 17.72 1173.19 17.72C1174.88 17.72 1176.36 18.0827 1177.64 18.808C1178.94 19.5333 1179.96 20.5467 1180.71 21.848C1181.48 23.1493 1181.86 24.6853 1181.86 26.456C1181.86 28.2267 1181.48 29.7733 1180.71 31.096C1179.96 32.3973 1178.94 33.4107 1177.64 34.136C1176.36 34.8613 1174.88 35.224 1173.19 35.224ZM1163.72 41.208V17.912H1167.53V21.944L1167.4 26.488L1167.72 31.032V41.208H1163.72ZM1172.74 31.8C1173.7 31.8 1174.56 31.5867 1175.3 31.16C1176.07 30.7333 1176.68 30.1147 1177.13 29.304C1177.58 28.4933 1177.8 27.544 1177.8 26.456C1177.8 25.3467 1177.58 24.3973 1177.13 23.608C1176.68 22.7973 1176.07 22.1787 1175.3 21.752C1174.56 21.3253 1173.7 21.112 1172.74 21.112C1171.78 21.112 1170.92 21.3253 1170.15 21.752C1169.38 22.1787 1168.78 22.7973 1168.33 23.608C1167.88 24.3973 1167.66 25.3467 1167.66 26.456C1167.66 27.544 1167.88 28.4933 1168.33 29.304C1168.78 30.1147 1169.38 30.7333 1170.15 31.16C1170.92 31.5867 1171.78 31.8 1172.74 31.8ZM1193.81 35.224C1191.91 35.224 1190.25 34.8507 1188.82 34.104C1187.41 33.336 1186.31 32.2907 1185.52 30.968C1184.76 29.6453 1184.37 28.1413 1184.37 26.456C1184.37 24.7493 1184.75 23.2453 1185.49 21.944C1186.26 20.6213 1187.31 19.5867 1188.63 18.84C1189.97 18.0933 1191.5 17.72 1193.2 17.72C1194.87 17.72 1196.35 18.0827 1197.65 18.808C1198.95 19.5333 1199.98 20.5573 1200.72 21.88C1201.47 23.2027 1201.84 24.76 1201.84 26.552C1201.84 26.7227 1201.83 26.9147 1201.81 27.128C1201.81 27.3413 1201.8 27.544 1201.78 27.736H1187.54V25.08H1199.67L1198.1 25.912C1198.12 24.9307 1197.92 24.0667 1197.49 23.32C1197.07 22.5733 1196.48 21.9867 1195.73 21.56C1195.01 21.1333 1194.16 20.92 1193.2 20.92C1192.22 20.92 1191.36 21.1333 1190.61 21.56C1189.89 21.9867 1189.31 22.584 1188.88 23.352C1188.48 24.0987 1188.28 24.984 1188.28 26.008V26.648C1188.28 27.672 1188.51 28.5787 1188.98 29.368C1189.45 30.1573 1190.11 30.7653 1190.96 31.192C1191.82 31.6187 1192.8 31.832 1193.91 31.832C1194.87 31.832 1195.73 31.6827 1196.5 31.384C1197.27 31.0853 1197.95 30.616 1198.55 29.976L1200.69 32.44C1199.92 33.336 1198.95 34.0293 1197.78 34.52C1196.63 34.9893 1195.31 35.224 1193.81 35.224ZM1205.1 39.832L1206.96 32.76L1207.5 35.128C1206.75 35.128 1206.12 34.904 1205.61 34.456C1205.12 33.9867 1204.88 33.3573 1204.88 32.568C1204.88 31.7573 1205.12 31.1173 1205.61 30.648C1206.12 30.1573 1206.74 29.912 1207.47 29.912C1208.21 29.912 1208.83 30.1573 1209.32 30.648C1209.81 31.1387 1210.06 31.7787 1210.06 32.568C1210.06 32.7813 1210.04 33.016 1210 33.272C1209.95 33.5067 1209.88 33.784 1209.77 34.104C1209.69 34.424 1209.54 34.8293 1209.32 35.32L1207.69 39.832H1205.1ZM1222.88 35V17.912H1227.07L1233.95 30.04H1232.28L1239.52 17.912H1243.26L1243.29 35H1239.68V22.2L1240.32 22.616L1233.92 33.208H1232.19L1225.76 22.328L1226.52 22.136V35H1222.88ZM1265.9 35V17.912H1269.9V35H1265.9ZM1256.98 23.544C1259.17 23.544 1260.84 24.0347 1261.97 25.016C1263.12 25.9973 1263.7 27.384 1263.7 29.176C1263.7 31.032 1263.06 32.4827 1261.78 33.528C1260.52 34.552 1258.73 35.0533 1256.4 35.032L1248.66 35V17.912H1252.66V23.512L1256.98 23.544ZM1256.05 32.088C1257.22 32.1093 1258.12 31.864 1258.74 31.352C1259.36 30.84 1259.66 30.0933 1259.66 29.112C1259.66 28.1307 1259.36 27.4267 1258.74 27C1258.14 26.552 1257.24 26.3173 1256.05 26.296L1252.66 26.264V32.056L1256.05 32.088ZM1292.29 35.32C1290.88 35.32 1289.62 35.1067 1288.51 34.68C1287.4 34.2533 1286.44 33.6027 1285.63 32.728C1284.84 31.832 1284.23 30.7013 1283.81 29.336C1283.38 27.9707 1283.17 26.3493 1283.17 24.472C1283.17 23.1067 1283.28 21.8587 1283.52 20.728C1283.75 19.5973 1284.1 18.584 1284.57 17.688C1285.04 16.7707 1285.63 15.96 1286.33 15.256C1287.06 14.552 1287.9 13.9653 1288.86 13.496C1289.82 13.0267 1290.91 12.664 1292.13 12.408L1300.06 10.712L1300.64 14.296L1293.44 15.768C1293.03 15.8533 1292.54 15.9813 1291.97 16.152C1291.41 16.3013 1290.83 16.536 1290.24 16.856C1289.66 17.1547 1289.12 17.592 1288.61 18.168C1288.11 18.7227 1287.71 19.448 1287.39 20.344C1287.09 21.2187 1286.94 22.3173 1286.94 23.64C1286.94 24.0453 1286.95 24.3547 1286.97 24.568C1287.02 24.76 1287.05 24.9733 1287.07 25.208C1287.11 25.4213 1287.13 25.7413 1287.13 26.168L1285.63 24.6C1286.06 23.512 1286.64 22.584 1287.39 21.816C1288.16 21.0267 1289.04 20.4293 1290.05 20.024C1291.07 19.5973 1292.18 19.384 1293.37 19.384C1294.97 19.384 1296.39 19.7147 1297.63 20.376C1298.87 21.0373 1299.84 21.9653 1300.54 23.16C1301.25 24.3547 1301.6 25.7093 1301.6 27.224C1301.6 28.8027 1301.21 30.2 1300.45 31.416C1299.68 32.632 1298.59 33.592 1297.18 34.296C1295.79 34.9787 1294.16 35.32 1292.29 35.32ZM1292.61 32.088C1293.57 32.088 1294.41 31.8853 1295.13 31.48C1295.88 31.0533 1296.46 30.4773 1296.86 29.752C1297.29 29.0267 1297.5 28.216 1297.5 27.32C1297.5 26.424 1297.29 25.6453 1296.86 24.984C1296.46 24.3013 1295.88 23.7573 1295.13 23.352C1294.41 22.9467 1293.54 22.744 1292.54 22.744C1291.58 22.744 1290.72 22.936 1289.95 23.32C1289.2 23.704 1288.62 24.2373 1288.19 24.92C1287.78 25.5813 1287.58 26.3493 1287.58 27.224C1287.58 28.12 1287.79 28.9413 1288.22 29.688C1288.65 30.4347 1289.23 31.0213 1289.98 31.448C1290.75 31.8747 1291.62 32.088 1292.61 32.088ZM1322.72 35V17.912H1326.72V35H1322.72ZM1313.79 23.544C1315.99 23.544 1317.65 24.0347 1318.78 25.016C1319.93 25.9973 1320.51 27.384 1320.51 29.176C1320.51 31.032 1319.87 32.4827 1318.59 33.528C1317.33 34.552 1315.54 35.0533 1313.21 35.032L1305.47 35V17.912H1309.47V23.512L1313.79 23.544ZM1312.86 32.088C1314.03 32.1093 1314.93 31.864 1315.55 31.352C1316.17 30.84 1316.48 30.0933 1316.48 29.112C1316.48 28.1307 1316.17 27.4267 1315.55 27C1314.95 26.552 1314.06 26.3173 1312.86 26.296L1309.47 26.264V32.056L1312.86 32.088ZM1329.6 34.968L1329.79 31.608C1329.94 31.6293 1330.08 31.6507 1330.21 31.672C1330.33 31.6933 1330.45 31.704 1330.56 31.704C1331.22 31.704 1331.73 31.5013 1332.09 31.096C1332.46 30.6907 1332.72 30.1467 1332.89 29.464C1333.09 28.76 1333.21 27.9813 1333.28 27.128C1333.36 26.2533 1333.43 25.3787 1333.47 24.504L1333.76 17.912H1347.58V35H1343.58V20.216L1344.51 21.304H1336.38L1337.25 20.184L1337.02 24.696C1336.96 26.2107 1336.83 27.6187 1336.64 28.92C1336.47 30.2 1336.19 31.32 1335.81 32.28C1335.44 33.24 1334.93 33.9867 1334.27 34.52C1333.63 35.0533 1332.81 35.32 1331.81 35.32C1331.49 35.32 1331.13 35.288 1330.75 35.224C1330.39 35.16 1330 35.0747 1329.6 34.968ZM1352.97 35V17.912H1356.97V29.176L1366.41 17.912H1370.06V35H1366.06V23.736L1356.65 35H1352.97ZM132.848 83.32C131.44 83.32 130.181 83.1067 129.072 82.68C127.963 82.2533 127.003 81.6027 126.192 80.728C125.403 79.832 124.795 78.7013 124.368 77.336C123.941 75.9707 123.728 74.3493 123.728 72.472C123.728 71.1067 123.845 69.8587 124.08 68.728C124.315 67.5973 124.667 66.584 125.136 65.688C125.605 64.7707 126.192 63.96 126.896 63.256C127.621 62.552 128.464 61.9653 129.424 61.496C130.384 61.0267 131.472 60.664 132.688 60.408L140.624 58.712L141.2 62.296L134 63.768C133.595 63.8533 133.104 63.9813 132.528 64.152C131.973 64.3013 131.397 64.536 130.8 64.856C130.224 65.1547 129.68 65.592 129.168 66.168C128.677 66.7227 128.272 67.448 127.952 68.344C127.653 69.2187 127.504 70.3173 127.504 71.64C127.504 72.0453 127.515 72.3547 127.536 72.568C127.579 72.76 127.611 72.9733 127.632 73.208C127.675 73.4213 127.696 73.7413 127.696 74.168L126.192 72.6C126.619 71.512 127.205 70.584 127.952 69.816C128.72 69.0267 129.605 68.4293 130.608 68.024C131.632 67.5973 132.741 67.384 133.936 67.384C135.536 67.384 136.955 67.7147 138.192 68.376C139.429 69.0373 140.4 69.9653 141.104 71.16C141.808 72.3547 142.16 73.7093 142.16 75.224C142.16 76.8027 141.776 78.2 141.008 79.416C140.24 80.632 139.152 81.592 137.744 82.296C136.357 82.9787 134.725 83.32 132.848 83.32ZM133.168 80.088C134.128 80.088 134.971 79.8853 135.696 79.48C136.443 79.0533 137.019 78.4773 137.424 77.752C137.851 77.0267 138.064 76.216 138.064 75.32C138.064 74.424 137.851 73.6453 137.424 72.984C137.019 72.3013 136.443 71.7573 135.696 71.352C134.971 70.9467 134.107 70.744 133.104 70.744C132.144 70.744 131.28 70.936 130.512 71.32C129.765 71.704 129.179 72.2373 128.752 72.92C128.347 73.5813 128.144 74.3493 128.144 75.224C128.144 76.12 128.357 76.9413 128.784 77.688C129.211 78.4347 129.797 79.0213 130.544 79.448C131.312 79.8747 132.187 80.088 133.168 80.088ZM163.28 83V65.912H167.28V83H163.28ZM154.352 71.544C156.549 71.544 158.213 72.0347 159.344 73.016C160.496 73.9973 161.072 75.384 161.072 77.176C161.072 79.032 160.432 80.4827 159.152 81.528C157.893 82.552 156.101 83.0533 153.776 83.032L146.032 83V65.912H150.032V71.512L154.352 71.544ZM153.424 80.088C154.597 80.1093 155.493 79.864 156.112 79.352C156.73 78.84 157.04 78.0933 157.04 77.112C157.04 76.1307 156.73 75.4267 156.112 75C155.514 74.552 154.618 74.3173 153.424 74.296L150.032 74.264V80.056L153.424 80.088ZM189.117 83.224C187.367 83.224 185.81 82.8507 184.445 82.104C183.079 81.336 182.002 80.2907 181.213 78.968C180.423 77.6453 180.029 76.1413 180.029 74.456C180.029 72.7493 180.423 71.2453 181.213 69.944C182.002 68.6213 183.079 67.5867 184.445 66.84C185.81 66.0933 187.367 65.72 189.117 65.72C190.887 65.72 192.455 66.0933 193.821 66.84C195.207 67.5867 196.285 68.6107 197.053 69.912C197.842 71.2133 198.237 72.728 198.237 74.456C198.237 76.1413 197.842 77.6453 197.053 78.968C196.285 80.2907 195.207 81.336 193.821 82.104C192.455 82.8507 190.887 83.224 189.117 83.224ZM189.117 79.8C190.098 79.8 190.973 79.5867 191.741 79.16C192.509 78.7333 193.106 78.1147 193.533 77.304C193.981 76.4933 194.205 75.544 194.205 74.456C194.205 73.3467 193.981 72.3973 193.533 71.608C193.106 70.7973 192.509 70.1787 191.741 69.752C190.973 69.3253 190.109 69.112 189.149 69.112C188.167 69.112 187.293 69.3253 186.525 69.752C185.778 70.1787 185.181 70.7973 184.733 71.608C184.285 72.3973 184.061 73.3467 184.061 74.456C184.061 75.544 184.285 76.4933 184.733 77.304C185.181 78.1147 185.778 78.7333 186.525 79.16C187.293 79.5867 188.157 79.8 189.117 79.8ZM212.972 76.248C212.161 76.632 211.297 76.952 210.38 77.208C209.484 77.4427 208.535 77.56 207.532 77.56C205.377 77.56 203.703 77.0587 202.508 76.056C201.313 75.0533 200.716 73.496 200.716 71.384V65.912H204.716V71.128C204.716 72.2587 205.036 73.08 205.676 73.592C206.337 74.104 207.244 74.36 208.396 74.36C209.164 74.36 209.932 74.264 210.7 74.072C211.468 73.88 212.225 73.6133 212.972 73.272V76.248ZM212.684 83V65.912H216.684V83H212.684ZM230.031 83.224C228.132 83.224 226.468 82.8507 225.039 82.104C223.631 81.336 222.532 80.2907 221.743 78.968C220.975 77.6453 220.591 76.1413 220.591 74.456C220.591 72.7493 220.964 71.2453 221.711 69.944C222.479 68.6213 223.524 67.5867 224.847 66.84C226.191 66.0933 227.716 65.72 229.423 65.72C231.087 65.72 232.57 66.0827 233.871 66.808C235.172 67.5333 236.196 68.5573 236.943 69.88C237.69 71.2027 238.063 72.76 238.063 74.552C238.063 74.7227 238.052 74.9147 238.031 75.128C238.031 75.3413 238.02 75.544 237.999 75.736H223.759V73.08H235.887L234.319 73.912C234.34 72.9307 234.138 72.0667 233.711 71.32C233.284 70.5733 232.698 69.9867 231.951 69.56C231.226 69.1333 230.383 68.92 229.423 68.92C228.442 68.92 227.578 69.1333 226.831 69.56C226.106 69.9867 225.53 70.584 225.103 71.352C224.698 72.0987 224.495 72.984 224.495 74.008V74.648C224.495 75.672 224.73 76.5787 225.199 77.368C225.668 78.1573 226.33 78.7653 227.183 79.192C228.036 79.6187 229.018 79.832 230.127 79.832C231.087 79.832 231.951 79.6827 232.719 79.384C233.487 79.0853 234.17 78.616 234.767 77.976L236.911 80.44C236.143 81.336 235.172 82.0293 233.999 82.52C232.847 82.9893 231.524 83.224 230.031 83.224ZM242.438 83V65.912H246.438V72.856H255.046V65.912H259.046V83H255.046V76.248H246.438V83H242.438ZM272.983 71.544C275.18 71.544 276.855 72.0347 278.007 73.016C279.159 73.9973 279.735 75.384 279.735 77.176C279.735 79.032 279.095 80.4827 277.815 81.528C276.535 82.552 274.732 83.0533 272.407 83.032L264.407 83V65.912H268.407V71.512L272.983 71.544ZM272.055 80.088C273.228 80.1093 274.124 79.864 274.743 79.352C275.361 78.84 275.671 78.0933 275.671 77.112C275.671 76.1307 275.361 75.4267 274.743 75C274.145 74.552 273.249 74.3173 272.055 74.296L268.407 74.264V80.056L272.055 80.088ZM301.566 83.224C300.18 83.224 298.91 82.904 297.758 82.264C296.628 81.624 295.721 80.664 295.038 79.384C294.377 78.0827 294.046 76.44 294.046 74.456C294.046 72.4507 294.366 70.808 295.006 69.528C295.668 68.248 296.564 67.2987 297.694 66.68C298.825 66.04 300.116 65.72 301.566 65.72C303.252 65.72 304.734 66.0827 306.014 66.808C307.316 67.5333 308.34 68.5467 309.086 69.848C309.854 71.1493 310.238 72.6853 310.238 74.456C310.238 76.2267 309.854 77.7733 309.086 79.096C308.34 80.3973 307.316 81.4107 306.014 82.136C304.734 82.8613 303.252 83.224 301.566 83.224ZM292.094 89.208V65.912H295.902V69.944L295.774 74.488L296.094 79.032V89.208H292.094ZM301.118 79.8C302.078 79.8 302.932 79.5867 303.678 79.16C304.446 78.7333 305.054 78.1147 305.502 77.304C305.95 76.4933 306.174 75.544 306.174 74.456C306.174 73.3467 305.95 72.3973 305.502 71.608C305.054 70.7973 304.446 70.1787 303.678 69.752C302.932 69.3253 302.078 69.112 301.118 69.112C300.158 69.112 299.294 69.3253 298.526 69.752C297.758 70.1787 297.15 70.7973 296.702 71.608C296.254 72.3973 296.03 73.3467 296.03 74.456C296.03 75.544 296.254 76.4933 296.702 77.304C297.15 78.1147 297.758 78.7333 298.526 79.16C299.294 79.5867 300.158 79.8 301.118 79.8ZM324.369 83V79.544L324.145 78.808V72.76C324.145 71.5867 323.793 70.68 323.089 70.04C322.385 69.3787 321.318 69.048 319.889 69.048C318.929 69.048 317.979 69.1973 317.041 69.496C316.123 69.7947 315.345 70.2107 314.705 70.744L313.137 67.832C314.054 67.128 315.142 66.6053 316.401 66.264C317.681 65.9013 319.003 65.72 320.369 65.72C322.843 65.72 324.753 66.3173 326.097 67.512C327.462 68.6853 328.145 70.5093 328.145 72.984V83H324.369ZM318.993 83.224C317.713 83.224 316.593 83.0107 315.633 82.584C314.673 82.136 313.926 81.528 313.393 80.76C312.881 79.9707 312.625 79.0853 312.625 78.104C312.625 77.144 312.849 76.28 313.297 75.512C313.766 74.744 314.523 74.136 315.569 73.688C316.614 73.24 318.001 73.016 319.729 73.016H324.689V75.672H320.017C318.651 75.672 317.734 75.896 317.265 76.344C316.795 76.7707 316.561 77.304 316.561 77.944C316.561 78.6693 316.849 79.2453 317.425 79.672C318.001 80.0987 318.801 80.312 319.825 80.312C320.806 80.312 321.681 80.088 322.449 79.64C323.238 79.192 323.803 78.5307 324.145 77.656L324.817 80.056C324.433 81.0587 323.739 81.8373 322.737 82.392C321.755 82.9467 320.507 83.224 318.993 83.224ZM344.806 81.144V69.304H338.246L338.15 72.056C338.108 73.0373 338.044 73.9867 337.958 74.904C337.873 75.8 337.734 76.632 337.542 77.4C337.35 78.1467 337.073 78.7653 336.71 79.256C336.348 79.7467 335.868 80.0667 335.27 80.216L331.302 79.608C331.942 79.608 332.454 79.4053 332.838 79C333.244 78.5733 333.553 77.9973 333.766 77.272C334.001 76.5253 334.172 75.6827 334.278 74.744C334.385 73.784 334.46 72.792 334.502 71.768L334.726 65.912H348.806V81.144H344.806ZM330.694 86.808V79.608H351.334V86.808H347.59V83H334.406V86.808H330.694ZM372.155 83V65.912H376.155V83H372.155ZM363.227 71.544C365.424 71.544 367.088 72.0347 368.219 73.016C369.371 73.9973 369.947 75.384 369.947 77.176C369.947 79.032 369.307 80.4827 368.027 81.528C366.768 82.552 364.976 83.0533 362.651 83.032L354.907 83V65.912H358.907V71.512L363.227 71.544ZM362.299 80.088C363.472 80.1093 364.368 79.864 364.987 79.352C365.605 78.84 365.915 78.0933 365.915 77.112C365.915 76.1307 365.605 75.4267 364.987 75C364.389 74.552 363.493 74.3173 362.299 74.296L358.907 74.264V80.056L362.299 80.088ZM390.376 83V65.912H398.728C400.797 65.912 402.418 66.296 403.592 67.064C404.786 67.832 405.384 68.92 405.384 70.328C405.384 71.7147 404.829 72.8027 403.72 73.592C402.61 74.36 401.138 74.744 399.304 74.744L399.784 73.752C401.853 73.752 403.389 74.136 404.392 74.904C405.416 75.6507 405.928 76.7493 405.928 78.2C405.928 79.7147 405.362 80.8987 404.232 81.752C403.101 82.584 401.384 83 399.08 83H390.376ZM394.184 80.088H398.76C399.848 80.088 400.669 79.9173 401.224 79.576C401.778 79.2133 402.056 78.6693 402.056 77.944C402.056 77.176 401.8 76.6107 401.288 76.248C400.776 75.8853 399.976 75.704 398.888 75.704H394.184V80.088ZM394.184 73.048H398.376C399.4 73.048 400.168 72.8667 400.68 72.504C401.213 72.12 401.48 71.5867 401.48 70.904C401.48 70.2 401.213 69.6773 400.68 69.336C400.168 68.9947 399.4 68.824 398.376 68.824H394.184V73.048ZM410.188 83V65.912H414.188V77.176L423.628 65.912H427.276V83H423.276V71.736L413.868 83H410.188ZM444.369 81.144V69.304H437.809L437.713 72.056C437.67 73.0373 437.606 73.9867 437.521 74.904C437.435 75.8 437.297 76.632 437.105 77.4C436.913 78.1467 436.635 78.7653 436.273 79.256C435.91 79.7467 435.43 80.0667 434.833 80.216L430.865 79.608C431.505 79.608 432.017 79.4053 432.401 79C432.806 78.5733 433.115 77.9973 433.329 77.272C433.563 76.5253 433.734 75.6827 433.841 74.744C433.947 73.784 434.022 72.792 434.065 71.768L434.289 65.912H448.369V81.144H444.369ZM430.257 86.808V79.608H450.897V86.808H447.153V83H433.969V86.808H430.257ZM462.437 83.224C460.539 83.224 458.875 82.8507 457.445 82.104C456.037 81.336 454.939 80.2907 454.149 78.968C453.381 77.6453 452.997 76.1413 452.997 74.456C452.997 72.7493 453.371 71.2453 454.117 69.944C454.885 68.6213 455.931 67.5867 457.253 66.84C458.597 66.0933 460.123 65.72 461.829 65.72C463.493 65.72 464.976 66.0827 466.277 66.808C467.579 67.5333 468.603 68.5573 469.349 69.88C470.096 71.2027 470.469 72.76 470.469 74.552C470.469 74.7227 470.459 74.9147 470.437 75.128C470.437 75.3413 470.427 75.544 470.405 75.736H456.165V73.08H468.293L466.725 73.912C466.747 72.9307 466.544 72.0667 466.117 71.32C465.691 70.5733 465.104 69.9867 464.357 69.56C463.632 69.1333 462.789 68.92 461.829 68.92C460.848 68.92 459.984 69.1333 459.237 69.56C458.512 69.9867 457.936 70.584 457.509 71.352C457.104 72.0987 456.901 72.984 456.901 74.008V74.648C456.901 75.672 457.136 76.5787 457.605 77.368C458.075 78.1573 458.736 78.7653 459.589 79.192C460.443 79.6187 461.424 79.832 462.533 79.832C463.493 79.832 464.357 79.6827 465.125 79.384C465.893 79.0853 466.576 78.616 467.173 77.976L469.317 80.44C468.549 81.336 467.579 82.0293 466.405 82.52C465.253 82.9893 463.931 83.224 462.437 83.224ZM477.74 83V68.344L478.668 69.304H471.724V65.912H487.724V69.304H480.812L481.74 68.344V83H477.74ZM499.202 71.544C501.399 71.544 503.074 72.0347 504.226 73.016C505.378 73.9973 505.954 75.384 505.954 77.176C505.954 79.032 505.314 80.4827 504.034 81.528C502.754 82.552 500.951 83.0533 498.626 83.032L490.626 83V65.912H494.626V71.512L499.202 71.544ZM498.274 80.088C499.447 80.1093 500.343 79.864 500.962 79.352C501.58 78.84 501.89 78.0933 501.89 77.112C501.89 76.1307 501.58 75.4267 500.962 75C500.364 74.552 499.468 74.3173 498.274 74.296L494.626 74.264V80.056L498.274 80.088ZM518.313 83V65.912H526.665C528.734 65.912 530.356 66.296 531.529 67.064C532.724 67.832 533.321 68.92 533.321 70.328C533.321 71.7147 532.766 72.8027 531.657 73.592C530.548 74.36 529.076 74.744 527.241 74.744L527.721 73.752C529.79 73.752 531.326 74.136 532.329 74.904C533.353 75.6507 533.865 76.7493 533.865 78.2C533.865 79.7147 533.3 80.8987 532.169 81.752C531.038 82.584 529.321 83 527.017 83H518.313ZM522.121 80.088H526.697C527.785 80.088 528.606 79.9173 529.161 79.576C529.716 79.2133 529.993 78.6693 529.993 77.944C529.993 77.176 529.737 76.6107 529.225 76.248C528.713 75.8853 527.913 75.704 526.825 75.704H522.121V80.088ZM522.121 73.048H526.313C527.337 73.048 528.105 72.8667 528.617 72.504C529.15 72.12 529.417 71.5867 529.417 70.904C529.417 70.2 529.15 69.6773 528.617 69.336C528.105 68.9947 527.337 68.824 526.313 68.824H522.121V73.048ZM548.494 83V79.544L548.27 78.808V72.76C548.27 71.5867 547.918 70.68 547.214 70.04C546.51 69.3787 545.443 69.048 544.014 69.048C543.054 69.048 542.104 69.1973 541.166 69.496C540.248 69.7947 539.47 70.2107 538.83 70.744L537.262 67.832C538.179 67.128 539.267 66.6053 540.526 66.264C541.806 65.9013 543.128 65.72 544.494 65.72C546.968 65.72 548.878 66.3173 550.222 67.512C551.587 68.6853 552.27 70.5093 552.27 72.984V83H548.494ZM543.118 83.224C541.838 83.224 540.718 83.0107 539.758 82.584C538.798 82.136 538.051 81.528 537.518 80.76C537.006 79.9707 536.75 79.0853 536.75 78.104C536.75 77.144 536.974 76.28 537.422 75.512C537.891 74.744 538.648 74.136 539.694 73.688C540.739 73.24 542.126 73.016 543.854 73.016H548.814V75.672H544.142C542.776 75.672 541.859 75.896 541.39 76.344C540.92 76.7707 540.686 77.304 540.686 77.944C540.686 78.6693 540.974 79.2453 541.55 79.672C542.126 80.0987 542.926 80.312 543.95 80.312C544.931 80.312 545.806 80.088 546.574 79.64C547.363 79.192 547.928 78.5307 548.27 77.656L548.942 80.056C548.558 81.0587 547.864 81.8373 546.862 82.392C545.88 82.9467 544.632 83.224 543.118 83.224ZM568.707 79.608L567.843 80.568V65.912H571.843V80.568L570.883 79.608H579.331L578.403 80.568V65.912H582.403V83H557.219V65.912H561.219V80.568L560.291 79.608H568.707ZM589.318 89.432C588.486 89.432 587.654 89.2933 586.822 89.016C585.99 88.7387 585.296 88.3547 584.742 87.864L586.342 84.92C586.747 85.2827 587.206 85.5707 587.718 85.784C588.23 85.9973 588.752 86.104 589.286 86.104C590.011 86.104 590.598 85.9227 591.046 85.56C591.494 85.1973 591.91 84.5893 592.294 83.736L593.286 81.496L593.606 81.016L600.07 65.912H603.91L595.91 84.376C595.376 85.656 594.779 86.6693 594.118 87.416C593.478 88.1627 592.752 88.6853 591.942 88.984C591.152 89.2827 590.278 89.432 589.318 89.432ZM592.838 83.608L585.126 65.912H589.286L595.558 80.664L592.838 83.608ZM627.788 83L621.612 74.808L624.876 72.792L632.492 83H627.788ZM615.532 83V65.912H619.532V83H615.532ZM618.348 76.152V72.824H624.14V76.152H618.348ZM625.26 74.936L621.516 74.488L627.788 65.912H632.076L625.26 74.936ZM642.367 83.224C640.617 83.224 639.06 82.8507 637.695 82.104C636.329 81.336 635.252 80.2907 634.463 78.968C633.673 77.6453 633.279 76.1413 633.279 74.456C633.279 72.7493 633.673 71.2453 634.463 69.944C635.252 68.6213 636.329 67.5867 637.695 66.84C639.06 66.0933 640.617 65.72 642.367 65.72C644.137 65.72 645.705 66.0933 647.071 66.84C648.457 67.5867 649.535 68.6107 650.303 69.912C651.092 71.2133 651.487 72.728 651.487 74.456C651.487 76.1413 651.092 77.6453 650.303 78.968C649.535 80.2907 648.457 81.336 647.071 82.104C645.705 82.8507 644.137 83.224 642.367 83.224ZM642.367 79.8C643.348 79.8 644.223 79.5867 644.991 79.16C645.759 78.7333 646.356 78.1147 646.783 77.304C647.231 76.4933 647.455 75.544 647.455 74.456C647.455 73.3467 647.231 72.3973 646.783 71.608C646.356 70.7973 645.759 70.1787 644.991 69.752C644.223 69.3253 643.359 69.112 642.399 69.112C641.417 69.112 640.543 69.3253 639.775 69.752C639.028 70.1787 638.431 70.7973 637.983 71.608C637.535 72.3973 637.311 73.3467 637.311 74.456C637.311 75.544 637.535 76.4933 637.983 77.304C638.431 78.1147 639.028 78.7333 639.775 79.16C640.543 79.5867 641.407 79.8 642.367 79.8ZM655.438 83V65.912H659.63L666.51 78.04H664.846L672.078 65.912H675.822L675.854 83H672.238V70.2L672.878 70.616L666.478 81.208H664.75L658.318 70.328L659.086 70.136V83H655.438ZM681.219 83V65.912H697.603V83H693.635V68.376L694.563 69.304H684.291L685.219 68.376V83H681.219ZM713.369 83V79.544L713.145 78.808V72.76C713.145 71.5867 712.793 70.68 712.089 70.04C711.385 69.3787 710.318 69.048 708.889 69.048C707.929 69.048 706.979 69.1973 706.041 69.496C705.123 69.7947 704.345 70.2107 703.705 70.744L702.137 67.832C703.054 67.128 704.142 66.6053 705.401 66.264C706.681 65.9013 708.003 65.72 709.369 65.72C711.843 65.72 713.753 66.3173 715.097 67.512C716.462 68.6853 717.145 70.5093 717.145 72.984V83H713.369ZM707.993 83.224C706.713 83.224 705.593 83.0107 704.633 82.584C703.673 82.136 702.926 81.528 702.393 80.76C701.881 79.9707 701.625 79.0853 701.625 78.104C701.625 77.144 701.849 76.28 702.297 75.512C702.766 74.744 703.523 74.136 704.569 73.688C705.614 73.24 707.001 73.016 708.729 73.016H713.689V75.672H709.017C707.651 75.672 706.734 75.896 706.265 76.344C705.795 76.7707 705.561 77.304 705.561 77.944C705.561 78.6693 705.849 79.2453 706.425 79.672C707.001 80.0987 707.801 80.312 708.825 80.312C709.806 80.312 710.681 80.088 711.449 79.64C712.238 79.192 712.803 78.5307 713.145 77.656L713.817 80.056C713.433 81.0587 712.739 81.8373 711.737 82.392C710.755 82.9467 709.507 83.224 707.993 83.224ZM722.094 83V65.912H726.094V72.856H734.702V65.912H738.702V83H734.702V76.248H726.094V83H722.094ZM744.063 83V65.912H748.063V77.176L757.503 65.912H761.151V83H757.151V71.736L747.743 83H744.063ZM766.532 83V65.912H770.532V72.536H775.62V76.152H770.532V83H766.532ZM782.148 83.224C780.441 83.224 778.916 82.8507 777.572 82.104C776.249 81.336 775.204 80.2907 774.436 78.968C773.668 77.6453 773.284 76.1413 773.284 74.456C773.284 72.7493 773.668 71.2347 774.436 69.912C775.204 68.5893 776.249 67.5653 777.572 66.84C778.916 66.0933 780.441 65.72 782.148 65.72C783.876 65.72 785.401 66.0933 786.724 66.84C788.068 67.5653 789.124 68.5893 789.892 69.912C790.66 71.2347 791.044 72.7493 791.044 74.456C791.044 76.1413 790.66 77.656 789.892 79C789.124 80.3227 788.068 81.3573 786.724 82.104C785.401 82.8507 783.876 83.224 782.148 83.224ZM782.148 79.832C783.108 79.832 783.95 79.608 784.676 79.16C785.422 78.712 786.009 78.0933 786.436 77.304C786.862 76.5147 787.076 75.5653 787.076 74.456C787.076 73.3467 786.862 72.3973 786.436 71.608C786.009 70.7973 785.422 70.1787 784.676 69.752C783.95 69.3253 783.118 69.112 782.18 69.112C781.241 69.112 780.398 69.3253 779.652 69.752C778.905 70.1787 778.318 70.7973 777.892 71.608C777.465 72.3973 777.252 73.3467 777.252 74.456C777.252 75.5653 777.465 76.5147 777.892 77.304C778.318 78.0933 778.905 78.712 779.652 79.16C780.398 79.608 781.23 79.832 782.148 79.832ZM811.589 83.224C809.797 83.224 808.197 82.8507 806.789 82.104C805.402 81.336 804.314 80.2907 803.525 78.968C802.736 77.6453 802.341 76.1413 802.341 74.456C802.341 72.7493 802.736 71.2453 803.525 69.944C804.314 68.6213 805.402 67.5867 806.789 66.84C808.197 66.0933 809.797 65.72 811.589 65.72C813.253 65.72 814.714 66.0613 815.973 66.744C817.253 67.4053 818.224 68.3867 818.885 69.688L815.813 71.48C815.301 70.6693 814.672 70.072 813.925 69.688C813.2 69.304 812.41 69.112 811.557 69.112C810.576 69.112 809.69 69.3253 808.901 69.752C808.112 70.1787 807.493 70.7973 807.045 71.608C806.597 72.3973 806.373 73.3467 806.373 74.456C806.373 75.5653 806.597 76.5253 807.045 77.336C807.493 78.1253 808.112 78.7333 808.901 79.16C809.69 79.5867 810.576 79.8 811.557 79.8C812.41 79.8 813.2 79.608 813.925 79.224C814.672 78.84 815.301 78.2427 815.813 77.432L818.885 79.224C818.224 80.504 817.253 81.496 815.973 82.2C814.714 82.8827 813.253 83.224 811.589 83.224ZM831.879 83.224C830.492 83.224 829.223 82.904 828.071 82.264C826.94 81.624 826.033 80.664 825.351 79.384C824.689 78.0827 824.359 76.44 824.359 74.456C824.359 72.4507 824.679 70.808 825.319 69.528C825.98 68.248 826.876 67.2987 828.007 66.68C829.137 66.04 830.428 65.72 831.879 65.72C833.564 65.72 835.047 66.0827 836.327 66.808C837.628 67.5333 838.652 68.5467 839.399 69.848C840.167 71.1493 840.551 72.6853 840.551 74.456C840.551 76.2267 840.167 77.7733 839.399 79.096C838.652 80.3973 837.628 81.4107 836.327 82.136C835.047 82.8613 833.564 83.224 831.879 83.224ZM822.407 89.208V65.912H826.215V69.944L826.087 74.488L826.407 79.032V89.208H822.407ZM831.431 79.8C832.391 79.8 833.244 79.5867 833.991 79.16C834.759 78.7333 835.367 78.1147 835.815 77.304C836.263 76.4933 836.487 75.544 836.487 74.456C836.487 73.3467 836.263 72.3973 835.815 71.608C835.367 70.7973 834.759 70.1787 833.991 69.752C833.244 69.3253 832.391 69.112 831.431 69.112C830.471 69.112 829.607 69.3253 828.839 69.752C828.071 70.1787 827.463 70.7973 827.015 71.608C826.567 72.3973 826.343 73.3467 826.343 74.456C826.343 75.544 826.567 76.4933 827.015 77.304C827.463 78.1147 828.071 78.7333 828.839 79.16C829.607 79.5867 830.471 79.8 831.431 79.8ZM852.5 83.224C850.601 83.224 848.937 82.8507 847.508 82.104C846.1 81.336 845.001 80.2907 844.212 78.968C843.444 77.6453 843.06 76.1413 843.06 74.456C843.06 72.7493 843.433 71.2453 844.18 69.944C844.948 68.6213 845.993 67.5867 847.316 66.84C848.66 66.0933 850.185 65.72 851.892 65.72C853.556 65.72 855.038 66.0827 856.34 66.808C857.641 67.5333 858.665 68.5573 859.412 69.88C860.158 71.2027 860.532 72.76 860.532 74.552C860.532 74.7227 860.521 74.9147 860.5 75.128C860.5 75.3413 860.489 75.544 860.468 75.736H846.228V73.08H858.356L856.788 73.912C856.809 72.9307 856.606 72.0667 856.18 71.32C855.753 70.5733 855.166 69.9867 854.42 69.56C853.694 69.1333 852.852 68.92 851.892 68.92C850.91 68.92 850.046 69.1333 849.3 69.56C848.574 69.9867 847.998 70.584 847.572 71.352C847.166 72.0987 846.964 72.984 846.964 74.008V74.648C846.964 75.672 847.198 76.5787 847.668 77.368C848.137 78.1573 848.798 78.7653 849.652 79.192C850.505 79.6187 851.486 79.832 852.596 79.832C853.556 79.832 854.42 79.6827 855.188 79.384C855.956 79.0853 856.638 78.616 857.236 77.976L859.38 80.44C858.612 81.336 857.641 82.0293 856.468 82.52C855.316 82.9893 853.993 83.224 852.5 83.224ZM876.4 81.144V69.304H869.84L869.744 72.056C869.701 73.0373 869.637 73.9867 869.552 74.904C869.467 75.8 869.328 76.632 869.136 77.4C868.944 78.1467 868.667 78.7653 868.304 79.256C867.941 79.7467 867.461 80.0667 866.864 80.216L862.896 79.608C863.536 79.608 864.048 79.4053 864.432 79C864.837 78.5733 865.147 77.9973 865.36 77.272C865.595 76.5253 865.765 75.6827 865.872 74.744C865.979 73.784 866.053 72.792 866.096 71.768L866.32 65.912H880.4V81.144H876.4ZM862.288 86.808V79.608H882.928V86.808H879.184V83H866V86.808H862.288ZM886.501 83V65.912H890.501V77.176L899.941 65.912H903.589V83H899.589V71.736L890.181 83H886.501ZM917.813 83V65.912H921.813V72.856H930.421V65.912H934.421V83H930.421V76.248H921.813V83H917.813ZM950.15 83V79.544L949.926 78.808V72.76C949.926 71.5867 949.574 70.68 948.87 70.04C948.166 69.3787 947.099 69.048 945.67 69.048C944.71 69.048 943.76 69.1973 942.822 69.496C941.904 69.7947 941.126 70.2107 940.486 70.744L938.918 67.832C939.835 67.128 940.923 66.6053 942.182 66.264C943.462 65.9013 944.784 65.72 946.15 65.72C948.624 65.72 950.534 66.3173 951.878 67.512C953.243 68.6853 953.926 70.5093 953.926 72.984V83H950.15ZM944.774 83.224C943.494 83.224 942.374 83.0107 941.414 82.584C940.454 82.136 939.707 81.528 939.174 80.76C938.662 79.9707 938.406 79.0853 938.406 78.104C938.406 77.144 938.63 76.28 939.078 75.512C939.547 74.744 940.304 74.136 941.35 73.688C942.395 73.24 943.782 73.016 945.51 73.016H950.47V75.672H945.798C944.432 75.672 943.515 75.896 943.046 76.344C942.576 76.7707 942.342 77.304 942.342 77.944C942.342 78.6693 942.63 79.2453 943.206 79.672C943.782 80.0987 944.582 80.312 945.606 80.312C946.587 80.312 947.462 80.088 948.23 79.64C949.019 79.192 949.584 78.5307 949.926 77.656L950.598 80.056C950.214 81.0587 949.52 81.8373 948.518 82.392C947.536 82.9467 946.288 83.224 944.774 83.224ZM970.364 79.608L969.5 80.568V65.912H973.5V80.568L972.54 79.608H980.988L980.06 80.568V65.912H984.06V83H958.876V65.912H962.876V80.568L961.948 79.608H970.364ZM989.438 83V65.912H993.438V77.176L1002.88 65.912H1006.53V83H1002.53V71.736L993.118 83H989.438ZM1009.38 83L1016.9 73.208L1016.83 75.352L1009.67 65.912H1014.11L1019.14 72.632H1017.44L1022.5 65.912H1026.82L1019.59 75.352L1019.62 73.208L1027.11 83H1022.59L1017.31 75.864L1018.98 76.088L1013.79 83H1009.38ZM1038.81 83V65.912H1055.2V83H1051.23V68.376L1052.16 69.304H1041.89L1042.81 68.376V83H1038.81ZM1070.96 83V79.544L1070.74 78.808V72.76C1070.74 71.5867 1070.39 70.68 1069.68 70.04C1068.98 69.3787 1067.91 69.048 1066.48 69.048C1065.52 69.048 1064.57 69.1973 1063.63 69.496C1062.72 69.7947 1061.94 70.2107 1061.3 70.744L1059.73 67.832C1060.65 67.128 1061.74 66.6053 1062.99 66.264C1064.27 65.9013 1065.6 65.72 1066.96 65.72C1069.44 65.72 1071.35 66.3173 1072.69 67.512C1074.06 68.6853 1074.74 70.5093 1074.74 72.984V83H1070.96ZM1065.59 83.224C1064.31 83.224 1063.19 83.0107 1062.23 82.584C1061.27 82.136 1060.52 81.528 1059.99 80.76C1059.47 79.9707 1059.22 79.0853 1059.22 78.104C1059.22 77.144 1059.44 76.28 1059.89 75.512C1060.36 74.744 1061.12 74.136 1062.16 73.688C1063.21 73.24 1064.59 73.016 1066.32 73.016H1071.28V75.672H1066.61C1065.24 75.672 1064.33 75.896 1063.86 76.344C1063.39 76.7707 1063.15 77.304 1063.15 77.944C1063.15 78.6693 1063.44 79.2453 1064.02 79.672C1064.59 80.0987 1065.39 80.312 1066.42 80.312C1067.4 80.312 1068.27 80.088 1069.04 79.64C1069.83 79.192 1070.4 78.5307 1070.74 77.656L1071.41 80.056C1071.03 81.0587 1070.33 81.8373 1069.33 82.392C1068.35 82.9467 1067.1 83.224 1065.59 83.224ZM1089.16 83.224C1087.77 83.224 1086.5 82.904 1085.35 82.264C1084.22 81.624 1083.31 80.664 1082.63 79.384C1081.97 78.0827 1081.64 76.44 1081.64 74.456C1081.64 72.4507 1081.96 70.808 1082.6 69.528C1083.26 68.248 1084.16 67.2987 1085.29 66.68C1086.42 66.04 1087.71 65.72 1089.16 65.72C1090.85 65.72 1092.33 66.0827 1093.61 66.808C1094.91 67.5333 1095.93 68.5467 1096.68 69.848C1097.45 71.1493 1097.83 72.6853 1097.83 74.456C1097.83 76.2267 1097.45 77.7733 1096.68 79.096C1095.93 80.3973 1094.91 81.4107 1093.61 82.136C1092.33 82.8613 1090.85 83.224 1089.16 83.224ZM1079.69 89.208V65.912H1083.5V69.944L1083.37 74.488L1083.69 79.032V89.208H1079.69ZM1088.71 79.8C1089.67 79.8 1090.53 79.5867 1091.27 79.16C1092.04 78.7333 1092.65 78.1147 1093.1 77.304C1093.54 76.4933 1093.77 75.544 1093.77 74.456C1093.77 73.3467 1093.54 72.3973 1093.1 71.608C1092.65 70.7973 1092.04 70.1787 1091.27 69.752C1090.53 69.3253 1089.67 69.112 1088.71 69.112C1087.75 69.112 1086.89 69.3253 1086.12 69.752C1085.35 70.1787 1084.74 70.7973 1084.3 71.608C1083.85 72.3973 1083.62 73.3467 1083.62 74.456C1083.62 75.544 1083.85 76.4933 1084.3 77.304C1084.74 78.1147 1085.35 78.7333 1086.12 79.16C1086.89 79.5867 1087.75 79.8 1088.71 79.8ZM1104.74 83V68.344L1105.67 69.304H1098.72V65.912H1114.72V69.304H1107.81L1108.74 68.344V83H1104.74ZM1117.63 83V65.912H1121.63V72.856H1130.23V65.912H1134.23V83H1130.23V76.248H1121.63V83H1117.63ZM1147.56 83.224C1145.66 83.224 1144 82.8507 1142.57 82.104C1141.16 81.336 1140.06 80.2907 1139.27 78.968C1138.51 77.6453 1138.12 76.1413 1138.12 74.456C1138.12 72.7493 1138.5 71.2453 1139.24 69.944C1140.01 68.6213 1141.06 67.5867 1142.38 66.84C1143.72 66.0933 1145.25 65.72 1146.95 65.72C1148.62 65.72 1150.1 66.0827 1151.4 66.808C1152.7 67.5333 1153.73 68.5573 1154.47 69.88C1155.22 71.2027 1155.59 72.76 1155.59 74.552C1155.59 74.7227 1155.58 74.9147 1155.56 75.128C1155.56 75.3413 1155.55 75.544 1155.53 75.736H1141.29V73.08H1153.42L1151.85 73.912C1151.87 72.9307 1151.67 72.0667 1151.24 71.32C1150.82 70.5733 1150.23 69.9867 1149.48 69.56C1148.76 69.1333 1147.91 68.92 1146.95 68.92C1145.97 68.92 1145.11 69.1333 1144.36 69.56C1143.64 69.9867 1143.06 70.584 1142.63 71.352C1142.23 72.0987 1142.03 72.984 1142.03 74.008V74.648C1142.03 75.672 1142.26 76.5787 1142.73 77.368C1143.2 78.1573 1143.86 78.7653 1144.71 79.192C1145.57 79.6187 1146.55 79.832 1147.66 79.832C1148.62 79.832 1149.48 79.6827 1150.25 79.384C1151.02 79.0853 1151.7 78.616 1152.3 77.976L1154.44 80.44C1153.67 81.336 1152.7 82.0293 1151.53 82.52C1150.38 82.9893 1149.06 83.224 1147.56 83.224ZM1169.44 83.224C1168.05 83.224 1166.79 82.904 1165.63 82.264C1164.5 81.624 1163.6 80.664 1162.91 79.384C1162.25 78.0827 1161.92 76.44 1161.92 74.456C1161.92 72.4507 1162.24 70.808 1162.88 69.528C1163.54 68.248 1164.44 67.2987 1165.57 66.68C1166.7 66.04 1167.99 65.72 1169.44 65.72C1171.13 65.72 1172.61 66.0827 1173.89 66.808C1175.19 67.5333 1176.21 68.5467 1176.96 69.848C1177.73 71.1493 1178.11 72.6853 1178.11 74.456C1178.11 76.2267 1177.73 77.7733 1176.96 79.096C1176.21 80.3973 1175.19 81.4107 1173.89 82.136C1172.61 82.8613 1171.13 83.224 1169.44 83.224ZM1159.97 89.208V65.912H1163.78V69.944L1163.65 74.488L1163.97 79.032V89.208H1159.97ZM1168.99 79.8C1169.95 79.8 1170.81 79.5867 1171.55 79.16C1172.32 78.7333 1172.93 78.1147 1173.38 77.304C1173.83 76.4933 1174.05 75.544 1174.05 74.456C1174.05 73.3467 1173.83 72.3973 1173.38 71.608C1172.93 70.7973 1172.32 70.1787 1171.55 69.752C1170.81 69.3253 1169.95 69.112 1168.99 69.112C1168.03 69.112 1167.17 69.3253 1166.4 69.752C1165.63 70.1787 1165.03 70.7973 1164.58 71.608C1164.13 72.3973 1163.91 73.3467 1163.91 74.456C1163.91 75.544 1164.13 76.4933 1164.58 77.304C1165.03 78.1147 1165.63 78.7333 1166.4 79.16C1167.17 79.5867 1168.03 79.8 1168.99 79.8ZM1189.71 83.224C1187.96 83.224 1186.4 82.8507 1185.04 82.104C1183.67 81.336 1182.6 80.2907 1181.81 78.968C1181.02 77.6453 1180.62 76.1413 1180.62 74.456C1180.62 72.7493 1181.02 71.2453 1181.81 69.944C1182.6 68.6213 1183.67 67.5867 1185.04 66.84C1186.4 66.0933 1187.96 65.72 1189.71 65.72C1191.48 65.72 1193.05 66.0933 1194.41 66.84C1195.8 67.5867 1196.88 68.6107 1197.65 69.912C1198.44 71.2133 1198.83 72.728 1198.83 74.456C1198.83 76.1413 1198.44 77.6453 1197.65 78.968C1196.88 80.2907 1195.8 81.336 1194.41 82.104C1193.05 82.8507 1191.48 83.224 1189.71 83.224ZM1189.71 79.8C1190.69 79.8 1191.57 79.5867 1192.33 79.16C1193.1 78.7333 1193.7 78.1147 1194.13 77.304C1194.57 76.4933 1194.8 75.544 1194.8 74.456C1194.8 73.3467 1194.57 72.3973 1194.13 71.608C1193.7 70.7973 1193.1 70.1787 1192.33 69.752C1191.57 69.3253 1190.7 69.112 1189.74 69.112C1188.76 69.112 1187.89 69.3253 1187.12 69.752C1186.37 70.1787 1185.77 70.7973 1185.33 71.608C1184.88 72.3973 1184.65 73.3467 1184.65 74.456C1184.65 75.544 1184.88 76.4933 1185.33 77.304C1185.77 78.1147 1186.37 78.7333 1187.12 79.16C1187.89 79.5867 1188.75 79.8 1189.71 79.8ZM1202.78 83V65.912H1211.13C1213.2 65.912 1214.82 66.296 1216 67.064C1217.19 67.832 1217.79 68.92 1217.79 70.328C1217.79 71.7147 1217.24 72.8027 1216.13 73.592C1215.02 74.36 1213.54 74.744 1211.71 74.744L1212.19 73.752C1214.26 73.752 1215.8 74.136 1216.8 74.904C1217.82 75.6507 1218.33 76.7493 1218.33 78.2C1218.33 79.7147 1217.77 80.8987 1216.64 81.752C1215.51 82.584 1213.79 83 1211.49 83H1202.78ZM1206.59 80.088H1211.17C1212.25 80.088 1213.08 79.9173 1213.63 79.576C1214.18 79.2133 1214.46 78.6693 1214.46 77.944C1214.46 77.176 1214.21 76.6107 1213.69 76.248C1213.18 75.8853 1212.38 75.704 1211.29 75.704H1206.59V80.088ZM1206.59 73.048H1210.78C1211.81 73.048 1212.57 72.8667 1213.09 72.504C1213.62 72.12 1213.89 71.5867 1213.89 70.904C1213.89 70.2 1213.62 69.6773 1213.09 69.336C1212.57 68.9947 1211.81 68.824 1210.78 68.824H1206.59V73.048Z" fill="white"/>
</svg>
