<svg width="360" height="280" viewBox="0 0 360 280" fill="none" xmlns="http://www.w3.org/2000/svg">
<path d="M16.8 14.3996V9.59961C10.0718 9.59961 4.8 14.452 4.8 21.5996V38.3996H21.6V21.5996H12C12 14.3996 16.8 14.3996 16.8 14.3996ZM33.6 21.5996C33.6 14.3996 38.4 14.3996 38.4 14.3996V9.59961C31.6718 9.59961 26.4 14.452 26.4 21.5996V38.3996H43.2V21.5996H33.6Z" fill="#E89E4A"/>
<path d="M5.232 103.184H13.584V105.752H5.232V103.184ZM5.472 110.384H14.952V113H2.352V96.2H14.616V98.816H5.472V110.384ZM23.8089 113.168C22.4649 113.168 21.2649 112.888 20.2089 112.328C19.1689 111.752 18.3529 110.968 17.7609 109.976C17.1689 108.984 16.8729 107.856 16.8729 106.592C16.8729 105.312 17.1689 104.184 17.7609 103.208C18.3529 102.216 19.1689 101.44 20.2089 100.88C21.2649 100.32 22.4649 100.04 23.8089 100.04C25.0569 100.04 26.1529 100.296 27.0969 100.808C28.0569 101.304 28.7849 102.04 29.2809 103.016L26.9769 104.36C26.5929 103.752 26.1209 103.304 25.5609 103.016C25.0169 102.728 24.4249 102.584 23.7849 102.584C23.0489 102.584 22.3849 102.744 21.7929 103.064C21.2009 103.384 20.7369 103.848 20.4009 104.456C20.0649 105.048 19.8969 105.76 19.8969 106.592C19.8969 107.424 20.0649 108.144 20.4009 108.752C20.7369 109.344 21.2009 109.8 21.7929 110.12C22.3849 110.44 23.0489 110.6 23.7849 110.6C24.4249 110.6 25.0169 110.456 25.5609 110.168C26.1209 109.88 26.5929 109.432 26.9769 108.824L29.2809 110.168C28.7849 111.128 28.0569 111.872 27.0969 112.4C26.1529 112.912 25.0569 113.168 23.8089 113.168ZM29.7456 112.976L29.8896 110.456C30.0016 110.472 30.1056 110.488 30.2016 110.504C30.2976 110.52 30.3856 110.528 30.4656 110.528C30.9616 110.528 31.3456 110.376 31.6176 110.072C31.8896 109.768 32.0896 109.36 32.2176 108.848C32.3616 108.32 32.4576 107.736 32.5056 107.096C32.5696 106.44 32.6176 105.784 32.6496 105.128L32.8656 100.184H43.2336V113H40.2336V101.912L40.9296 102.728H34.8336L35.4816 101.888L35.3136 105.272C35.2656 106.408 35.1696 107.464 35.0256 108.44C34.8976 109.4 34.6896 110.24 34.4016 110.96C34.1296 111.68 33.7456 112.24 33.2496 112.64C32.7696 113.04 32.1536 113.24 31.4016 113.24C31.1616 113.24 30.8976 113.216 30.6096 113.168C30.3376 113.12 30.0496 113.056 29.7456 112.976ZM47.2738 113V100.184H50.2738V108.632L57.3538 100.184H60.0898V113H57.0898V104.552L50.0338 113H47.2738ZM70.7582 113V100.184H77.0222C78.5742 100.184 79.7902 100.472 80.6702 101.048C81.5662 101.624 82.0142 102.44 82.0142 103.496C82.0142 104.536 81.5982 105.352 80.7662 105.944C79.9342 106.52 78.8302 106.808 77.4542 106.808L77.8142 106.064C79.3662 106.064 80.5182 106.352 81.2702 106.928C82.0382 107.488 82.4222 108.312 82.4222 109.4C82.4222 110.536 81.9982 111.424 81.1502 112.064C80.3022 112.688 79.0142 113 77.2862 113H70.7582ZM73.6142 110.816H77.0462C77.8622 110.816 78.4782 110.688 78.8942 110.432C79.3102 110.16 79.5182 109.752 79.5182 109.208C79.5182 108.632 79.3262 108.208 78.9422 107.936C78.5582 107.664 77.9582 107.528 77.1422 107.528H73.6142V110.816ZM73.6142 105.536H76.7582C77.5262 105.536 78.1022 105.4 78.4862 105.128C78.8862 104.84 79.0862 104.44 79.0862 103.928C79.0862 103.4 78.8862 103.008 78.4862 102.752C78.1022 102.496 77.5262 102.368 76.7582 102.368H73.6142V105.536ZM98.5536 113V100.184H101.554V113H98.5536ZM91.8576 104.408C93.5056 104.408 94.7536 104.776 95.6016 105.512C96.4656 106.248 96.8976 107.288 96.8976 108.632C96.8976 110.024 96.4176 111.112 95.4576 111.896C94.5136 112.664 93.1696 113.04 91.4256 113.024L85.6176 113V100.184H88.6176V104.384L91.8576 104.408ZM91.1616 110.816C92.0416 110.832 92.7136 110.648 93.1776 110.264C93.6416 109.88 93.8736 109.32 93.8736 108.584C93.8736 107.848 93.6416 107.32 93.1776 107C92.7296 106.664 92.0576 106.488 91.1616 106.472L88.6176 106.448V110.792L91.1616 110.816ZM116.275 113.216C117.459 113.216 118.507 113.048 119.419 112.712C120.347 112.376 121.075 111.912 121.603 111.32C122.131 110.712 122.395 110.016 122.395 109.232C122.395 108.256 121.987 107.488 121.171 106.928C120.355 106.352 119.235 106.064 117.811 106.064L117.715 106.712C118.547 106.712 119.283 106.576 119.923 106.304C120.579 106.032 121.091 105.656 121.459 105.176C121.843 104.68 122.035 104.128 122.035 103.52C122.035 102.784 121.771 102.144 121.243 101.6C120.715 101.056 119.995 100.64 119.083 100.352C118.171 100.064 117.131 99.944 115.963 99.992C115.195 100.008 114.419 100.12 113.635 100.328C112.867 100.52 112.075 100.8 111.259 101.168L112.027 103.376C112.731 103.072 113.419 102.84 114.091 102.68C114.779 102.52 115.443 102.44 116.083 102.44C116.691 102.44 117.211 102.504 117.643 102.632C118.075 102.744 118.403 102.92 118.627 103.16C118.867 103.384 118.987 103.648 118.987 103.952C118.987 104.256 118.891 104.52 118.699 104.744C118.507 104.968 118.227 105.136 117.859 105.248C117.507 105.36 117.075 105.416 116.563 105.416H114.331V107.432H116.803C117.619 107.432 118.243 107.568 118.675 107.84C119.123 108.096 119.347 108.48 119.347 108.992C119.347 109.344 119.211 109.656 118.939 109.928C118.683 110.2 118.315 110.408 117.835 110.552C117.355 110.68 116.779 110.744 116.107 110.744C115.323 110.744 114.539 110.648 113.755 110.456C112.971 110.264 112.267 109.992 111.643 109.64L110.803 111.872C111.571 112.304 112.427 112.64 113.371 112.88C114.331 113.104 115.299 113.216 116.275 113.216ZM133.261 113V110.408L133.093 109.856V105.32C133.093 104.44 132.829 103.76 132.301 103.28C131.773 102.784 130.973 102.536 129.901 102.536C129.181 102.536 128.469 102.648 127.765 102.872C127.077 103.096 126.493 103.408 126.013 103.808L124.837 101.624C125.525 101.096 126.341 100.704 127.285 100.448C128.245 100.176 129.237 100.04 130.261 100.04C132.117 100.04 133.549 100.488 134.557 101.384C135.581 102.264 136.093 103.632 136.093 105.488V113H133.261ZM129.229 113.168C128.269 113.168 127.429 113.008 126.709 112.688C125.989 112.352 125.429 111.896 125.029 111.32C124.645 110.728 124.453 110.064 124.453 109.328C124.453 108.608 124.621 107.96 124.957 107.384C125.309 106.808 125.877 106.352 126.661 106.016C127.445 105.68 128.485 105.512 129.781 105.512H133.501V107.504H129.997C128.973 107.504 128.285 107.672 127.933 108.008C127.581 108.328 127.405 108.728 127.405 109.208C127.405 109.752 127.621 110.184 128.053 110.504C128.485 110.824 129.085 110.984 129.853 110.984C130.589 110.984 131.245 110.816 131.821 110.48C132.413 110.144 132.837 109.648 133.093 108.992L133.597 110.792C133.309 111.544 132.789 112.128 132.037 112.544C131.301 112.96 130.365 113.168 129.229 113.168ZM139.805 113V100.184H142.805V108.632L149.885 100.184H152.621V113H149.621V104.552L142.565 113H139.805ZM156.657 113V100.184H159.657V105.392H166.113V100.184H169.113V113H166.113V107.936H159.657V113H156.657ZM175.797 113V102.008L176.493 102.728H171.285V100.184H183.285V102.728H178.101L178.797 102.008V113H175.797ZM190.875 113.168C189.451 113.168 188.203 112.888 187.131 112.328C186.075 111.752 185.251 110.968 184.659 109.976C184.083 108.984 183.795 107.856 183.795 106.592C183.795 105.312 184.075 104.184 184.635 103.208C185.211 102.216 185.995 101.44 186.987 100.88C187.995 100.32 189.139 100.04 190.419 100.04C191.667 100.04 192.779 100.312 193.755 100.856C194.731 101.4 195.499 102.168 196.059 103.16C196.619 104.152 196.899 105.32 196.899 106.664C196.899 106.792 196.891 106.936 196.875 107.096C196.875 107.256 196.867 107.408 196.851 107.552H186.171V105.56H195.267L194.091 106.184C194.107 105.448 193.955 104.8 193.635 104.24C193.315 103.68 192.875 103.24 192.315 102.92C191.771 102.6 191.139 102.44 190.419 102.44C189.683 102.44 189.035 102.6 188.475 102.92C187.931 103.24 187.499 103.688 187.179 104.264C186.875 104.824 186.723 105.488 186.723 106.256V106.736C186.723 107.504 186.899 108.184 187.251 108.776C187.603 109.368 188.099 109.824 188.739 110.144C189.379 110.464 190.115 110.624 190.947 110.624C191.667 110.624 192.315 110.512 192.891 110.288C193.467 110.064 193.979 109.712 194.427 109.232L196.035 111.08C195.459 111.752 194.731 112.272 193.851 112.64C192.987 112.992 191.995 113.168 190.875 113.168ZM207.284 113.168C206.244 113.168 205.292 112.928 204.428 112.448C203.58 111.968 202.9 111.248 202.388 110.288C201.892 109.312 201.644 108.08 201.644 106.592C201.644 105.088 201.884 103.856 202.364 102.896C202.86 101.936 203.532 101.224 204.38 100.76C205.228 100.28 206.196 100.04 207.284 100.04C208.548 100.04 209.66 100.312 210.62 100.856C211.596 101.4 212.364 102.16 212.924 103.136C213.5 104.112 213.788 105.264 213.788 106.592C213.788 107.92 213.5 109.08 212.924 110.072C212.364 111.048 211.596 111.808 210.62 112.352C209.66 112.896 208.548 113.168 207.284 113.168ZM200.18 117.656V100.184H203.036V103.208L202.94 106.616L203.18 110.024V117.656H200.18ZM206.948 110.6C207.668 110.6 208.308 110.44 208.868 110.12C209.444 109.8 209.9 109.336 210.236 108.728C210.572 108.12 210.74 107.408 210.74 106.592C210.74 105.76 210.572 105.048 210.236 104.456C209.9 103.848 209.444 103.384 208.868 103.064C208.308 102.744 207.668 102.584 206.948 102.584C206.228 102.584 205.58 102.744 205.004 103.064C204.428 103.384 203.972 103.848 203.636 104.456C203.3 105.048 203.132 105.76 203.132 106.592C203.132 107.408 203.3 108.12 203.636 108.728C203.972 109.336 204.428 109.8 205.004 110.12C205.58 110.44 206.228 110.6 206.948 110.6ZM222.75 113.168C221.326 113.168 220.078 112.888 219.006 112.328C217.95 111.752 217.126 110.968 216.534 109.976C215.958 108.984 215.67 107.856 215.67 106.592C215.67 105.312 215.95 104.184 216.51 103.208C217.086 102.216 217.87 101.44 218.862 100.88C219.87 100.32 221.014 100.04 222.294 100.04C223.542 100.04 224.654 100.312 225.63 100.856C226.606 101.4 227.374 102.168 227.934 103.16C228.494 104.152 228.774 105.32 228.774 106.664C228.774 106.792 228.766 106.936 228.75 107.096C228.75 107.256 228.742 107.408 228.726 107.552H218.046V105.56H227.142L225.966 106.184C225.982 105.448 225.83 104.8 225.51 104.24C225.19 103.68 224.75 103.24 224.19 102.92C223.646 102.6 223.014 102.44 222.294 102.44C221.558 102.44 220.91 102.6 220.35 102.92C219.806 103.24 219.374 103.688 219.054 104.264C218.75 104.824 218.598 105.488 218.598 106.256V106.736C218.598 107.504 218.774 108.184 219.126 108.776C219.478 109.368 219.974 109.824 220.614 110.144C221.254 110.464 221.99 110.624 222.822 110.624C223.542 110.624 224.19 110.512 224.766 110.288C225.342 110.064 225.854 109.712 226.302 109.232L227.91 111.08C227.334 111.752 226.606 112.272 225.726 112.64C224.862 112.992 223.87 113.168 222.75 113.168ZM237.887 113.168C236.543 113.168 235.343 112.888 234.287 112.328C233.247 111.752 232.431 110.968 231.839 109.976C231.247 108.984 230.951 107.856 230.951 106.592C230.951 105.312 231.247 104.184 231.839 103.208C232.431 102.216 233.247 101.44 234.287 100.88C235.343 100.32 236.543 100.04 237.887 100.04C239.135 100.04 240.231 100.296 241.175 100.808C242.135 101.304 242.863 102.04 243.359 103.016L241.055 104.36C240.671 103.752 240.199 103.304 239.639 103.016C239.095 102.728 238.503 102.584 237.863 102.584C237.127 102.584 236.463 102.744 235.871 103.064C235.279 103.384 234.815 103.848 234.479 104.456C234.143 105.048 233.975 105.76 233.975 106.592C233.975 107.424 234.143 108.144 234.479 108.752C234.815 109.344 235.279 109.8 235.871 110.12C236.463 110.44 237.127 110.6 237.863 110.6C238.503 110.6 239.095 110.456 239.639 110.168C240.199 109.88 240.671 109.432 241.055 108.824L243.359 110.168C242.863 111.128 242.135 111.872 241.175 112.4C240.231 112.912 239.135 113.168 237.887 113.168ZM251.525 113.168C250.213 113.168 249.045 112.888 248.021 112.328C246.997 111.752 246.189 110.968 245.597 109.976C245.005 108.984 244.709 107.856 244.709 106.592C244.709 105.312 245.005 104.184 245.597 103.208C246.189 102.216 246.997 101.44 248.021 100.88C249.045 100.32 250.213 100.04 251.525 100.04C252.853 100.04 254.029 100.32 255.053 100.88C256.093 101.44 256.901 102.208 257.477 103.184C258.069 104.16 258.365 105.296 258.365 106.592C258.365 107.856 258.069 108.984 257.477 109.976C256.901 110.968 256.093 111.752 255.053 112.328C254.029 112.888 252.853 113.168 251.525 113.168ZM251.525 110.6C252.261 110.6 252.917 110.44 253.493 110.12C254.069 109.8 254.517 109.336 254.837 108.728C255.173 108.12 255.341 107.408 255.341 106.592C255.341 105.76 255.173 105.048 254.837 104.456C254.517 103.848 254.069 103.384 253.493 103.064C252.917 102.744 252.269 102.584 251.549 102.584C250.813 102.584 250.157 102.744 249.581 103.064C249.021 103.384 248.573 103.848 248.237 104.456C247.901 105.048 247.733 105.76 247.733 106.592C247.733 107.408 247.901 108.12 248.237 108.728C248.573 109.336 249.021 109.8 249.581 110.12C250.157 110.44 250.805 110.6 251.525 110.6ZM261.329 113V100.184H267.593C269.145 100.184 270.361 100.472 271.241 101.048C272.137 101.624 272.585 102.44 272.585 103.496C272.585 104.536 272.169 105.352 271.337 105.944C270.505 106.52 269.401 106.808 268.025 106.808L268.385 106.064C269.937 106.064 271.089 106.352 271.841 106.928C272.609 107.488 272.993 108.312 272.993 109.4C272.993 110.536 272.569 111.424 271.721 112.064C270.873 112.688 269.585 113 267.857 113H261.329ZM264.185 110.816H267.617C268.433 110.816 269.049 110.688 269.465 110.432C269.881 110.16 270.089 109.752 270.089 109.208C270.089 108.632 269.897 108.208 269.513 107.936C269.129 107.664 268.529 107.528 267.713 107.528H264.185V110.816ZM264.185 105.536H267.329C268.097 105.536 268.673 105.4 269.057 105.128C269.457 104.84 269.657 104.44 269.657 103.928C269.657 103.4 269.457 103.008 269.057 102.752C268.673 102.496 268.097 102.368 267.329 102.368H264.185V105.536ZM283.964 113V110.408L283.796 109.856V105.32C283.796 104.44 283.532 103.76 283.004 103.28C282.476 102.784 281.676 102.536 280.604 102.536C279.884 102.536 279.172 102.648 278.468 102.872C277.78 103.096 277.196 103.408 276.716 103.808L275.54 101.624C276.228 101.096 277.044 100.704 277.988 100.448C278.948 100.176 279.94 100.04 280.964 100.04C282.82 100.04 284.252 100.488 285.26 101.384C286.284 102.264 286.796 103.632 286.796 105.488V113H283.964ZM279.932 113.168C278.972 113.168 278.132 113.008 277.412 112.688C276.692 112.352 276.132 111.896 275.732 111.32C275.348 110.728 275.156 110.064 275.156 109.328C275.156 108.608 275.324 107.96 275.66 107.384C276.012 106.808 276.58 106.352 277.364 106.016C278.148 105.68 279.188 105.512 280.484 105.512H284.204V107.504H280.7C279.676 107.504 278.988 107.672 278.636 108.008C278.284 108.328 278.108 108.728 278.108 109.208C278.108 109.752 278.324 110.184 278.756 110.504C279.188 110.824 279.788 110.984 280.556 110.984C281.292 110.984 281.948 110.816 282.524 110.48C283.116 110.144 283.54 109.648 283.796 108.992L284.3 110.792C284.012 111.544 283.492 112.128 282.74 112.544C282.004 112.96 281.068 113.168 279.932 113.168ZM290.508 113V100.184H293.508V105.392H299.964V100.184H302.964V113H299.964V107.936H293.508V113H290.508ZM319.921 113V100.184H322.921V113H319.921ZM313.225 104.408C314.873 104.408 316.121 104.776 316.969 105.512C317.833 106.248 318.265 107.288 318.265 108.632C318.265 110.024 317.785 111.112 316.825 111.896C315.881 112.664 314.537 113.04 312.793 113.024L306.985 113V100.184H309.985V104.384L313.225 104.408ZM312.529 110.816C313.409 110.832 314.081 110.648 314.545 110.264C315.009 109.88 315.241 109.32 315.241 108.584C315.241 107.848 315.009 107.32 314.545 107C314.097 106.664 313.425 106.488 312.529 106.472L309.985 106.448V110.792L312.529 110.816ZM333.586 113V100.184H339.85C341.402 100.184 342.618 100.472 343.498 101.048C344.394 101.624 344.842 102.44 344.842 103.496C344.842 104.536 344.426 105.352 343.594 105.944C342.762 106.52 341.658 106.808 340.282 106.808L340.642 106.064C342.194 106.064 343.346 106.352 344.098 106.928C344.866 107.488 345.25 108.312 345.25 109.4C345.25 110.536 344.826 111.424 343.978 112.064C343.13 112.688 341.842 113 340.114 113H333.586ZM336.442 110.816H339.874C340.69 110.816 341.306 110.688 341.722 110.432C342.138 110.16 342.346 109.752 342.346 109.208C342.346 108.632 342.154 108.208 341.77 107.936C341.386 107.664 340.786 107.528 339.97 107.528H336.442V110.816ZM336.442 105.536H339.586C340.354 105.536 340.93 105.4 341.314 105.128C341.714 104.84 341.914 104.44 341.914 103.928C341.914 103.4 341.714 103.008 341.314 102.752C340.93 102.496 340.354 102.368 339.586 102.368H336.442V105.536ZM2.016 145V132.184H5.016V137.392H11.472V132.184H14.472V145H11.472V139.936H5.016V145H2.016ZM26.2686 145V142.408L26.1006 141.856V137.32C26.1006 136.44 25.8366 135.76 25.3086 135.28C24.7806 134.784 23.9806 134.536 22.9086 134.536C22.1886 134.536 21.4766 134.648 20.7726 134.872C20.0846 135.096 19.5006 135.408 19.0206 135.808L17.8446 133.624C18.5326 133.096 19.3486 132.704 20.2926 132.448C21.2526 132.176 22.2446 132.04 23.2686 132.04C25.1246 132.04 26.5566 132.488 27.5646 133.384C28.5886 134.264 29.1006 135.632 29.1006 137.488V145H26.2686ZM22.2366 145.168C21.2766 145.168 20.4366 145.008 19.7166 144.688C18.9966 144.352 18.4366 143.896 18.0366 143.32C17.6526 142.728 17.4606 142.064 17.4606 141.328C17.4606 140.608 17.6286 139.96 17.9646 139.384C18.3166 138.808 18.8846 138.352 19.6686 138.016C20.4526 137.68 21.4926 137.512 22.7886 137.512H26.5086V139.504H23.0046C21.9806 139.504 21.2926 139.672 20.9406 140.008C20.5886 140.328 20.4126 140.728 20.4126 141.208C20.4126 141.752 20.6286 142.184 21.0606 142.504C21.4926 142.824 22.0926 142.984 22.8606 142.984C23.5966 142.984 24.2526 142.816 24.8286 142.48C25.4206 142.144 25.8446 141.648 26.1006 140.992L26.6046 142.792C26.3166 143.544 25.7966 144.128 25.0446 144.544C24.3086 144.96 23.3726 145.168 22.2366 145.168ZM41.5969 143.608V134.728H36.6769L36.6049 136.792C36.5729 137.528 36.5249 138.24 36.4609 138.928C36.3969 139.6 36.2929 140.224 36.1489 140.8C36.0049 141.36 35.7969 141.824 35.5249 142.192C35.2529 142.56 34.8929 142.8 34.4449 142.912L31.4689 142.456C31.9489 142.456 32.3329 142.304 32.6209 142C32.9249 141.68 33.1569 141.248 33.3169 140.704C33.4929 140.144 33.6209 139.512 33.7009 138.808C33.7809 138.088 33.8369 137.344 33.8689 136.576L34.0369 132.184H44.5969V143.608H41.5969ZM31.0129 147.856V142.456H46.4929V147.856H43.6849V145H33.7969V147.856H31.0129ZM55.1483 145.168C53.7243 145.168 52.4763 144.888 51.4043 144.328C50.3483 143.752 49.5243 142.968 48.9323 141.976C48.3563 140.984 48.0683 139.856 48.0683 138.592C48.0683 137.312 48.3483 136.184 48.9083 135.208C49.4843 134.216 50.2683 133.44 51.2603 132.88C52.2683 132.32 53.4123 132.04 54.6923 132.04C55.9403 132.04 57.0523 132.312 58.0283 132.856C59.0043 133.4 59.7723 134.168 60.3323 135.16C60.8923 136.152 61.1723 137.32 61.1723 138.664C61.1723 138.792 61.1643 138.936 61.1483 139.096C61.1483 139.256 61.1403 139.408 61.1243 139.552H50.4443V137.56H59.5403L58.3643 138.184C58.3803 137.448 58.2283 136.8 57.9083 136.24C57.5883 135.68 57.1483 135.24 56.5883 134.92C56.0443 134.6 55.4123 134.44 54.6923 134.44C53.9563 134.44 53.3083 134.6 52.7483 134.92C52.2043 135.24 51.7723 135.688 51.4523 136.264C51.1483 136.824 50.9963 137.488 50.9963 138.256V138.736C50.9963 139.504 51.1723 140.184 51.5243 140.776C51.8763 141.368 52.3723 141.824 53.0123 142.144C53.6523 142.464 54.3883 142.624 55.2203 142.624C55.9403 142.624 56.5883 142.512 57.1643 142.288C57.7403 142.064 58.2523 141.712 58.7003 141.232L60.3083 143.08C59.7323 143.752 59.0043 144.272 58.1243 144.64C57.2603 144.992 56.2683 145.168 55.1483 145.168ZM79.3899 145L75.6459 138.856L78.0939 137.344L82.9659 145H79.3899ZM73.2219 139.864V137.368H77.5179V139.864H73.2219ZM78.3819 138.952L75.5499 138.616L79.4379 132.184H82.6299L78.3819 138.952ZM65.8539 145H62.3019L67.1499 137.344L69.5979 138.856L65.8539 145ZM74.1099 145H71.1339V132.184H74.1099V145ZM72.0219 139.864H67.7499V137.368H72.0219V139.864ZM66.8619 138.952L62.6139 132.184H65.8059L69.6699 138.616L66.8619 138.952ZM85.1957 145V132.184H88.1957V137.392H94.6517V132.184H97.6517V145H94.6517V139.936H88.1957V145H85.1957ZM107.384 145.168C106.072 145.168 104.904 144.888 103.88 144.328C102.856 143.752 102.048 142.968 101.456 141.976C100.864 140.984 100.568 139.856 100.568 138.592C100.568 137.312 100.864 136.184 101.456 135.208C102.048 134.216 102.856 133.44 103.88 132.88C104.904 132.32 106.072 132.04 107.384 132.04C108.712 132.04 109.888 132.32 110.912 132.88C111.952 133.44 112.76 134.208 113.336 135.184C113.928 136.16 114.224 137.296 114.224 138.592C114.224 139.856 113.928 140.984 113.336 141.976C112.76 142.968 111.952 143.752 110.912 144.328C109.888 144.888 108.712 145.168 107.384 145.168ZM107.384 142.6C108.12 142.6 108.776 142.44 109.352 142.12C109.928 141.8 110.376 141.336 110.696 140.728C111.032 140.12 111.2 139.408 111.2 138.592C111.2 137.76 111.032 137.048 110.696 136.456C110.376 135.848 109.928 135.384 109.352 135.064C108.776 134.744 108.128 134.584 107.408 134.584C106.672 134.584 106.016 134.744 105.44 135.064C104.88 135.384 104.432 135.848 104.096 136.456C103.76 137.048 103.592 137.76 103.592 138.592C103.592 139.408 103.76 140.12 104.096 140.728C104.432 141.336 104.88 141.8 105.44 142.12C106.016 142.44 106.664 142.6 107.384 142.6ZM117.188 145V132.184H120.332L125.492 141.28H124.244L129.668 132.184H132.476L132.5 145H129.788V135.4L130.268 135.712L125.468 143.656H124.172L119.348 135.496L119.924 135.352V145H117.188ZM152.349 145L147.717 138.856L150.165 137.344L155.877 145H152.349ZM143.157 145V132.184H146.157V145H143.157ZM145.269 139.864V137.368H149.613V139.864H145.269ZM150.453 138.952L147.645 138.616L152.349 132.184H155.565L150.453 138.952ZM163.283 145.168C161.971 145.168 160.803 144.888 159.779 144.328C158.755 143.752 157.947 142.968 157.355 141.976C156.763 140.984 156.467 139.856 156.467 138.592C156.467 137.312 156.763 136.184 157.355 135.208C157.947 134.216 158.755 133.44 159.779 132.88C160.803 132.32 161.971 132.04 163.283 132.04C164.611 132.04 165.787 132.32 166.811 132.88C167.851 133.44 168.659 134.208 169.235 135.184C169.827 136.16 170.123 137.296 170.123 138.592C170.123 139.856 169.827 140.984 169.235 141.976C168.659 142.968 167.851 143.752 166.811 144.328C165.787 144.888 164.611 145.168 163.283 145.168ZM163.283 142.6C164.019 142.6 164.675 142.44 165.251 142.12C165.827 141.8 166.275 141.336 166.595 140.728C166.931 140.12 167.099 139.408 167.099 138.592C167.099 137.76 166.931 137.048 166.595 136.456C166.275 135.848 165.827 135.384 165.251 135.064C164.675 134.744 164.027 134.584 163.307 134.584C162.571 134.584 161.915 134.744 161.339 135.064C160.779 135.384 160.331 135.848 159.995 136.456C159.659 137.048 159.491 137.76 159.491 138.592C159.491 139.408 159.659 140.12 159.995 140.728C160.331 141.336 160.779 141.8 161.339 142.12C161.915 142.44 162.563 142.6 163.283 142.6ZM173.086 145V132.184H176.23L181.39 141.28H180.142L185.566 132.184H188.374L188.398 145H185.686V135.4L186.166 135.712L181.366 143.656H180.07L175.246 135.496L175.822 135.352V145H173.086ZM192.422 145V132.184H204.71V145H201.734V134.032L202.43 134.728H194.726L195.422 134.032V145H192.422ZM214.734 145.168C213.31 145.168 212.062 144.888 210.99 144.328C209.934 143.752 209.11 142.968 208.518 141.976C207.942 140.984 207.654 139.856 207.654 138.592C207.654 137.312 207.934 136.184 208.494 135.208C209.07 134.216 209.854 133.44 210.846 132.88C211.854 132.32 212.998 132.04 214.278 132.04C215.526 132.04 216.638 132.312 217.614 132.856C218.59 133.4 219.358 134.168 219.918 135.16C220.478 136.152 220.758 137.32 220.758 138.664C220.758 138.792 220.75 138.936 220.734 139.096C220.734 139.256 220.726 139.408 220.71 139.552H210.03V137.56H219.126L217.95 138.184C217.966 137.448 217.814 136.8 217.494 136.24C217.174 135.68 216.734 135.24 216.174 134.92C215.63 134.6 214.998 134.44 214.278 134.44C213.542 134.44 212.894 134.6 212.334 134.92C211.79 135.24 211.358 135.688 211.038 136.264C210.734 136.824 210.582 137.488 210.582 138.256V138.736C210.582 139.504 210.758 140.184 211.11 140.776C211.462 141.368 211.958 141.824 212.598 142.144C213.238 142.464 213.974 142.624 214.806 142.624C215.526 142.624 216.174 142.512 216.75 142.288C217.326 142.064 217.838 141.712 218.286 141.232L219.894 143.08C219.318 143.752 218.59 144.272 217.71 144.64C216.846 144.992 215.854 145.168 214.734 145.168ZM226.211 145V134.008L226.907 134.728H221.699V132.184H233.699V134.728H228.515L229.211 134.008V145H226.211ZM241.289 145.168C239.865 145.168 238.617 144.888 237.545 144.328C236.489 143.752 235.665 142.968 235.073 141.976C234.497 140.984 234.209 139.856 234.209 138.592C234.209 137.312 234.489 136.184 235.049 135.208C235.625 134.216 236.409 133.44 237.401 132.88C238.409 132.32 239.553 132.04 240.833 132.04C242.081 132.04 243.193 132.312 244.169 132.856C245.145 133.4 245.913 134.168 246.473 135.16C247.033 136.152 247.313 137.32 247.313 138.664C247.313 138.792 247.305 138.936 247.289 139.096C247.289 139.256 247.281 139.408 247.265 139.552H236.585V137.56H245.681L244.505 138.184C244.521 137.448 244.369 136.8 244.049 136.24C243.729 135.68 243.289 135.24 242.729 134.92C242.185 134.6 241.553 134.44 240.833 134.44C240.097 134.44 239.449 134.6 238.889 134.92C238.345 135.24 237.913 135.688 237.593 136.264C237.289 136.824 237.137 137.488 237.137 138.256V138.736C237.137 139.504 237.313 140.184 237.665 140.776C238.017 141.368 238.513 141.824 239.153 142.144C239.793 142.464 240.529 142.624 241.361 142.624C242.081 142.624 242.729 142.512 243.305 142.288C243.881 142.064 244.393 141.712 244.841 141.232L246.449 143.08C245.873 143.752 245.145 144.272 244.265 144.64C243.401 144.992 242.409 145.168 241.289 145.168ZM250.594 145V132.184H253.594V137.392H260.05V132.184H263.05V145H260.05V139.936H253.594V145H250.594ZM269.735 145V134.008L270.431 134.728H265.223V132.184H277.223V134.728H272.039L272.735 134.008V145H269.735ZM279.399 145V132.184H282.399V137.392H288.855V132.184H291.855V145H288.855V139.936H282.399V145H279.399ZM301.587 145.168C300.275 145.168 299.107 144.888 298.083 144.328C297.059 143.752 296.251 142.968 295.659 141.976C295.067 140.984 294.771 139.856 294.771 138.592C294.771 137.312 295.067 136.184 295.659 135.208C296.251 134.216 297.059 133.44 298.083 132.88C299.107 132.32 300.275 132.04 301.587 132.04C302.915 132.04 304.091 132.32 305.115 132.88C306.155 133.44 306.963 134.208 307.539 135.184C308.131 136.16 308.427 137.296 308.427 138.592C308.427 139.856 308.131 140.984 307.539 141.976C306.963 142.968 306.155 143.752 305.115 144.328C304.091 144.888 302.915 145.168 301.587 145.168ZM301.587 142.6C302.323 142.6 302.979 142.44 303.555 142.12C304.131 141.8 304.579 141.336 304.899 140.728C305.235 140.12 305.403 139.408 305.403 138.592C305.403 137.76 305.235 137.048 304.899 136.456C304.579 135.848 304.131 135.384 303.555 135.064C302.979 134.744 302.331 134.584 301.611 134.584C300.875 134.584 300.219 134.744 299.643 135.064C299.083 135.384 298.635 135.848 298.299 136.456C297.963 137.048 297.795 137.76 297.795 138.592C297.795 139.408 297.963 140.12 298.299 140.728C298.635 141.336 299.083 141.8 299.643 142.12C300.219 142.44 300.867 142.6 301.587 142.6ZM311.391 145V132.184H314.535L319.695 141.28H318.447L323.871 132.184H326.679L326.703 145H323.991V135.4L324.471 135.712L319.671 143.656H318.375L313.551 135.496L314.127 135.352V145H311.391ZM2.016 177V164.184H14.304V177H11.328V166.032L12.024 166.728H4.32L5.016 166.032V177H2.016ZM26.1279 177V174.408L25.9599 173.856V169.32C25.9599 168.44 25.6959 167.76 25.1679 167.28C24.6399 166.784 23.8399 166.536 22.7679 166.536C22.0479 166.536 21.3359 166.648 20.6319 166.872C19.9439 167.096 19.3599 167.408 18.8799 167.808L17.7039 165.624C18.3919 165.096 19.2079 164.704 20.1519 164.448C21.1119 164.176 22.1039 164.04 23.1279 164.04C24.9839 164.04 26.4159 164.488 27.4239 165.384C28.4479 166.264 28.9599 167.632 28.9599 169.488V177H26.1279ZM22.0959 177.168C21.1359 177.168 20.2959 177.008 19.5759 176.688C18.8559 176.352 18.2959 175.896 17.8959 175.32C17.5119 174.728 17.3199 174.064 17.3199 173.328C17.3199 172.608 17.4879 171.96 17.8239 171.384C18.1759 170.808 18.7439 170.352 19.5279 170.016C20.3119 169.68 21.3519 169.512 22.6479 169.512H26.3679V171.504H22.8639C21.8399 171.504 21.1519 171.672 20.7999 172.008C20.4479 172.328 20.2719 172.728 20.2719 173.208C20.2719 173.752 20.4879 174.184 20.9199 174.504C21.3519 174.824 21.9519 174.984 22.7199 174.984C23.4559 174.984 24.1119 174.816 24.6879 174.48C25.2799 174.144 25.7039 173.648 25.9599 172.992L26.4639 174.792C26.1759 175.544 25.6559 176.128 24.9039 176.544C24.1679 176.96 23.2319 177.168 22.0959 177.168ZM39.7763 177.168C38.7363 177.168 37.7843 176.928 36.9203 176.448C36.0723 175.968 35.3923 175.248 34.8803 174.288C34.3843 173.312 34.1363 172.08 34.1363 170.592C34.1363 169.088 34.3763 167.856 34.8563 166.896C35.3523 165.936 36.0243 165.224 36.8723 164.76C37.7203 164.28 38.6883 164.04 39.7763 164.04C41.0403 164.04 42.1523 164.312 43.1123 164.856C44.0883 165.4 44.8563 166.16 45.4163 167.136C45.9923 168.112 46.2803 169.264 46.2803 170.592C46.2803 171.92 45.9923 173.08 45.4163 174.072C44.8563 175.048 44.0883 175.808 43.1123 176.352C42.1523 176.896 41.0403 177.168 39.7763 177.168ZM32.6723 181.656V164.184H35.5283V167.208L35.4323 170.616L35.6723 174.024V181.656H32.6723ZM39.4403 174.6C40.1603 174.6 40.8003 174.44 41.3603 174.12C41.9363 173.8 42.3923 173.336 42.7283 172.728C43.0643 172.12 43.2323 171.408 43.2323 170.592C43.2323 169.76 43.0643 169.048 42.7283 168.456C42.3923 167.848 41.9363 167.384 41.3603 167.064C40.8003 166.744 40.1603 166.584 39.4403 166.584C38.7203 166.584 38.0723 166.744 37.4963 167.064C36.9203 167.384 36.4643 167.848 36.1283 168.456C35.7923 169.048 35.6243 169.76 35.6243 170.592C35.6243 171.408 35.7923 172.12 36.1283 172.728C36.4643 173.336 36.9203 173.8 37.4963 174.12C38.0723 174.44 38.7203 174.6 39.4403 174.6ZM51.4613 177V166.008L52.1573 166.728H46.9493V164.184H58.9493V166.728H53.7653L54.4613 166.008V177H51.4613ZM61.1254 177V164.184H64.1254V169.392H70.5814V164.184H73.5814V177H70.5814V171.936H64.1254V177H61.1254ZM83.5779 177.168C82.1539 177.168 80.9059 176.888 79.8339 176.328C78.7779 175.752 77.9539 174.968 77.3619 173.976C76.7859 172.984 76.4979 171.856 76.4979 170.592C76.4979 169.312 76.7779 168.184 77.3379 167.208C77.9139 166.216 78.6979 165.44 79.6899 164.88C80.6979 164.32 81.8419 164.04 83.1219 164.04C84.3699 164.04 85.4819 164.312 86.4579 164.856C87.4339 165.4 88.2019 166.168 88.7619 167.16C89.3219 168.152 89.6019 169.32 89.6019 170.664C89.6019 170.792 89.5939 170.936 89.5779 171.096C89.5779 171.256 89.5699 171.408 89.5539 171.552H78.8739V169.56H87.9699L86.7939 170.184C86.8099 169.448 86.6579 168.8 86.3379 168.24C86.0179 167.68 85.5779 167.24 85.0179 166.92C84.4739 166.6 83.8419 166.44 83.1219 166.44C82.3859 166.44 81.7379 166.6 81.1779 166.92C80.6339 167.24 80.2019 167.688 79.8819 168.264C79.5779 168.824 79.4259 169.488 79.4259 170.256V170.736C79.4259 171.504 79.6019 172.184 79.9539 172.776C80.3059 173.368 80.8019 173.824 81.4419 174.144C82.0819 174.464 82.8179 174.624 83.6499 174.624C84.3699 174.624 85.0179 174.512 85.5939 174.288C86.1699 174.064 86.6819 173.712 87.1299 173.232L88.7379 175.08C88.1619 175.752 87.4339 176.272 86.5539 176.64C85.6899 176.992 84.6979 177.168 83.5779 177.168ZM99.9872 177.168C98.9472 177.168 97.9952 176.928 97.1312 176.448C96.2832 175.968 95.6032 175.248 95.0912 174.288C94.5952 173.312 94.3472 172.08 94.3472 170.592C94.3472 169.088 94.5872 167.856 95.0672 166.896C95.5632 165.936 96.2352 165.224 97.0832 164.76C97.9312 164.28 98.8992 164.04 99.9872 164.04C101.251 164.04 102.363 164.312 103.323 164.856C104.299 165.4 105.067 166.16 105.627 167.136C106.203 168.112 106.491 169.264 106.491 170.592C106.491 171.92 106.203 173.08 105.627 174.072C105.067 175.048 104.299 175.808 103.323 176.352C102.363 176.896 101.251 177.168 99.9872 177.168ZM92.8832 181.656V164.184H95.7392V167.208L95.6432 170.616L95.8832 174.024V181.656H92.8832ZM99.6512 174.6C100.371 174.6 101.011 174.44 101.571 174.12C102.147 173.8 102.603 173.336 102.939 172.728C103.275 172.12 103.443 171.408 103.443 170.592C103.443 169.76 103.275 169.048 102.939 168.456C102.603 167.848 102.147 167.384 101.571 167.064C101.011 166.744 100.371 166.584 99.6512 166.584C98.9312 166.584 98.2832 166.744 97.7072 167.064C97.1312 167.384 96.6752 167.848 96.3392 168.456C96.0032 169.048 95.8352 169.76 95.8352 170.592C95.8352 171.408 96.0032 172.12 96.3392 172.728C96.6752 173.336 97.1312 173.8 97.7072 174.12C98.2832 174.44 98.9312 174.6 99.6512 174.6ZM115.453 177.168C114.029 177.168 112.781 176.888 111.709 176.328C110.653 175.752 109.829 174.968 109.237 173.976C108.661 172.984 108.373 171.856 108.373 170.592C108.373 169.312 108.653 168.184 109.213 167.208C109.789 166.216 110.573 165.44 111.565 164.88C112.573 164.32 113.717 164.04 114.997 164.04C116.245 164.04 117.357 164.312 118.333 164.856C119.309 165.4 120.077 166.168 120.637 167.16C121.197 168.152 121.477 169.32 121.477 170.664C121.477 170.792 121.469 170.936 121.453 171.096C121.453 171.256 121.445 171.408 121.429 171.552H110.749V169.56H119.845L118.669 170.184C118.685 169.448 118.533 168.8 118.213 168.24C117.893 167.68 117.453 167.24 116.893 166.92C116.349 166.6 115.717 166.44 114.997 166.44C114.261 166.44 113.613 166.6 113.053 166.92C112.509 167.24 112.077 167.688 111.757 168.264C111.453 168.824 111.301 169.488 111.301 170.256V170.736C111.301 171.504 111.477 172.184 111.829 172.776C112.181 173.368 112.677 173.824 113.317 174.144C113.957 174.464 114.693 174.624 115.525 174.624C116.245 174.624 116.893 174.512 117.469 174.288C118.045 174.064 118.557 173.712 119.005 173.232L120.613 175.08C120.037 175.752 119.309 176.272 118.429 176.64C117.565 176.992 116.573 177.168 115.453 177.168ZM123.918 180.624L125.31 175.32L125.718 177.096C125.158 177.096 124.686 176.928 124.302 176.592C123.934 176.24 123.75 175.768 123.75 175.176C123.75 174.568 123.934 174.088 124.302 173.736C124.686 173.368 125.15 173.184 125.694 173.184C126.254 173.184 126.718 173.368 127.086 173.736C127.454 174.104 127.638 174.584 127.638 175.176C127.638 175.336 127.622 175.512 127.59 175.704C127.558 175.88 127.502 176.088 127.422 176.328C127.358 176.568 127.246 176.872 127.086 177.24L125.862 180.624H123.918ZM137.25 177V164.184H140.394L145.554 173.28H144.306L149.73 164.184H152.538L152.562 177H149.85V167.4L150.33 167.712L145.53 175.656H144.234L139.41 167.496L139.986 167.352V177H137.25ZM169.522 177V164.184H172.522V177H169.522ZM162.826 168.408C164.474 168.408 165.722 168.776 166.57 169.512C167.434 170.248 167.866 171.288 167.866 172.632C167.866 174.024 167.386 175.112 166.426 175.896C165.482 176.664 164.138 177.04 162.394 177.024L156.586 177V164.184H159.586V168.384L162.826 168.408ZM162.13 174.816C163.01 174.832 163.682 174.648 164.146 174.264C164.61 173.88 164.842 173.32 164.842 172.584C164.842 171.848 164.61 171.32 164.146 171C163.698 170.664 163.026 170.488 162.13 170.472L159.586 170.448V174.792L162.13 174.816ZM189.308 177.24C188.252 177.24 187.308 177.08 186.476 176.76C185.644 176.44 184.924 175.952 184.316 175.296C183.724 174.624 183.268 173.776 182.948 172.752C182.628 171.728 182.468 170.512 182.468 169.104C182.468 168.08 182.556 167.144 182.732 166.296C182.908 165.448 183.172 164.688 183.524 164.016C183.876 163.328 184.316 162.72 184.844 162.192C185.388 161.664 186.02 161.224 186.74 160.872C187.46 160.52 188.276 160.248 189.188 160.056L195.14 158.784L195.572 161.472L190.172 162.576C189.868 162.64 189.5 162.736 189.068 162.864C188.652 162.976 188.22 163.152 187.772 163.392C187.34 163.616 186.932 163.944 186.548 164.376C186.18 164.792 185.876 165.336 185.636 166.008C185.412 166.664 185.3 167.488 185.3 168.48C185.3 168.784 185.308 169.016 185.324 169.176C185.356 169.32 185.38 169.48 185.396 169.656C185.428 169.816 185.444 170.056 185.444 170.376L184.316 169.2C184.636 168.384 185.076 167.688 185.636 167.112C186.212 166.52 186.876 166.072 187.628 165.768C188.396 165.448 189.228 165.288 190.124 165.288C191.324 165.288 192.388 165.536 193.316 166.032C194.244 166.528 194.972 167.224 195.5 168.12C196.028 169.016 196.292 170.032 196.292 171.168C196.292 172.352 196.004 173.4 195.428 174.312C194.852 175.224 194.036 175.944 192.98 176.472C191.94 176.984 190.716 177.24 189.308 177.24ZM189.548 174.816C190.268 174.816 190.9 174.664 191.444 174.36C192.004 174.04 192.436 173.608 192.74 173.064C193.06 172.52 193.22 171.912 193.22 171.24C193.22 170.568 193.06 169.984 192.74 169.488C192.436 168.976 192.004 168.568 191.444 168.264C190.9 167.96 190.252 167.808 189.5 167.808C188.78 167.808 188.132 167.952 187.556 168.24C186.996 168.528 186.556 168.928 186.236 169.44C185.932 169.936 185.78 170.512 185.78 171.168C185.78 171.84 185.94 172.456 186.26 173.016C186.58 173.576 187.02 174.016 187.58 174.336C188.156 174.656 188.812 174.816 189.548 174.816ZM212.132 177V164.184H215.132V177H212.132ZM205.436 168.408C207.084 168.408 208.332 168.776 209.18 169.512C210.044 170.248 210.476 171.288 210.476 172.632C210.476 174.024 209.996 175.112 209.036 175.896C208.092 176.664 206.748 177.04 205.004 177.024L199.196 177V164.184H202.196V168.384L205.436 168.408ZM204.74 174.816C205.62 174.832 206.292 174.648 206.756 174.264C207.22 173.88 207.452 173.32 207.452 172.584C207.452 171.848 207.22 171.32 206.756 171C206.308 170.664 205.636 170.488 204.74 170.472L202.196 170.448V174.792L204.74 174.816ZM217.292 176.976L217.436 174.456C217.548 174.472 217.652 174.488 217.748 174.504C217.844 174.52 217.932 174.528 218.012 174.528C218.508 174.528 218.892 174.376 219.164 174.072C219.436 173.768 219.636 173.36 219.764 172.848C219.908 172.32 220.004 171.736 220.052 171.096C220.116 170.44 220.164 169.784 220.196 169.128L220.412 164.184H230.78V177H227.78V165.912L228.476 166.728H222.38L223.028 165.888L222.86 169.272C222.812 170.408 222.716 171.464 222.572 172.44C222.444 173.4 222.236 174.24 221.948 174.96C221.676 175.68 221.292 176.24 220.796 176.64C220.316 177.04 219.7 177.24 218.948 177.24C218.708 177.24 218.444 177.216 218.156 177.168C217.884 177.12 217.596 177.056 217.292 176.976ZM234.821 177V164.184H237.821V172.632L244.901 164.184H247.637V177H244.637V168.552L237.581 177H234.821ZM264.425 177.24C263.369 177.24 262.425 177.08 261.593 176.76C260.761 176.44 260.041 175.952 259.433 175.296C258.841 174.624 258.385 173.776 258.065 172.752C257.745 171.728 257.585 170.512 257.585 169.104C257.585 168.08 257.673 167.144 257.849 166.296C258.025 165.448 258.289 164.688 258.641 164.016C258.993 163.328 259.433 162.72 259.961 162.192C260.505 161.664 261.137 161.224 261.857 160.872C262.577 160.52 263.393 160.248 264.305 160.056L270.257 158.784L270.689 161.472L265.289 162.576C264.985 162.64 264.617 162.736 264.185 162.864C263.769 162.976 263.337 163.152 262.889 163.392C262.457 163.616 262.049 163.944 261.665 164.376C261.297 164.792 260.993 165.336 260.753 166.008C260.529 166.664 260.417 167.488 260.417 168.48C260.417 168.784 260.425 169.016 260.441 169.176C260.473 169.32 260.497 169.48 260.513 169.656C260.545 169.816 260.561 170.056 260.561 170.376L259.433 169.2C259.753 168.384 260.193 167.688 260.753 167.112C261.329 166.52 261.993 166.072 262.745 165.768C263.513 165.448 264.345 165.288 265.241 165.288C266.441 165.288 267.505 165.536 268.433 166.032C269.361 166.528 270.089 167.224 270.617 168.12C271.145 169.016 271.409 170.032 271.409 171.168C271.409 172.352 271.121 173.4 270.545 174.312C269.969 175.224 269.153 175.944 268.097 176.472C267.057 176.984 265.833 177.24 264.425 177.24ZM264.665 174.816C265.385 174.816 266.017 174.664 266.561 174.36C267.121 174.04 267.553 173.608 267.857 173.064C268.177 172.52 268.337 171.912 268.337 171.24C268.337 170.568 268.177 169.984 267.857 169.488C267.553 168.976 267.121 168.568 266.561 168.264C266.017 167.96 265.369 167.808 264.617 167.808C263.897 167.808 263.249 167.952 262.673 168.24C262.113 168.528 261.673 168.928 261.353 169.44C261.049 169.936 260.897 170.512 260.897 171.168C260.897 171.84 261.057 172.456 261.377 173.016C261.697 173.576 262.137 174.016 262.697 174.336C263.273 174.656 263.929 174.816 264.665 174.816ZM287.249 177V164.184H290.249V177H287.249ZM280.553 168.408C282.201 168.408 283.449 168.776 284.297 169.512C285.161 170.248 285.593 171.288 285.593 172.632C285.593 174.024 285.113 175.112 284.153 175.896C283.209 176.664 281.865 177.04 280.121 177.024L274.313 177V164.184H277.313V168.384L280.553 168.408ZM279.857 174.816C280.737 174.832 281.409 174.648 281.873 174.264C282.337 173.88 282.569 173.32 282.569 172.584C282.569 171.848 282.337 171.32 281.873 171C281.425 170.664 280.753 170.488 279.857 170.472L277.313 170.448V174.792L279.857 174.816ZM7.728 209.168C6.416 209.168 5.248 208.888 4.224 208.328C3.2 207.752 2.392 206.968 1.8 205.976C1.208 204.984 0.912 203.856 0.912 202.592C0.912 201.312 1.208 200.184 1.8 199.208C2.392 198.216 3.2 197.44 4.224 196.88C5.248 196.32 6.416 196.04 7.728 196.04C9.056 196.04 10.232 196.32 11.256 196.88C12.296 197.44 13.104 198.208 13.68 199.184C14.272 200.16 14.568 201.296 14.568 202.592C14.568 203.856 14.272 204.984 13.68 205.976C13.104 206.968 12.296 207.752 11.256 208.328C10.232 208.888 9.056 209.168 7.728 209.168ZM7.728 206.6C8.464 206.6 9.12 206.44 9.696 206.12C10.272 205.8 10.72 205.336 11.04 204.728C11.376 204.12 11.544 203.408 11.544 202.592C11.544 201.76 11.376 201.048 11.04 200.456C10.72 199.848 10.272 199.384 9.696 199.064C9.12 198.744 8.472 198.584 7.752 198.584C7.016 198.584 6.36 198.744 5.784 199.064C5.224 199.384 4.776 199.848 4.44 200.456C4.104 201.048 3.936 201.76 3.936 202.592C3.936 203.408 4.104 204.12 4.44 204.728C4.776 205.336 5.224 205.8 5.784 206.12C6.36 206.44 7.008 206.6 7.728 206.6ZM25.6196 203.936C25.0116 204.224 24.3636 204.464 23.6756 204.656C23.0036 204.832 22.2916 204.92 21.5396 204.92C19.9236 204.92 18.6676 204.544 17.7716 203.792C16.8756 203.04 16.4276 201.872 16.4276 200.288V196.184H19.4276V200.096C19.4276 200.944 19.6676 201.56 20.1476 201.944C20.6436 202.328 21.3236 202.52 22.1876 202.52C22.7636 202.52 23.3396 202.448 23.9156 202.304C24.4916 202.16 25.0596 201.96 25.6196 201.704V203.936ZM25.4036 209V196.184H28.4036V209H25.4036ZM38.4139 209.168C36.9899 209.168 35.7419 208.888 34.6699 208.328C33.6139 207.752 32.7899 206.968 32.1979 205.976C31.6219 204.984 31.3339 203.856 31.3339 202.592C31.3339 201.312 31.6139 200.184 32.1739 199.208C32.7499 198.216 33.5339 197.44 34.5259 196.88C35.5339 196.32 36.6779 196.04 37.9579 196.04C39.2059 196.04 40.3179 196.312 41.2939 196.856C42.2699 197.4 43.0379 198.168 43.5979 199.16C44.1579 200.152 44.4379 201.32 44.4379 202.664C44.4379 202.792 44.4299 202.936 44.4139 203.096C44.4139 203.256 44.4059 203.408 44.3899 203.552H33.7099V201.56H42.8059L41.6299 202.184C41.6459 201.448 41.4939 200.8 41.1739 200.24C40.8539 199.68 40.4139 199.24 39.8539 198.92C39.3099 198.6 38.6779 198.44 37.9579 198.44C37.2219 198.44 36.5739 198.6 36.0139 198.92C35.4699 199.24 35.0379 199.688 34.7179 200.264C34.4139 200.824 34.2619 201.488 34.2619 202.256V202.736C34.2619 203.504 34.4379 204.184 34.7899 204.776C35.1419 205.368 35.6379 205.824 36.2779 206.144C36.9179 206.464 37.6539 206.624 38.4859 206.624C39.2059 206.624 39.8539 206.512 40.4299 206.288C41.0059 206.064 41.5179 205.712 41.9659 205.232L43.5739 207.08C42.9979 207.752 42.2699 208.272 41.3899 208.64C40.5259 208.992 39.5339 209.168 38.4139 209.168ZM47.7191 209V196.184H50.7191V201.392H57.1751V196.184H60.1751V209H57.1751V203.936H50.7191V209H47.7191ZM70.6277 200.408C72.2757 200.408 73.5317 200.776 74.3957 201.512C75.2597 202.248 75.6917 203.288 75.6917 204.632C75.6917 206.024 75.2117 207.112 74.2517 207.896C73.2917 208.664 71.9397 209.04 70.1957 209.024L64.1957 209V196.184H67.1957V200.384L70.6277 200.408ZM69.9317 206.816C70.8117 206.832 71.4837 206.648 71.9477 206.264C72.4117 205.88 72.6437 205.32 72.6437 204.584C72.6437 203.848 72.4117 203.32 71.9477 203C71.4997 202.664 70.8277 202.488 69.9317 202.472L67.1957 202.448V206.792L69.9317 206.816ZM92.0653 209.168C91.0253 209.168 90.0733 208.928 89.2093 208.448C88.3613 207.968 87.6813 207.248 87.1693 206.288C86.6733 205.312 86.4253 204.08 86.4253 202.592C86.4253 201.088 86.6653 199.856 87.1453 198.896C87.6413 197.936 88.3133 197.224 89.1613 196.76C90.0093 196.28 90.9773 196.04 92.0653 196.04C93.3293 196.04 94.4413 196.312 95.4013 196.856C96.3773 197.4 97.1453 198.16 97.7053 199.136C98.2813 200.112 98.5693 201.264 98.5693 202.592C98.5693 203.92 98.2813 205.08 97.7053 206.072C97.1453 207.048 96.3773 207.808 95.4013 208.352C94.4413 208.896 93.3293 209.168 92.0653 209.168ZM84.9613 213.656V196.184H87.8173V199.208L87.7213 202.616L87.9613 206.024V213.656H84.9613ZM91.7293 206.6C92.4493 206.6 93.0893 206.44 93.6493 206.12C94.2253 205.8 94.6813 205.336 95.0173 204.728C95.3533 204.12 95.5213 203.408 95.5213 202.592C95.5213 201.76 95.3533 201.048 95.0173 200.456C94.6813 199.848 94.2253 199.384 93.6493 199.064C93.0893 198.744 92.4493 198.584 91.7293 198.584C91.0093 198.584 90.3613 198.744 89.7853 199.064C89.2093 199.384 88.7533 199.848 88.4173 200.456C88.0813 201.048 87.9133 201.76 87.9133 202.592C87.9133 203.408 88.0813 204.12 88.4173 204.728C88.7533 205.336 89.2093 205.8 89.7853 206.12C90.3613 206.44 91.0093 206.6 91.7293 206.6ZM109.167 209V206.408L108.999 205.856V201.32C108.999 200.44 108.735 199.76 108.207 199.28C107.679 198.784 106.879 198.536 105.807 198.536C105.087 198.536 104.375 198.648 103.671 198.872C102.983 199.096 102.399 199.408 101.919 199.808L100.743 197.624C101.431 197.096 102.247 196.704 103.191 196.448C104.151 196.176 105.143 196.04 106.167 196.04C108.023 196.04 109.455 196.488 110.463 197.384C111.487 198.264 111.999 199.632 111.999 201.488V209H109.167ZM105.135 209.168C104.175 209.168 103.335 209.008 102.615 208.688C101.895 208.352 101.335 207.896 100.935 207.32C100.551 206.728 100.359 206.064 100.359 205.328C100.359 204.608 100.527 203.96 100.863 203.384C101.215 202.808 101.783 202.352 102.567 202.016C103.351 201.68 104.391 201.512 105.687 201.512H109.407V203.504H105.903C104.879 203.504 104.191 203.672 103.839 204.008C103.487 204.328 103.311 204.728 103.311 205.208C103.311 205.752 103.527 206.184 103.959 206.504C104.391 206.824 104.991 206.984 105.759 206.984C106.495 206.984 107.151 206.816 107.727 206.48C108.319 206.144 108.743 205.648 108.999 204.992L109.503 206.792C109.215 207.544 108.695 208.128 107.943 208.544C107.207 208.96 106.271 209.168 105.135 209.168ZM124.495 207.608V198.728H119.575L119.503 200.792C119.471 201.528 119.423 202.24 119.359 202.928C119.295 203.6 119.191 204.224 119.047 204.8C118.903 205.36 118.695 205.824 118.423 206.192C118.151 206.56 117.791 206.8 117.343 206.912L114.367 206.456C114.847 206.456 115.231 206.304 115.519 206C115.823 205.68 116.055 205.248 116.215 204.704C116.391 204.144 116.519 203.512 116.599 202.808C116.679 202.088 116.735 201.344 116.767 200.576L116.935 196.184H127.495V207.608H124.495ZM113.911 211.856V206.456H129.391V211.856H126.583V209H116.695V211.856H113.911ZM145.007 209V196.184H148.007V209H145.007ZM138.311 200.408C139.959 200.408 141.207 200.776 142.055 201.512C142.919 202.248 143.351 203.288 143.351 204.632C143.351 206.024 142.871 207.112 141.911 207.896C140.967 208.664 139.623 209.04 137.879 209.024L132.071 209V196.184H135.071V200.384L138.311 200.408ZM137.615 206.816C138.495 206.832 139.167 206.648 139.631 206.264C140.095 205.88 140.327 205.32 140.327 204.584C140.327 203.848 140.095 203.32 139.631 203C139.183 202.664 138.511 202.488 137.615 202.472L135.071 202.448V206.792L137.615 206.816ZM158.672 209V196.184H164.936C166.488 196.184 167.704 196.472 168.584 197.048C169.48 197.624 169.928 198.44 169.928 199.496C169.928 200.536 169.512 201.352 168.68 201.944C167.848 202.52 166.744 202.808 165.368 202.808L165.728 202.064C167.28 202.064 168.432 202.352 169.184 202.928C169.952 203.488 170.336 204.312 170.336 205.4C170.336 206.536 169.912 207.424 169.064 208.064C168.216 208.688 166.928 209 165.2 209H158.672ZM161.528 206.816H164.96C165.776 206.816 166.392 206.688 166.808 206.432C167.224 206.16 167.432 205.752 167.432 205.208C167.432 204.632 167.24 204.208 166.856 203.936C166.472 203.664 165.872 203.528 165.056 203.528H161.528V206.816ZM161.528 201.536H164.672C165.44 201.536 166.016 201.4 166.4 201.128C166.8 200.84 167 200.44 167 199.928C167 199.4 166.8 199.008 166.4 198.752C166.016 198.496 165.44 198.368 164.672 198.368H161.528V201.536ZM173.532 209V196.184H176.532V204.632L183.612 196.184H186.348V209H183.348V200.552L176.292 209H173.532ZM199.167 207.608V198.728H194.247L194.175 200.792C194.143 201.528 194.095 202.24 194.031 202.928C193.967 203.6 193.863 204.224 193.719 204.8C193.575 205.36 193.367 205.824 193.095 206.192C192.823 206.56 192.463 206.8 192.015 206.912L189.039 206.456C189.519 206.456 189.903 206.304 190.191 206C190.495 205.68 190.727 205.248 190.887 204.704C191.063 204.144 191.191 203.512 191.271 202.808C191.351 202.088 191.407 201.344 191.439 200.576L191.607 196.184H202.167V207.608H199.167ZM188.583 211.856V206.456H204.063V211.856H201.255V209H191.367V211.856H188.583ZM212.719 209.168C211.295 209.168 210.047 208.888 208.975 208.328C207.919 207.752 207.095 206.968 206.503 205.976C205.927 204.984 205.639 203.856 205.639 202.592C205.639 201.312 205.919 200.184 206.479 199.208C207.055 198.216 207.839 197.44 208.831 196.88C209.839 196.32 210.983 196.04 212.263 196.04C213.511 196.04 214.623 196.312 215.599 196.856C216.575 197.4 217.343 198.168 217.903 199.16C218.463 200.152 218.743 201.32 218.743 202.664C218.743 202.792 218.735 202.936 218.719 203.096C218.719 203.256 218.711 203.408 218.695 203.552H208.015V201.56H217.111L215.935 202.184C215.951 201.448 215.799 200.8 215.479 200.24C215.159 199.68 214.719 199.24 214.159 198.92C213.615 198.6 212.983 198.44 212.263 198.44C211.527 198.44 210.879 198.6 210.319 198.92C209.775 199.24 209.343 199.688 209.023 200.264C208.719 200.824 208.567 201.488 208.567 202.256V202.736C208.567 203.504 208.743 204.184 209.095 204.776C209.447 205.368 209.943 205.824 210.583 206.144C211.223 206.464 211.959 206.624 212.791 206.624C213.511 206.624 214.159 206.512 214.735 206.288C215.311 206.064 215.823 205.712 216.271 205.232L217.879 207.08C217.303 207.752 216.575 208.272 215.695 208.64C214.831 208.992 213.839 209.168 212.719 209.168ZM224.196 209V198.008L224.892 198.728H219.684V196.184H231.684V198.728H226.5L227.196 198.008V209H224.196ZM240.292 200.408C241.94 200.408 243.196 200.776 244.06 201.512C244.924 202.248 245.356 203.288 245.356 204.632C245.356 206.024 244.876 207.112 243.916 207.896C242.956 208.664 241.604 209.04 239.86 209.024L233.86 209V196.184H236.86V200.384L240.292 200.408ZM239.596 206.816C240.476 206.832 241.148 206.648 241.612 206.264C242.076 205.88 242.308 205.32 242.308 204.584C242.308 203.848 242.076 203.32 241.612 203C241.164 202.664 240.492 202.488 239.596 202.472L236.86 202.448V206.792L239.596 206.816ZM254.625 209V196.184H260.889C262.441 196.184 263.657 196.472 264.537 197.048C265.433 197.624 265.881 198.44 265.881 199.496C265.881 200.536 265.465 201.352 264.633 201.944C263.801 202.52 262.697 202.808 261.321 202.808L261.681 202.064C263.233 202.064 264.385 202.352 265.137 202.928C265.905 203.488 266.289 204.312 266.289 205.4C266.289 206.536 265.865 207.424 265.017 208.064C264.169 208.688 262.881 209 261.153 209H254.625ZM257.481 206.816H260.913C261.729 206.816 262.345 206.688 262.761 206.432C263.177 206.16 263.385 205.752 263.385 205.208C263.385 204.632 263.193 204.208 262.809 203.936C262.425 203.664 261.825 203.528 261.009 203.528H257.481V206.816ZM257.481 201.536H260.625C261.393 201.536 261.969 201.4 262.353 201.128C262.753 200.84 262.953 200.44 262.953 199.928C262.953 199.4 262.753 199.008 262.353 198.752C261.969 198.496 261.393 198.368 260.625 198.368H257.481V201.536ZM277.261 209V206.408L277.093 205.856V201.32C277.093 200.44 276.829 199.76 276.301 199.28C275.773 198.784 274.973 198.536 273.901 198.536C273.181 198.536 272.469 198.648 271.765 198.872C271.077 199.096 270.493 199.408 270.013 199.808L268.837 197.624C269.525 197.096 270.341 196.704 271.285 196.448C272.245 196.176 273.237 196.04 274.261 196.04C276.117 196.04 277.549 196.488 278.557 197.384C279.581 198.264 280.093 199.632 280.093 201.488V209H277.261ZM273.229 209.168C272.269 209.168 271.429 209.008 270.709 208.688C269.989 208.352 269.429 207.896 269.029 207.32C268.645 206.728 268.453 206.064 268.453 205.328C268.453 204.608 268.621 203.96 268.957 203.384C269.309 202.808 269.877 202.352 270.661 202.016C271.445 201.68 272.485 201.512 273.781 201.512H277.501V203.504H273.997C272.973 203.504 272.285 203.672 271.933 204.008C271.581 204.328 271.405 204.728 271.405 205.208C271.405 205.752 271.621 206.184 272.053 206.504C272.485 206.824 273.085 206.984 273.853 206.984C274.589 206.984 275.245 206.816 275.821 206.48C276.413 206.144 276.837 205.648 277.093 204.992L277.597 206.792C277.309 207.544 276.789 208.128 276.037 208.544C275.301 208.96 274.365 209.168 273.229 209.168ZM292.421 206.456L291.773 207.176V196.184H294.773V207.176L294.053 206.456H300.389L299.693 207.176V196.184H302.693V209H283.805V196.184H286.805V207.176L286.109 206.456H292.421ZM307.879 213.824C307.255 213.824 306.631 213.72 306.007 213.512C305.383 213.304 304.863 213.016 304.447 212.648L305.647 210.44C305.951 210.712 306.295 210.928 306.679 211.088C307.063 211.248 307.455 211.328 307.855 211.328C308.399 211.328 308.839 211.192 309.175 210.92C309.511 210.648 309.823 210.192 310.111 209.552L310.855 207.872L311.095 207.512L315.943 196.184H318.823L312.823 210.032C312.423 210.992 311.975 211.752 311.479 212.312C310.999 212.872 310.455 213.264 309.847 213.488C309.255 213.712 308.599 213.824 307.879 213.824ZM310.519 209.456L304.735 196.184H307.855L312.559 207.248L310.519 209.456ZM11.208 241L6.576 234.856L9.024 233.344L14.736 241H11.208ZM2.016 241V228.184H5.016V241H2.016ZM4.128 235.864V233.368H8.472V235.864H4.128ZM9.312 234.952L6.504 234.616L11.208 228.184H14.424L9.312 234.952ZM22.1421 241.168C20.8301 241.168 19.6621 240.888 18.6381 240.328C17.6141 239.752 16.8061 238.968 16.2141 237.976C15.6221 236.984 15.3261 235.856 15.3261 234.592C15.3261 233.312 15.6221 232.184 16.2141 231.208C16.8061 230.216 17.6141 229.44 18.6381 228.88C19.6621 228.32 20.8301 228.04 22.1421 228.04C23.4701 228.04 24.6461 228.32 25.6701 228.88C26.7101 229.44 27.5181 230.208 28.0941 231.184C28.6861 232.16 28.9821 233.296 28.9821 234.592C28.9821 235.856 28.6861 236.984 28.0941 237.976C27.5181 238.968 26.7101 239.752 25.6701 240.328C24.6461 240.888 23.4701 241.168 22.1421 241.168ZM22.1421 238.6C22.8781 238.6 23.5341 238.44 24.1101 238.12C24.6861 237.8 25.1341 237.336 25.4541 236.728C25.7901 236.12 25.9581 235.408 25.9581 234.592C25.9581 233.76 25.7901 233.048 25.4541 232.456C25.1341 231.848 24.6861 231.384 24.1101 231.064C23.5341 230.744 22.8861 230.584 22.1661 230.584C21.4301 230.584 20.7741 230.744 20.1981 231.064C19.6381 231.384 19.1901 231.848 18.8541 232.456C18.5181 233.048 18.3501 233.76 18.3501 234.592C18.3501 235.408 18.5181 236.12 18.8541 236.728C19.1901 237.336 19.6381 237.8 20.1981 238.12C20.7741 238.44 21.4221 238.6 22.1421 238.6ZM31.9457 241V228.184H35.0897L40.2497 237.28H39.0017L44.4257 228.184H47.2337L47.2577 241H44.5457V231.4L45.0257 231.712L40.2257 239.656H38.9297L34.1057 231.496L34.6817 231.352V241H31.9457ZM51.2816 241V228.184H63.5696V241H60.5936V230.032L61.2896 230.728H53.5856L54.2816 230.032V241H51.2816ZM75.3936 241V238.408L75.2256 237.856V233.32C75.2256 232.44 74.9616 231.76 74.4336 231.28C73.9056 230.784 73.1056 230.536 72.0336 230.536C71.3136 230.536 70.6016 230.648 69.8976 230.872C69.2096 231.096 68.6256 231.408 68.1456 231.808L66.9696 229.624C67.6576 229.096 68.4736 228.704 69.4176 228.448C70.3776 228.176 71.3696 228.04 72.3936 228.04C74.2496 228.04 75.6816 228.488 76.6896 229.384C77.7136 230.264 78.2256 231.632 78.2256 233.488V241H75.3936ZM71.3616 241.168C70.4016 241.168 69.5616 241.008 68.8416 240.688C68.1216 240.352 67.5616 239.896 67.1616 239.32C66.7776 238.728 66.5856 238.064 66.5856 237.328C66.5856 236.608 66.7536 235.96 67.0896 235.384C67.4416 234.808 68.0096 234.352 68.7936 234.016C69.5776 233.68 70.6176 233.512 71.9136 233.512H75.6336V235.504H72.1296C71.1056 235.504 70.4176 235.672 70.0656 236.008C69.7136 236.328 69.5376 236.728 69.5376 237.208C69.5376 237.752 69.7536 238.184 70.1856 238.504C70.6176 238.824 71.2176 238.984 71.9856 238.984C72.7216 238.984 73.3776 238.816 73.9536 238.48C74.5456 238.144 74.9696 237.648 75.2256 236.992L75.7296 238.792C75.4416 239.544 74.9216 240.128 74.1696 240.544C73.4336 240.96 72.4976 241.168 71.3616 241.168ZM81.9379 241V228.184H84.9379V233.392H91.3939V228.184H94.3939V241H91.3939V235.936H84.9379V241H81.9379ZM98.4144 241V228.184H101.414V236.632L108.494 228.184H111.23V241H108.23V232.552L101.174 241H98.4144ZM115.266 241V228.184H118.266V233.152H122.082V235.864H118.266V241H115.266ZM126.978 241.168C125.698 241.168 124.554 240.888 123.546 240.328C122.554 239.752 121.77 238.968 121.194 237.976C120.618 236.984 120.33 235.856 120.33 234.592C120.33 233.312 120.618 232.176 121.194 231.184C121.77 230.192 122.554 229.424 123.546 228.88C124.554 228.32 125.698 228.04 126.978 228.04C128.274 228.04 129.418 228.32 130.41 228.88C131.418 229.424 132.21 230.192 132.786 231.184C133.362 232.176 133.65 233.312 133.65 234.592C133.65 235.856 133.362 236.992 132.786 238C132.21 238.992 131.418 239.768 130.41 240.328C129.418 240.888 128.274 241.168 126.978 241.168ZM126.978 238.624C127.698 238.624 128.33 238.456 128.874 238.12C129.434 237.784 129.874 237.32 130.194 236.728C130.514 236.136 130.674 235.424 130.674 234.592C130.674 233.76 130.514 233.048 130.194 232.456C129.874 231.848 129.434 231.384 128.874 231.064C128.33 230.744 127.706 230.584 127.002 230.584C126.298 230.584 125.666 230.744 125.106 231.064C124.546 231.384 124.106 231.848 123.786 232.456C123.466 233.048 123.306 233.76 123.306 234.592C123.306 235.424 123.466 236.136 123.786 236.728C124.106 237.32 124.546 237.784 125.106 238.12C125.666 238.456 126.29 238.624 126.978 238.624ZM149.059 241.168C147.715 241.168 146.515 240.888 145.459 240.328C144.419 239.752 143.603 238.968 143.011 237.976C142.419 236.984 142.123 235.856 142.123 234.592C142.123 233.312 142.419 232.184 143.011 231.208C143.603 230.216 144.419 229.44 145.459 228.88C146.515 228.32 147.715 228.04 149.059 228.04C150.307 228.04 151.403 228.296 152.347 228.808C153.307 229.304 154.035 230.04 154.531 231.016L152.227 232.36C151.843 231.752 151.371 231.304 150.811 231.016C150.267 230.728 149.675 230.584 149.035 230.584C148.299 230.584 147.635 230.744 147.043 231.064C146.451 231.384 145.987 231.848 145.651 232.456C145.315 233.048 145.147 233.76 145.147 234.592C145.147 235.424 145.315 236.144 145.651 236.752C145.987 237.344 146.451 237.8 147.043 238.12C147.635 238.44 148.299 238.6 149.035 238.6C149.675 238.6 150.267 238.456 150.811 238.168C151.371 237.88 151.843 237.432 152.227 236.824L154.531 238.168C154.035 239.128 153.307 239.872 152.347 240.4C151.403 240.912 150.307 241.168 149.059 241.168ZM164.276 241.168C163.236 241.168 162.284 240.928 161.42 240.448C160.572 239.968 159.892 239.248 159.38 238.288C158.884 237.312 158.636 236.08 158.636 234.592C158.636 233.088 158.876 231.856 159.356 230.896C159.852 229.936 160.524 229.224 161.372 228.76C162.22 228.28 163.188 228.04 164.276 228.04C165.54 228.04 166.652 228.312 167.612 228.856C168.588 229.4 169.356 230.16 169.916 231.136C170.492 232.112 170.78 233.264 170.78 234.592C170.78 235.92 170.492 237.08 169.916 238.072C169.356 239.048 168.588 239.808 167.612 240.352C166.652 240.896 165.54 241.168 164.276 241.168ZM157.172 245.656V228.184H160.028V231.208L159.932 234.616L160.172 238.024V245.656H157.172ZM163.94 238.6C164.66 238.6 165.3 238.44 165.86 238.12C166.436 237.8 166.892 237.336 167.228 236.728C167.564 236.12 167.732 235.408 167.732 234.592C167.732 233.76 167.564 233.048 167.228 232.456C166.892 231.848 166.436 231.384 165.86 231.064C165.3 230.744 164.66 230.584 163.94 230.584C163.22 230.584 162.572 230.744 161.996 231.064C161.42 231.384 160.964 231.848 160.628 232.456C160.292 233.048 160.124 233.76 160.124 234.592C160.124 235.408 160.292 236.12 160.628 236.728C160.964 237.336 161.42 237.8 161.996 238.12C162.572 238.44 163.22 238.6 163.94 238.6ZM179.742 241.168C178.318 241.168 177.07 240.888 175.998 240.328C174.942 239.752 174.118 238.968 173.526 237.976C172.95 236.984 172.662 235.856 172.662 234.592C172.662 233.312 172.942 232.184 173.502 231.208C174.078 230.216 174.862 229.44 175.854 228.88C176.862 228.32 178.006 228.04 179.286 228.04C180.534 228.04 181.646 228.312 182.622 228.856C183.598 229.4 184.366 230.168 184.926 231.16C185.486 232.152 185.766 233.32 185.766 234.664C185.766 234.792 185.758 234.936 185.742 235.096C185.742 235.256 185.734 235.408 185.718 235.552H175.038V233.56H184.134L182.958 234.184C182.974 233.448 182.822 232.8 182.502 232.24C182.182 231.68 181.742 231.24 181.182 230.92C180.638 230.6 180.006 230.44 179.286 230.44C178.55 230.44 177.902 230.6 177.342 230.92C176.798 231.24 176.366 231.688 176.046 232.264C175.742 232.824 175.59 233.488 175.59 234.256V234.736C175.59 235.504 175.766 236.184 176.118 236.776C176.47 237.368 176.966 237.824 177.606 238.144C178.246 238.464 178.982 238.624 179.814 238.624C180.534 238.624 181.182 238.512 181.758 238.288C182.334 238.064 182.846 237.712 183.294 237.232L184.902 239.08C184.326 239.752 183.598 240.272 182.718 240.64C181.854 240.992 180.862 241.168 179.742 241.168ZM197.667 239.608V230.728H192.747L192.675 232.792C192.643 233.528 192.595 234.24 192.531 234.928C192.467 235.6 192.363 236.224 192.219 236.8C192.075 237.36 191.867 237.824 191.595 238.192C191.323 238.56 190.963 238.8 190.515 238.912L187.539 238.456C188.019 238.456 188.403 238.304 188.691 238C188.995 237.68 189.227 237.248 189.387 236.704C189.563 236.144 189.691 235.512 189.771 234.808C189.851 234.088 189.907 233.344 189.939 232.576L190.107 228.184H200.667V239.608H197.667ZM187.083 243.856V238.456H202.563V243.856H199.755V241H189.867V243.856H187.083ZM205.243 241V228.184H208.243V236.632L215.323 228.184H218.059V241H215.059V232.552L208.003 241H205.243ZM228.727 241V228.184H231.727V233.392H238.183V228.184H241.183V241H238.183V235.936H231.727V241H228.727ZM252.98 241V238.408L252.812 237.856V233.32C252.812 232.44 252.548 231.76 252.02 231.28C251.492 230.784 250.692 230.536 249.62 230.536C248.9 230.536 248.188 230.648 247.484 230.872C246.796 231.096 246.212 231.408 245.732 231.808L244.556 229.624C245.244 229.096 246.06 228.704 247.004 228.448C247.964 228.176 248.956 228.04 249.98 228.04C251.836 228.04 253.268 228.488 254.276 229.384C255.3 230.264 255.812 231.632 255.812 233.488V241H252.98ZM248.948 241.168C247.988 241.168 247.148 241.008 246.428 240.688C245.708 240.352 245.148 239.896 244.748 239.32C244.364 238.728 244.172 238.064 244.172 237.328C244.172 236.608 244.34 235.96 244.676 235.384C245.028 234.808 245.596 234.352 246.38 234.016C247.164 233.68 248.204 233.512 249.5 233.512H253.22V235.504H249.716C248.692 235.504 248.004 235.672 247.652 236.008C247.3 236.328 247.124 236.728 247.124 237.208C247.124 237.752 247.34 238.184 247.772 238.504C248.204 238.824 248.804 238.984 249.572 238.984C250.308 238.984 250.964 238.816 251.54 238.48C252.132 238.144 252.556 237.648 252.812 236.992L253.316 238.792C253.028 239.544 252.508 240.128 251.756 240.544C251.02 240.96 250.084 241.168 248.948 241.168ZM268.14 238.456L267.492 239.176V228.184H270.492V239.176L269.772 238.456H276.108L275.412 239.176V228.184H278.412V241H259.524V228.184H262.524V239.176L261.828 238.456H268.14ZM282.446 241V228.184H285.446V236.632L292.526 228.184H295.262V241H292.262V232.552L285.206 241H282.446ZM297.401 241L303.041 233.656L302.993 235.264L297.617 228.184H300.953L304.721 233.224H303.449L307.241 228.184H310.481L305.057 235.264L305.081 233.656L310.697 241H307.313L303.353 235.648L304.601 235.816L300.713 241H297.401ZM2.016 273V260.184H14.304V273H11.328V262.032L12.024 262.728H4.32L5.016 262.032V273H2.016ZM26.1279 273V270.408L25.9599 269.856V265.32C25.9599 264.44 25.6959 263.76 25.1679 263.28C24.6399 262.784 23.8399 262.536 22.7679 262.536C22.0479 262.536 21.3359 262.648 20.6319 262.872C19.9439 263.096 19.3599 263.408 18.8799 263.808L17.7039 261.624C18.3919 261.096 19.2079 260.704 20.1519 260.448C21.1119 260.176 22.1039 260.04 23.1279 260.04C24.9839 260.04 26.4159 260.488 27.4239 261.384C28.4479 262.264 28.9599 263.632 28.9599 265.488V273H26.1279ZM22.0959 273.168C21.1359 273.168 20.2959 273.008 19.5759 272.688C18.8559 272.352 18.2959 271.896 17.8959 271.32C17.5119 270.728 17.3199 270.064 17.3199 269.328C17.3199 268.608 17.4879 267.96 17.8239 267.384C18.1759 266.808 18.7439 266.352 19.5279 266.016C20.3119 265.68 21.3519 265.512 22.6479 265.512H26.3679V267.504H22.8639C21.8399 267.504 21.1519 267.672 20.7999 268.008C20.4479 268.328 20.2719 268.728 20.2719 269.208C20.2719 269.752 20.4879 270.184 20.9199 270.504C21.3519 270.824 21.9519 270.984 22.7199 270.984C23.4559 270.984 24.1119 270.816 24.6879 270.48C25.2799 270.144 25.7039 269.648 25.9599 268.992L26.4639 270.792C26.1759 271.544 25.6559 272.128 24.9039 272.544C24.1679 272.96 23.2319 273.168 22.0959 273.168ZM39.7763 273.168C38.7363 273.168 37.7843 272.928 36.9203 272.448C36.0723 271.968 35.3923 271.248 34.8803 270.288C34.3843 269.312 34.1363 268.08 34.1363 266.592C34.1363 265.088 34.3763 263.856 34.8563 262.896C35.3523 261.936 36.0243 261.224 36.8723 260.76C37.7203 260.28 38.6883 260.04 39.7763 260.04C41.0403 260.04 42.1523 260.312 43.1123 260.856C44.0883 261.4 44.8563 262.16 45.4163 263.136C45.9923 264.112 46.2803 265.264 46.2803 266.592C46.2803 267.92 45.9923 269.08 45.4163 270.072C44.8563 271.048 44.0883 271.808 43.1123 272.352C42.1523 272.896 41.0403 273.168 39.7763 273.168ZM32.6723 277.656V260.184H35.5283V263.208L35.4323 266.616L35.6723 270.024V277.656H32.6723ZM39.4403 270.6C40.1603 270.6 40.8003 270.44 41.3603 270.12C41.9363 269.8 42.3923 269.336 42.7283 268.728C43.0643 268.12 43.2323 267.408 43.2323 266.592C43.2323 265.76 43.0643 265.048 42.7283 264.456C42.3923 263.848 41.9363 263.384 41.3603 263.064C40.8003 262.744 40.1603 262.584 39.4403 262.584C38.7203 262.584 38.0723 262.744 37.4963 263.064C36.9203 263.384 36.4643 263.848 36.1283 264.456C35.7923 265.048 35.6243 265.76 35.6243 266.592C35.6243 267.408 35.7923 268.12 36.1283 268.728C36.4643 269.336 36.9203 269.8 37.4963 270.12C38.0723 270.44 38.7203 270.6 39.4403 270.6ZM51.4613 273V262.008L52.1573 262.728H46.9493V260.184H58.9493V262.728H53.7653L54.4613 262.008V273H51.4613ZM61.1254 273V260.184H64.1254V265.392H70.5814V260.184H73.5814V273H70.5814V267.936H64.1254V273H61.1254ZM83.5779 273.168C82.1539 273.168 80.9059 272.888 79.8339 272.328C78.7779 271.752 77.9539 270.968 77.3619 269.976C76.7859 268.984 76.4979 267.856 76.4979 266.592C76.4979 265.312 76.7779 264.184 77.3379 263.208C77.9139 262.216 78.6979 261.44 79.6899 260.88C80.6979 260.32 81.8419 260.04 83.1219 260.04C84.3699 260.04 85.4819 260.312 86.4579 260.856C87.4339 261.4 88.2019 262.168 88.7619 263.16C89.3219 264.152 89.6019 265.32 89.6019 266.664C89.6019 266.792 89.5939 266.936 89.5779 267.096C89.5779 267.256 89.5699 267.408 89.5539 267.552H78.8739V265.56H87.9699L86.7939 266.184C86.8099 265.448 86.6579 264.8 86.3379 264.24C86.0179 263.68 85.5779 263.24 85.0179 262.92C84.4739 262.6 83.8419 262.44 83.1219 262.44C82.3859 262.44 81.7379 262.6 81.1779 262.92C80.6339 263.24 80.2019 263.688 79.8819 264.264C79.5779 264.824 79.4259 265.488 79.4259 266.256V266.736C79.4259 267.504 79.6019 268.184 79.9539 268.776C80.3059 269.368 80.8019 269.824 81.4419 270.144C82.0819 270.464 82.8179 270.624 83.6499 270.624C84.3699 270.624 85.0179 270.512 85.5939 270.288C86.1699 270.064 86.6819 269.712 87.1299 269.232L88.7379 271.08C88.1619 271.752 87.4339 272.272 86.5539 272.64C85.6899 272.992 84.6979 273.168 83.5779 273.168ZM99.9872 273.168C98.9472 273.168 97.9952 272.928 97.1312 272.448C96.2832 271.968 95.6032 271.248 95.0912 270.288C94.5952 269.312 94.3472 268.08 94.3472 266.592C94.3472 265.088 94.5872 263.856 95.0672 262.896C95.5632 261.936 96.2352 261.224 97.0832 260.76C97.9312 260.28 98.8992 260.04 99.9872 260.04C101.251 260.04 102.363 260.312 103.323 260.856C104.299 261.4 105.067 262.16 105.627 263.136C106.203 264.112 106.491 265.264 106.491 266.592C106.491 267.92 106.203 269.08 105.627 270.072C105.067 271.048 104.299 271.808 103.323 272.352C102.363 272.896 101.251 273.168 99.9872 273.168ZM92.8832 277.656V260.184H95.7392V263.208L95.6432 266.616L95.8832 270.024V277.656H92.8832ZM99.6512 270.6C100.371 270.6 101.011 270.44 101.571 270.12C102.147 269.8 102.603 269.336 102.939 268.728C103.275 268.12 103.443 267.408 103.443 266.592C103.443 265.76 103.275 265.048 102.939 264.456C102.603 263.848 102.147 263.384 101.571 263.064C101.011 262.744 100.371 262.584 99.6512 262.584C98.9312 262.584 98.2832 262.744 97.7072 263.064C97.1312 263.384 96.6752 263.848 96.3392 264.456C96.0032 265.048 95.8352 265.76 95.8352 266.592C95.8352 267.408 96.0032 268.12 96.3392 268.728C96.6752 269.336 97.1312 269.8 97.7072 270.12C98.2832 270.44 98.9312 270.6 99.6512 270.6ZM115.189 273.168C113.877 273.168 112.709 272.888 111.685 272.328C110.661 271.752 109.853 270.968 109.261 269.976C108.669 268.984 108.373 267.856 108.373 266.592C108.373 265.312 108.669 264.184 109.261 263.208C109.853 262.216 110.661 261.44 111.685 260.88C112.709 260.32 113.877 260.04 115.189 260.04C116.517 260.04 117.693 260.32 118.717 260.88C119.757 261.44 120.565 262.208 121.141 263.184C121.733 264.16 122.029 265.296 122.029 266.592C122.029 267.856 121.733 268.984 121.141 269.976C120.565 270.968 119.757 271.752 118.717 272.328C117.693 272.888 116.517 273.168 115.189 273.168ZM115.189 270.6C115.925 270.6 116.581 270.44 117.157 270.12C117.733 269.8 118.181 269.336 118.501 268.728C118.837 268.12 119.005 267.408 119.005 266.592C119.005 265.76 118.837 265.048 118.501 264.456C118.181 263.848 117.733 263.384 117.157 263.064C116.581 262.744 115.933 262.584 115.213 262.584C114.477 262.584 113.821 262.744 113.245 263.064C112.685 263.384 112.237 263.848 111.901 264.456C111.565 265.048 111.397 265.76 111.397 266.592C111.397 267.408 111.565 268.12 111.901 268.728C112.237 269.336 112.685 269.8 113.245 270.12C113.821 270.44 114.469 270.6 115.189 270.6ZM124.993 273V260.184H131.257C132.809 260.184 134.025 260.472 134.905 261.048C135.801 261.624 136.249 262.44 136.249 263.496C136.249 264.536 135.833 265.352 135.001 265.944C134.169 266.52 133.065 266.808 131.689 266.808L132.049 266.064C133.601 266.064 134.753 266.352 135.505 266.928C136.273 267.488 136.657 268.312 136.657 269.4C136.657 270.536 136.233 271.424 135.385 272.064C134.537 272.688 133.249 273 131.521 273H124.993ZM127.849 270.816H131.281C132.097 270.816 132.713 270.688 133.129 270.432C133.545 270.16 133.753 269.752 133.753 269.208C133.753 268.632 133.561 268.208 133.177 267.936C132.793 267.664 132.193 267.528 131.377 267.528H127.849V270.816ZM127.849 265.536H130.993C131.761 265.536 132.337 265.4 132.721 265.128C133.121 264.84 133.321 264.44 133.321 263.928C133.321 263.4 133.121 263.008 132.721 262.752C132.337 262.496 131.761 262.368 130.993 262.368H127.849V265.536Z" fill="white"/>
</svg>
