<svg width="208" height="30" viewBox="0 0 208 30" fill="none" xmlns="http://www.w3.org/2000/svg">
<g clip-path="url(#clip0_27_550)">
<path d="M18.8607 14.6209L34.19 29.8652H47.2187C47.2187 29.8652 41.6465 24.3745 39.5569 22.2447C39.5569 22.2447 46.3824 20.1443 46.3511 12.1417C46.3824 0.097391 34.9861 0.140364 32.7937 0.135254L11.6976 0.13688L0.793277 13.0648C0.516762 13.3799 0.364759 13.7841 0.365543 14.2023C0.365543 14.6571 0.546355 15.0634 0.840232 15.3693C0.861257 15.3919 0.883683 15.4176 0.906343 15.4386L15.4112 29.8636L28.4419 29.8652L12.7009 14.2023L16.5344 9.66428H32.1191C33.7013 9.66428 34.6105 10.776 34.6105 12.1417C34.6105 13.5091 33.4943 14.6209 32.1191 14.6209H18.8607Z" fill="#BDBDBD"/>
<path d="M174.935 26.4335H169.574V14.6192H164.973V28.1485C164.973 28.6033 165.155 29.0394 165.479 29.361C165.802 29.6826 166.241 29.8633 166.698 29.8635H179.536V14.619H174.935V26.4335ZM194.568 14.6208H181.732V29.8651H196.292V26.4354H186.33V23.958H196.292V16.334C196.292 16.1089 196.248 15.8859 196.161 15.678C196.074 15.47 195.947 15.2811 195.787 15.122C195.627 14.9629 195.437 14.8367 195.227 14.7507C195.018 14.6647 194.794 14.6206 194.568 14.6208ZM191.695 20.5159H186.33V18.0409H191.695V20.5159ZM54.0167 14.6208V29.8651H58.6169V18.0508H62.8312L62.8295 14.619L54.0167 14.6208ZM110.789 14.6208H97.9507V29.8635H112.513V26.4351H102.551V23.9578H112.513V16.334C112.513 16.1088 112.469 15.8859 112.382 15.6778C112.295 15.4698 112.168 15.2808 112.008 15.1217C111.848 14.9626 111.658 14.8364 111.449 14.7505C111.239 14.6645 111.015 14.6205 110.789 14.6208ZM107.915 20.5159H102.551V18.0511H107.915V20.5159ZM77.2772 14.6208H64.4395V29.8651H79.0019V16.334C79.0021 16.1088 78.9575 15.8858 78.8709 15.6778C78.7843 15.4697 78.6572 15.2807 78.497 15.1216C78.3368 14.9625 78.1466 14.8363 77.9372 14.7504C77.7279 14.6645 77.5036 14.6204 77.2772 14.6208ZM69.0397 26.4351V18.0492H74.4034L74.405 26.4356H69.0397M94.0338 14.6208H81.1959V23.958H91.1581V26.4354H81.1959V29.8651H95.7567V20.5194H85.7945V18.0506H95.7567C95.7567 18.0506 95.7583 16.7142 95.7583 16.334C95.7583 15.3865 94.9846 14.6208 94.0338 14.6208ZM127.543 14.6208H114.705V29.8651H119.304V18.049H124.668V29.8651H129.268V16.334C129.268 16.1089 129.223 15.886 129.137 15.678C129.05 15.4701 128.923 15.2811 128.763 15.122C128.603 14.9629 128.412 14.8368 128.203 14.7508C127.994 14.6648 127.77 14.6206 127.543 14.6208ZM144.279 14.6208L136.066 14.619V6.99707H131.466V29.8654H146.026V16.334C146.037 15.3779 145.235 14.6104 144.279 14.6208ZM141.428 26.4351H136.066V18.0508L141.428 18.0492V26.4356M198.486 14.6208L198.488 29.8651H203.085V18.0508L207.301 18.0525V14.6192L198.486 14.6208ZM161.058 14.6208H148.22L148.222 18.049H158.168V20.5264H148.222L148.22 29.8651H162.783V16.3356C162.783 16.1104 162.738 15.8874 162.651 15.6793C162.565 15.4713 162.438 15.2822 162.277 15.123C162.117 14.9638 161.927 14.8375 161.718 14.7513C161.509 14.6651 161.284 14.6208 161.058 14.6208M158.168 26.4351H152.837V23.9589H158.168V26.4351Z" fill="#BDBDBD"/>
</g>
<defs>
<clipPath id="clip0_27_550">
<rect width="207" height="30" fill="white" transform="translate(0.333313)"/>
</clipPath>
</defs>
</svg>
