<svg width="245" height="40" viewBox="0 0 245 40" fill="none" xmlns="http://www.w3.org/2000/svg">
<path d="M204.452 2.33123C207.317 1.568 210.229 0.970092 213.05 0.0498047C213.196 3.0063 212.827 5.9986 213.259 8.93305C214.739 8.89723 216.218 8.91652 217.697 8.90275C217.739 10.7791 217.73 12.6555 217.708 14.5319C216.174 14.7358 214.62 14.6008 213.077 14.6504C213.055 19.7616 213.075 24.8728 213.072 29.9867C213.141 31.1605 213.174 32.5299 214.108 33.3895C215.121 34.2189 216.54 34.015 217.722 33.7312C217.703 35.4478 217.78 37.1699 217.686 38.8865L217.537 39.1152C214.89 40.074 211.854 40.1209 209.234 39.0518C206.306 37.8863 204.336 34.7617 204.444 31.6316C204.444 25.9749 204.43 20.3182 204.449 14.6642C203.344 14.6394 202.242 14.6449 201.14 14.6284C200.887 12.7299 200.84 10.7929 201.127 8.89448C202.113 8.90826 203.102 8.94958 204.088 8.89999C204.174 8.80355 204.339 8.61068 204.421 8.51424C204.482 6.45324 204.405 4.39224 204.452 2.33123Z" fill="#BDBDBD"/>
<path d="M18.9685 0.154451C20.2936 -0.360799 21.5113 0.509891 22.4645 1.34201C25.5747 4.14144 28.0954 7.514 30.4701 10.9389C34.4013 16.9042 37.7926 23.3821 39.272 30.422C39.8009 32.5298 39.7678 34.7258 39.7265 36.8833C39.8064 38.531 38.1397 39.9031 36.5612 39.7957C25.3461 39.7874 14.1309 39.8122 2.9186 39.8122C1.52463 39.8838 0.364825 38.6274 0.0617883 37.3517C-0.288081 32.7806 0.891004 28.2563 2.50812 24.0158C4.58805 18.7173 7.38425 13.7135 10.6708 9.06801C12.635 6.29888 14.7508 3.60966 17.2825 1.33098C17.8032 0.884616 18.3514 0.463051 18.9685 0.154451ZM19.5278 3.71712C17.704 4.82752 16.3321 6.50278 14.9436 8.09262C11.1336 12.8621 8.0344 18.2213 5.93243 23.9579C4.58805 27.7768 3.50263 31.8217 3.93239 35.9051C4.36215 36.5885 5.15831 37.0073 5.96549 36.9962C15.2384 36.999 24.5141 36.9962 33.7898 36.9935C34.7705 37.0293 35.9771 36.5278 36.0818 35.4229C36.2554 33.7091 36.0708 31.9815 35.8339 30.2815C34.7016 24.3271 32.0625 18.7668 28.8778 13.6502C26.7869 10.341 24.4562 7.13376 21.5471 4.48862C20.9906 4.01195 20.3129 3.42781 19.5278 3.71712Z" fill="#BDBDBD"/>
<path d="M44.52 7.4202C45.8947 3.53791 49.5559 0.650301 53.6138 0.0909651C55.6332 -0.0164936 57.6607 -0.0027155 59.6773 0.126786C61.5617 0.537333 63.4625 1.05534 65.1154 2.08859C64.5094 3.92917 63.8923 5.76424 63.2366 7.58828C61.7462 6.94353 60.2696 6.05906 58.5919 6.11141C57.2558 6.13069 55.7626 5.85516 54.5835 6.63768C52.556 7.82248 52.0849 10.7349 53.1813 12.705C54.1097 14.4794 56.0243 15.3556 57.7489 16.1795C60.1732 17.2651 62.5396 18.651 64.2917 20.6872C66.4378 23.3489 67.0879 27.0741 66.2725 30.3612C65.6416 33.8054 63.2614 36.8033 60.1759 38.4041C58.0685 39.476 55.7048 39.9636 53.3521 39.9884C49.9581 39.881 46.4098 39.5421 43.4401 37.7428C43.8257 35.6433 44.6963 33.6732 45.2913 31.6315C46.6991 31.8464 47.9167 32.6785 49.33 32.8907C51.3383 33.4224 53.6304 33.2654 55.3246 31.9704C56.7434 30.8269 57.4734 28.7411 56.7627 27.0135C56.4651 26.1511 55.9748 25.3465 55.2612 24.7706C53.275 23.1202 50.6854 22.4782 48.6 20.982C46.1509 19.304 44.2417 16.6864 43.8616 13.6969C43.7569 11.5918 43.666 9.39579 44.52 7.4202Z" fill="#BDBDBD"/>
<path d="M151.919 1.13237C154.897 1.10757 157.878 1.10757 160.858 1.13237C165.057 14.0136 169.198 26.9142 173.415 39.7927C170.277 39.8671 167.14 39.834 164.002 39.8092C163.291 37.0373 162.462 34.2985 161.663 31.5514C157.765 31.5266 153.864 31.5432 149.966 31.5432C148.9 34.293 148.343 37.2109 147.304 39.9718C144.646 39.9966 141.988 39.9773 139.329 39.9828C139.541 38.6768 140.078 37.4589 140.472 36.2025C144.282 24.5088 148.059 12.8068 151.919 1.13237ZM155.47 11.0268C155.04 13.4708 154.183 15.8101 153.547 18.2018C152.806 20.9681 151.894 23.6932 151.252 26.4871C154.307 26.4844 157.36 26.4981 160.415 26.4816C159.172 20.8552 157.17 15.3968 156.15 9.71253C155.77 10.0625 155.525 10.5143 155.47 11.0268Z" fill="#BDBDBD"/>
<path d="M19.6324 7.80898C19.9382 7.62437 20.3184 7.7704 20.5883 7.95225C21.3156 8.3876 21.9245 8.99378 22.4672 9.63853C23.6518 11.0823 24.8529 12.5261 25.8143 14.1325C24.8722 14.0113 23.5306 14.5789 22.9162 13.6173C22.1173 12.5675 21.4341 11.3964 20.3927 10.5588C19.6324 10.2282 18.9905 10.8977 18.4671 11.3524C15.4532 14.1518 13.051 17.6759 11.8141 21.6188C11.4036 23.1094 11.0647 24.7737 11.6212 26.2698C17.3624 26.2175 23.1035 26.2671 28.8475 26.2423C30.0128 26.1486 31.2966 26.8677 31.561 28.0608C32.0459 29.4881 32.0569 31.0008 32.0266 32.4887C32.1285 33.4448 31.1478 34.3458 30.2139 34.2796C23.3294 34.2907 16.445 34.2907 9.56056 34.2796C8.69002 34.3513 8.03436 33.5247 7.84152 32.7559C7.75336 31.5959 7.81397 30.4332 7.82499 29.2704C8.72032 29.2539 9.62117 29.2566 10.5165 29.3172C10.5055 30.1659 10.4972 31.0145 10.511 31.8659C11.4504 32.1497 12.4394 32.0588 13.4064 32.0698C17.6296 32.0726 21.8528 32.0726 26.0761 32.0726C27.1477 32.0643 28.2331 32.1497 29.291 31.9376C29.2552 30.8327 29.5417 29.6258 29.1312 28.5898L28.875 28.4603C23.5361 28.3887 18.1943 28.4493 12.8554 28.43C11.905 28.4025 10.9408 28.5182 9.99859 28.3501C9.54403 28.1324 9.18865 27.7494 8.90215 27.3472C8.56605 24.7406 9.15009 22.1313 10.073 19.7066C11.3099 16.83 13.0896 14.2207 15.0621 11.8015C16.4478 10.3329 17.8307 8.77886 19.6324 7.80898Z" fill="#BDBDBD"/>
<path d="M69.6886 10.7073C72.9118 9.14773 76.5124 8.53605 80.0607 8.35144C83.4933 8.24949 87.2702 8.638 89.9563 11.0048C92.2428 12.9529 93.0445 16.0554 93.1574 18.9458C93.1767 25.2032 93.1547 31.4633 93.174 37.7207C90.6229 38.9221 87.8267 39.4979 85.0388 39.7845C81.6834 39.7459 78.2425 40.1785 74.9725 39.2196C72.7135 38.6052 70.4572 37.4287 69.179 35.3952C67.6858 32.9126 67.4406 29.7412 68.4159 27.0272C69.2864 24.6576 71.3333 22.93 73.5758 21.8967C76.0551 20.7037 78.7825 20.1829 81.474 19.7118C82.6531 19.6429 83.8542 19.607 84.9617 19.1304C84.9396 17.7417 85.0636 16.1298 83.9644 15.0773C82.5401 13.5563 80.2977 13.7795 78.4051 13.8043C76.0193 13.7877 73.8485 14.9257 71.5509 15.3693C70.8291 13.8566 70.336 12.2503 69.6886 10.7073ZM77.4023 25.9223C75.9284 27.435 75.9532 29.6861 76.1846 31.6424C76.5731 33.4031 78.1103 34.7422 79.8706 35.037C81.6227 35.2382 83.4658 35.2602 85.0856 34.4611C85.1022 30.7249 85.0994 26.9859 85.0911 23.2469C82.4217 23.6078 79.3775 23.8696 77.4023 25.9223Z" fill="#BDBDBD"/>
<path d="M230.064 8.39576C233.601 8.0844 237.37 8.89448 240.108 11.2558C242.681 13.4876 244.127 16.7693 244.695 20.0757C245.238 24.0186 245.152 28.1792 243.645 31.9127C242.549 34.7314 240.466 37.2085 237.761 38.5916C236.171 39.3053 234.458 39.8867 232.695 39.8233C230.978 39.7737 229.199 40.0162 227.551 39.4182C224.794 38.633 222.281 36.8806 220.788 34.409C218.234 30.4358 217.807 25.49 218.306 20.8968C218.747 17.4774 220.05 14.0305 222.623 11.6443C224.604 9.69904 227.312 8.60792 230.064 8.39576ZM230.339 13.9147C229.452 14.2123 228.686 14.8295 228.251 15.6616C227.199 17.4058 227.105 19.4805 226.81 21.4396C226.675 24.5586 226.697 27.7411 227.609 30.7527C228.108 32.4031 229.466 34.0536 231.331 34.0233C232.907 34.2079 234.364 33.2132 235.083 31.8603C235.921 30.2099 236.182 28.3472 236.207 26.5177C236.648 24.1205 236.169 21.7124 236.072 19.3125C235.722 17.527 235.306 15.477 233.706 14.3804C232.755 13.6337 231.455 13.6915 230.339 13.9147Z" fill="#BDBDBD"/>
<path d="M101.306 9.24423C104.328 8.97972 107.389 8.66286 110.408 9.13402C112.808 9.39303 115.026 10.4649 116.915 11.9307C119.568 9.62447 123.205 8.91911 126.629 8.90533C129.037 8.84471 131.522 9.28832 133.591 10.5806C136.387 12.1925 138.023 15.4906 137.839 18.6813C137.831 25.7736 137.877 32.8659 137.811 39.9581C135.643 40.0187 133.475 39.9554 131.31 39.9884C130.538 40.0187 129.781 39.8892 129.034 39.7349C129.048 32.5325 129.067 25.3272 129.026 18.122C129.103 16.4715 127.844 15.0029 126.299 14.5731C124.389 14.0248 122.23 14.4518 120.736 15.7827C120.748 23.7952 120.723 31.805 120.75 39.8176C117.869 39.8286 114.987 39.8507 112.105 39.8121C112.097 32.9458 112.111 26.0767 112.103 19.2103C112.026 17.7225 111.723 16.0059 110.337 15.1655C108.32 13.9476 105.819 14.3196 103.631 14.7963C103.546 23.0954 103.579 31.4 103.615 39.6991C102.339 40.1841 100.959 39.9223 99.6314 39.9802C97.9564 39.9196 96.2511 40.1593 94.6065 39.757C94.6313 30.3006 94.6395 20.8388 94.601 11.3824C96.6065 10.1067 99.0115 9.69611 101.306 9.24423Z" fill="#BDBDBD"/>
<path d="M173.856 8.91389C176.713 8.90287 179.567 8.92766 182.424 8.90011C182.534 16.1164 182.427 23.3381 182.476 30.5572C182.504 32.0974 183.65 33.5219 185.137 33.9049C186.876 34.5469 188.746 33.9986 190.413 33.4007C190.449 25.6416 190.418 17.8853 190.427 10.1262C190.41 9.69365 190.534 9.28035 190.655 8.87256C193.416 8.94144 196.182 8.92767 198.942 8.88082C199.06 9.28586 199.198 9.6964 199.19 10.1262C199.187 19.252 199.171 28.3749 199.195 37.5006C196.722 38.8921 193.859 39.3219 191.093 39.749C188.432 39.8565 185.763 39.8647 183.099 39.7655C180.746 39.4321 178.325 38.7433 176.504 37.1397C174.713 35.4644 173.738 32.9708 173.831 30.5269C173.834 23.3216 173.784 16.1164 173.856 8.91389Z" fill="#BDBDBD"/>
</svg>
