<svg width="155" height="60" viewBox="0 0 155 60" fill="none" xmlns="http://www.w3.org/2000/svg">
<g clip-path="url(#clip0_27_342)">
<path d="M3.38996 0.286934C21.3042 0.283805 39.2185 0.164884 57.1328 0.152367C57.9574 7.8914 61.8886 15.305 68.0284 20.2745C70.662 22.3649 73.6056 24.1862 76.8305 25.2377C81.0526 23.77 84.8784 21.229 88.0042 18.0933C92.8111 13.2677 95.7484 6.80862 96.5314 0.136719C114.062 0.186789 131.593 0.261897 149.124 0.290062C150.182 0.29945 151.246 0.280676 152.297 0.424629C153.202 0.424629 153.48 1.65761 153.036 2.27411C152.313 3.3162 151.434 4.24251 150.655 5.24079C149.562 6.57392 148.139 8.0291 146.26 8.01658C131.315 8.37959 116.367 8.71131 101.425 9.07432C100.683 9.09936 100.543 9.96307 100.172 10.4356C112.768 10.42 125.36 10.4919 137.956 10.4857C138.612 10.4544 139.439 10.5076 139.631 11.2712C139.462 12.3039 138.554 12.983 137.963 13.7903C137.01 14.967 135.825 16.3909 134.118 16.2469C121.081 16.4629 108.047 16.6287 95.0133 16.7977C94.4284 17.3047 93.8531 17.8273 93.281 18.3499C104.023 18.4 114.765 18.4062 125.507 18.3968C125.639 18.5815 125.897 18.9445 126.028 19.126C124.916 20.3965 123.961 22.4463 121.947 22.2898C110.451 22.3806 98.9573 22.5527 87.4672 22.681C86.2207 22.8563 85.2203 23.7419 84.0633 24.1769C93.4983 24.2238 102.933 24.1487 112.368 24.2488C111.981 25.0875 111.595 26.3236 110.467 26.3549C100.766 26.4582 91.0597 26.4958 81.3562 26.5709C78.4893 26.6773 75.616 26.696 72.7491 26.574C62.9242 26.5051 53.1025 26.4426 43.2808 26.3612C42.143 26.3581 41.6667 25.1157 41.312 24.2457C50.7342 24.1518 60.1595 24.2207 69.5817 24.1769C68.4694 23.7294 67.4818 22.9501 66.3025 22.6904C54.6973 22.5339 43.0858 22.3962 31.4775 22.2836C29.7452 22.3399 28.8663 20.6406 27.8978 19.5172C27.4376 19.0321 27.8946 18.2717 28.5594 18.4187C39.1642 18.3749 49.7721 18.4187 60.3769 18.3436C59.7856 17.8367 59.1975 17.3297 58.6158 16.8102C46.3874 16.6506 34.1559 16.4347 21.9243 16.322C20.7929 16.2782 19.6486 16.3283 18.5236 16.1593C17.2579 15.7681 16.4142 14.6854 15.6087 13.7184C14.9408 12.839 13.9276 12.0629 14.0171 10.8518C14.4933 10.6735 14.9759 10.4544 15.5001 10.4826C28.1471 10.4857 40.7974 10.4387 53.4445 10.4168C53.0801 9.88171 52.8915 8.91159 52.0254 9.04615C37.5214 8.74573 23.0174 8.37959 8.51335 8.04787C7.60245 8.02597 6.64362 8.0823 5.80623 7.66296C4.38715 7.04646 3.44429 5.78531 2.49185 4.63994C1.84943 3.80752 1.08875 3.05646 0.532626 2.16145C0.155483 1.63884 0.554999 1.04112 0.714805 0.518507C1.59694 0.368296 2.49185 0.265028 3.38996 0.286934Z" fill="#BDBDBD"/>
<path d="M0.404778 33.5342C4.77388 33.5342 9.14298 33.5624 13.5089 33.5186C12.8888 35.6622 13.9052 37.7307 14.6531 39.696C16.5324 44.6436 18.4117 49.5912 20.2975 54.5357C22.5603 48.8214 24.8743 43.129 27.1563 37.4241C27.6709 36.1879 27.7988 34.8235 27.5143 33.5186C29.8603 33.553 32.2094 33.5405 34.5586 33.5311C33.5294 34.3885 32.8359 35.5402 32.3596 36.7669C29.1859 44.4809 26.0025 52.1918 22.8544 59.9151C18.9039 59.9371 14.9535 59.9183 11.0063 59.9214C8.59005 53.5906 6.17378 47.2567 3.75751 40.9227C2.75073 38.4161 1.99964 35.7655 0.404778 33.5342Z" fill="#BDBDBD"/>
<path d="M40.5865 33.7157C41.2832 33.5717 41.9959 33.5373 42.7087 33.5342C48.1421 33.5436 53.5787 33.5342 59.0153 33.5404C61.1567 33.5436 63.4036 34.3103 64.8003 35.9532C65.8614 37.2926 66.0915 39.0576 66.1427 40.7005C66.1523 44.6655 66.1459 48.6305 66.1459 52.5954C66.1011 54.254 65.9189 56.0472 64.8706 57.421C63.4803 59.1359 61.1695 59.8901 58.9961 59.9245C53.5627 59.9276 48.1325 59.9182 42.7023 59.9276C40.5609 59.9495 38.3108 59.2861 36.8054 57.7402C35.5366 56.3445 35.316 54.3729 35.2585 52.5829C35.2521 48.7275 35.2617 44.872 35.2553 41.0135C35.2873 39.4143 35.4311 37.7245 36.3132 36.335C37.2817 34.9205 38.9181 34.0693 40.5865 33.7157ZM47.5636 37.956C46.3363 38.028 46.0231 39.3737 46.0295 40.3594C45.9943 44.5372 46.0167 48.715 46.0199 52.8927C46.0806 53.6688 45.9879 54.6827 46.7742 55.1428C47.9759 55.7937 49.3982 55.512 50.7086 55.5778C51.9391 55.5214 53.2335 55.7405 54.4065 55.2899C55.3366 54.8924 55.327 53.7408 55.3781 52.899C55.3973 48.9309 55.3749 44.9628 55.3877 40.9947C55.3558 40.1936 55.4165 39.3236 54.9946 38.6038C54.3202 37.8715 53.2175 37.906 52.2939 37.8496C50.7182 37.8715 49.1297 37.7495 47.5636 37.956Z" fill="#BDBDBD"/>
<path d="M69.4251 33.5277C73.7622 33.5434 78.1026 33.5528 82.4397 33.5215C81.6918 34.6262 81.2827 35.9217 81.3051 37.2517C81.2955 43.3604 81.3083 49.4658 81.2987 55.5744C84.7409 55.5713 88.1831 55.5838 91.6254 55.5682C92.8239 55.5901 93.9841 55.2146 95.01 54.6262C94.6649 56.3881 94.3932 58.1593 94.0864 59.9275C85.8564 59.9337 77.6295 59.9024 69.4027 59.9431C70.2241 58.8009 70.5885 57.4208 70.5629 56.0313C70.5597 49.7757 70.5693 43.52 70.5597 37.2643C70.5661 35.9343 70.1666 34.6387 69.4251 33.5277Z" fill="#BDBDBD"/>
<path d="M93.3513 33.5249C102.201 33.5531 111.055 33.5405 119.908 33.5312C120.224 35.2336 120.448 36.9547 120.79 38.654C120.154 38.3724 119.524 38.0313 118.818 37.9718C116.552 37.7496 114.27 37.8842 111.997 37.8498C111.981 43.2855 111.997 48.7213 111.991 54.1571C111.95 56.1286 111.892 58.2723 113.151 59.9434C108.801 59.9121 104.448 59.9152 100.098 59.9403C100.827 58.8731 101.258 57.6245 101.252 56.3321C101.268 50.1922 101.246 44.0491 101.262 37.9092C99.0915 37.8247 96.9149 37.7872 94.748 37.9311C93.9234 37.9405 93.1787 38.2973 92.4659 38.6571C92.8015 36.9516 93.0348 35.2304 93.3513 33.5249Z" fill="#BDBDBD"/>
<path d="M130.292 33.5122C134.428 33.5748 138.567 33.5122 142.706 33.5466C145.378 39.8931 148.104 46.2208 150.795 52.5609C151.936 55.1052 152.745 57.8935 154.79 59.9307C150.063 59.9338 145.336 59.8994 140.612 59.9464C141.542 58.8166 141.335 57.3083 140.766 56.0721C138.439 50.8147 136.042 45.5917 133.715 40.3343C131.043 45.767 128.378 51.2028 125.76 56.6605C125.175 57.7057 125.373 58.9105 125.904 59.9338C123.264 59.9182 120.624 59.9182 117.984 59.9338C119.4 58.4474 120.506 56.7012 121.41 54.8767C124.734 48.2643 128.042 41.6456 131.385 35.0425C131.027 34.5261 130.66 34.0192 130.292 33.5122Z" fill="#BDBDBD"/>
</g>
<defs>
<clipPath id="clip0_27_342">
<rect width="155" height="60" fill="white"/>
</clipPath>
</defs>
</svg>
